<svg width="80" height="86" viewBox="0 0 80 86" fill="none" xmlns="http://www.w3.org/2000/svg">
<path d="M17.3829 43.0907C16.194 43.0907 15.3366 42.5474 14.8979 41.5229C14.8331 41.3734 14.7957 41.2089 14.7932 41.0369C14.7857 40.85 14.7757 40.663 14.7658 40.4786C14.6985 39.2024 14.6337 37.996 15.8974 37.1585L11.0743 17.515C10.9871 17.4925 10.855 17.4601 10.6606 17.4227C8.76128 17.0414 7.33307 15.7203 6.83705 13.8834C6.3236 11.9816 6.92928 9.92024 8.38491 8.62662C9.27474 7.83649 10.4387 7.4003 11.6601 7.4003C12.535 7.4003 13.3899 7.62712 14.1302 8.05334C15.3964 8.78614 16.2887 10.0224 16.5803 11.4432C16.8545 12.7817 16.5679 14.175 15.7927 15.2866L19.5788 20.4387C19.9826 18.6989 20.4637 17.1959 21.0195 15.9497C21.027 15.9322 21.0245 15.9148 21.012 15.9023C19.3969 14.1326 19.1152 12.1859 20.182 10.1221C20.8999 8.73131 22.53 7.79412 24.2374 7.79412C24.4567 7.79412 24.676 7.80907 24.8904 7.84148C26.69 8.10818 28.1008 9.25723 28.6666 10.9098C29.2299 12.5573 28.8161 14.3968 27.5898 15.7403C28.2927 17.5399 29.1053 19.16 30.01 20.5758L34.4692 10.2817C33.2179 9.05783 32.5524 7.47009 32.5898 5.79013C32.6272 4.07278 33.3924 2.49252 34.7483 1.33599C35.7578 0.473579 37.0664 0 38.4298 0C41.194 0 43.5768 1.84197 44.2249 4.47657C44.7558 6.6326 44.1875 8.5992 42.535 10.3265L46.9841 20.5907C47.9238 19.0877 48.7413 17.4701 49.4318 15.7627C49.1775 15.4586 49.0031 15.2368 48.8934 15.0847C47.7867 13.5269 47.8291 11.3161 48.9931 9.70588C49.8779 8.48455 51.2388 7.78415 52.7269 7.78415C55.0449 7.78415 56.9393 9.37438 57.3331 11.6501C57.6147 13.2552 57.1486 14.671 55.9522 15.8624C56.5554 17.3006 57.0439 18.8385 57.4153 20.4462L61.1068 15.4387C59.9951 13.8809 59.8281 11.8769 60.6755 10.1695C61.5355 8.43968 63.2179 7.40528 65.177 7.40528C65.2817 7.40528 65.3864 7.40778 65.4911 7.41276C67.9238 7.54487 69.873 9.43669 70.1247 11.9118C70.4063 14.6735 68.7239 16.8918 65.9273 17.4701L61.0893 37.1386C61.867 37.6496 62.2633 38.4347 62.2708 39.4741C62.2807 40.8873 62.2708 40.9247 62.2384 41.0194C61.7498 42.7218 60.6905 43.0833 59.8854 43.0833C31.9467 43.0833 17.677 43.0833 17.4726 43.0857H17.3879L17.3829 43.0907ZM17.1636 38.9407C17.0065 38.9407 16.8794 39.0678 16.8794 39.2248V40.658C16.8794 40.8151 17.0065 40.9422 17.1636 40.9422H59.8181C59.8804 40.9422 59.9402 40.9197 59.9951 40.8774C60.03 40.85 60.0474 40.83 60.0549 40.8176C60.0748 40.7876 60.0898 40.7527 60.0973 40.7178C60.1023 40.6979 60.1023 40.6805 60.1023 40.6605V39.2273C60.1023 39.0703 59.9751 38.9432 59.8181 38.9432H17.1636V38.9407ZM18.0085 36.7797C19.4692 36.7822 26.341 36.7871 38.4796 36.7896C48.8037 36.7946 55.2792 36.7971 57.9088 36.7971C58.3824 36.7971 58.7314 36.7971 58.9532 36.7971L63.7413 17.3156L62.7069 16.8694C60.8799 19.4666 59.0305 21.9367 57.206 24.2099C56.0394 25.663 53.6117 28.6864 51.0768 28.6864C50.2194 28.6864 49.4293 28.35 48.7239 27.6844C46.9193 25.9796 45.7653 23.2876 44.7483 20.9148L44.5788 20.5209C42.4776 15.6356 41.1965 12.6645 40.6755 11.4706C39.9004 11.7772 39.1651 11.9317 38.4871 11.9317C37.8091 11.9317 37.0738 11.7747 36.2987 11.4681C35.7777 12.6595 34.4941 15.6281 32.3879 20.516L32.2284 20.8898C31.2064 23.2727 30.0499 25.9721 28.2354 27.6795C27.5325 28.3425 26.7423 28.679 25.8849 28.679C23.35 28.679 20.9223 25.653 19.7558 24.1974C17.9363 21.9242 16.0893 19.4541 14.2623 16.8544L13.2304 17.2981L18.0036 36.7822L18.0085 36.7797ZM22.8939 16.9766C22.186 18.7787 21.6526 20.6705 21.3061 22.6047C23.0659 24.8878 24.7309 26.4083 25.5509 26.493C25.6107 26.498 25.673 26.503 25.7329 26.503C26.2713 26.503 26.7349 26.2488 27.1461 25.7278C27.7593 24.9501 28.3525 24.0005 28.9058 22.9088C27.6347 21.0743 26.5579 19.0628 25.703 16.9342C25.2294 17.0887 24.7433 17.1685 24.2498 17.1685C23.8061 17.1685 23.35 17.1037 22.8914 16.9766H22.8939ZM48.0783 22.9038C48.6292 23.993 49.2224 24.9402 49.8356 25.7228C50.2493 26.2438 50.7129 26.498 51.2513 26.498C51.3086 26.498 51.3685 26.4955 51.4283 26.488C52.2458 26.4058 53.9133 24.8853 55.6706 22.6171C55.3316 20.668 54.7982 18.7737 54.0953 16.9766C53.6392 17.1012 53.1855 17.166 52.7418 17.166C52.2483 17.166 51.7598 17.0862 51.2862 16.9317C50.4288 19.0578 49.3495 21.0668 48.0758 22.9038H48.0783ZM62.2932 12.49C62.2932 12.5823 62.3007 12.6795 62.3106 12.7767C62.353 13.168 62.4677 13.5394 62.6546 13.8784C62.8789 14.2871 63.2005 14.6386 63.5843 14.8953C64.0529 15.2094 64.5963 15.3764 65.1571 15.3764C65.2568 15.3764 65.359 15.3714 65.4587 15.3614C65.6506 15.3415 65.8425 15.3016 66.0245 15.2418C66.1142 15.2144 66.2015 15.1795 66.2887 15.1421C66.5429 15.0299 66.7797 14.8829 66.9941 14.7009C67.2035 14.5214 67.3879 14.3121 67.54 14.0778C67.692 13.8435 67.8116 13.5867 67.8914 13.32C67.9737 13.0434 68.0135 12.7567 68.011 12.4676C68.011 12.3704 68.0036 12.2682 67.9936 12.1685C67.9836 12.0688 67.9662 11.9691 67.9462 11.8744C67.9163 11.7323 67.8715 11.5852 67.8091 11.4232C67.7842 11.3609 67.7593 11.2986 67.7319 11.2388C67.6446 11.0494 67.535 10.8674 67.4054 10.7004C67.3206 10.5882 67.2408 10.496 67.1611 10.4163L67.1436 10.3963L67.1287 10.3838C66.7274 9.99252 66.2339 9.73081 65.7005 9.62363C65.5185 9.58624 65.3316 9.56879 65.1471 9.56879C65.0474 9.56879 64.9452 9.57378 64.843 9.58375C64.2747 9.64357 63.7438 9.87288 63.3101 10.2443C63.1008 10.4237 62.9163 10.6331 62.7643 10.8674C62.6122 11.1017 62.4926 11.3584 62.4128 11.6251C62.3331 11.8968 62.2932 12.1785 62.2932 12.4651V12.49ZM11.6576 9.58873C10.0674 9.58873 8.77624 10.8824 8.77624 12.4701C8.77624 14.0578 10.0699 15.3514 11.6576 15.3514C13.2453 15.3514 14.5389 14.0578 14.5389 12.4701C14.5389 10.8824 13.2453 9.58873 11.6576 9.58873ZM52.7468 9.95015C51.356 9.95015 50.2269 11.0818 50.2269 12.4701C50.2269 13.8584 51.3585 14.99 52.7468 14.99C54.1352 14.99 55.2668 13.8584 55.2668 12.4701C55.2668 11.0818 54.1352 9.95015 52.7468 9.95015ZM24.2398 9.95015C22.849 9.95015 21.7199 11.0818 21.7199 12.4701C21.7199 13.8584 22.8515 14.99 24.2398 14.99C25.6282 14.99 26.7598 13.8584 26.7598 12.4701C26.7598 12.2981 26.7423 12.1286 26.7074 11.9616C26.675 11.7996 26.6252 11.6426 26.5604 11.488C26.4981 11.3385 26.4183 11.1939 26.3286 11.0593C26.2388 10.9247 26.1342 10.8001 26.0195 10.6854C25.8475 10.5135 25.6506 10.3664 25.4387 10.2517C25.2219 10.1346 24.9876 10.0474 24.7458 10C24.5788 9.96511 24.4093 9.94766 24.2374 9.94766L24.2398 9.95015ZM38.4971 2.17348C36.4108 2.17348 34.7159 3.87089 34.7159 5.95464C34.7159 8.03839 36.4133 9.73579 38.4971 9.73579C40.5808 9.73579 42.2782 8.03839 42.2782 5.95464C42.2782 3.87089 40.5808 2.17348 38.4971 2.17348Z" fill="#D9D9D9"/>
<path d="M38.4023 85.0573C38.4023 85.0698 38.3923 85.0822 38.3774 85.0822H0.0249252C0.0124626 85.0822 0 85.0723 0 85.0573V46.7049C0 46.6899 0.00997009 46.6799 0.0249252 46.6799H38.3799C38.3923 46.6799 38.4048 46.6899 38.4048 46.7049V85.0598H38.4023V85.0573ZM17.4502 78.2378C17.4477 78.2876 17.4726 78.3125 17.5274 78.3125C19.5464 78.3026 20.678 78.3051 20.9197 78.32C20.9497 78.32 20.9746 78.3001 20.9771 78.2702C20.9771 78.2702 20.9771 78.2577 20.9746 78.2502C20.9696 78.2203 20.9895 78.1904 21.0219 78.1854H21.0269C21.0793 78.1854 21.1266 78.168 21.169 78.143C21.1989 78.1256 21.2164 78.0932 21.2164 78.0608C21.2164 77.8265 21.2612 77.5947 21.3435 77.3679C21.3485 77.3554 21.3559 77.3429 21.3659 77.3355C21.3759 77.3255 21.3809 77.318 21.3834 77.313C21.4531 77.0314 21.4955 76.7921 21.513 76.5927C21.513 76.5628 21.5329 76.5354 21.5603 76.5229C21.5653 76.5229 21.5678 76.5204 21.5678 76.5204C21.6002 76.5005 21.6201 76.4681 21.6226 76.4307L21.6725 76.0094C21.6725 75.9895 21.68 75.9721 21.6874 75.9521L21.9566 75.2966C21.9616 75.2841 21.9641 75.2692 21.9641 75.2567C21.9566 74.9875 22.1037 74.8255 22.1436 74.5688C22.1859 74.2971 22.2233 74.1151 22.2557 74.0204C22.3729 73.6789 22.4252 73.4621 22.4202 73.3748C22.4177 73.3474 22.4302 73.32 22.4526 73.3051C22.5374 73.2452 22.4925 73.1306 22.5249 73.0408C22.6371 72.7019 22.667 72.5075 22.7866 72.171C22.8365 72.0314 22.8614 71.9092 22.8639 71.8046C22.8639 71.7747 22.8789 71.7447 22.9013 71.7248C23.0135 71.6301 22.9736 71.3833 23.006 71.2437C23.0608 71.007 23.1206 70.7876 23.1854 70.5882C23.2303 70.4486 23.2353 70.2791 23.2752 70.1869C23.4297 69.828 23.5045 69.4317 23.6466 69.0379C23.7687 68.6964 23.7787 68.4372 23.8335 68.0907C23.8385 68.0633 23.8509 68.0359 23.8709 68.0159C23.9382 67.9461 23.9806 67.8589 23.9955 67.7567C24.0479 67.4028 24.1326 67.1037 24.2473 66.8594C24.2597 66.832 24.2672 66.8021 24.2697 66.7722C24.2822 66.5927 24.322 66.4282 24.3893 66.2737C24.3993 66.2487 24.4093 66.2263 24.4168 66.2014C24.4965 65.8923 24.5414 65.7278 24.5538 65.7079C24.6311 65.5782 24.5813 65.4087 24.676 65.2791C24.6959 65.2517 24.7059 65.2193 24.7084 65.1844C24.7159 65 24.7308 64.8778 24.7532 64.818C24.8604 64.5139 24.9576 64.2223 25.0399 63.9431C25.0573 63.8833 25.0648 63.8434 25.0598 63.831C25.0474 63.7811 25.0573 63.7437 25.0897 63.7238C25.1321 63.6964 25.157 63.6465 25.162 63.5742C25.1745 63.3948 25.2617 63.0708 25.4237 62.5972C25.4387 62.5498 25.4686 62.4053 25.511 62.161C25.5184 62.1236 25.5409 62.0937 25.5758 62.0787C25.5758 62.0787 25.5808 62.0787 25.5857 62.0787C25.6231 62.0663 25.6481 62.0314 25.6481 61.9915C25.6431 61.7547 25.673 61.5404 25.7403 61.3484C25.7453 61.3335 25.7602 61.3185 25.7802 61.3036C25.8001 61.2886 25.8151 61.2687 25.8175 61.2437L25.9098 60.5408C25.9098 60.5259 25.9222 60.5134 25.9372 60.5084L25.9596 60.501C25.9821 60.481 25.9995 60.4511 26.0045 60.4212L26.1017 59.8305C26.1067 59.7931 26.1416 59.7657 26.1815 59.7682H26.2064C26.2363 59.7682 26.2662 59.7582 26.2836 59.7333C26.3061 59.7034 26.326 59.6909 26.3485 59.6934C26.3734 59.6934 26.3933 59.7158 26.3958 59.7408C26.4357 60.0947 26.4706 60.3813 26.4507 60.7502C26.4158 61.4506 26.503 62.0438 26.5229 62.662C26.5229 62.667 26.5229 62.6744 26.5279 62.6794C26.5304 62.6844 26.5354 62.6894 26.5404 62.6944C26.5528 62.7118 26.5603 62.7343 26.5628 62.7567C26.6351 63.6166 26.6675 64.4292 26.6625 65.1969C26.6625 65.2492 26.6825 65.3215 26.7248 65.4137C26.7373 65.4436 26.7473 65.476 26.7498 65.506C26.822 66.5428 26.8544 67.48 26.847 68.32C26.847 68.4122 26.8719 68.4845 26.9242 68.5344C26.9417 68.5518 26.9541 68.5743 26.9541 68.5992C26.989 69.1949 27.0189 69.8654 27.0364 70.6106C27.0389 70.7527 27.0638 70.9621 27.1062 71.2338C27.1286 71.3758 27.0962 71.6151 27.1585 71.7173C27.1785 71.7497 27.1884 71.7871 27.1909 71.8245L27.2856 74.4915C27.2856 74.5214 27.3006 74.5488 27.323 74.5688L27.4651 74.6884C27.4826 74.7034 27.4826 74.7283 27.4701 74.7432H27.4676L27.3629 74.8429C27.3405 74.8654 27.328 74.8978 27.3305 74.9277C27.4502 75.9596 27.5125 77.0139 27.515 78.0857C27.515 78.1256 27.5424 78.158 27.5798 78.168C27.6296 78.1804 27.657 78.2103 27.662 78.2552C27.6695 78.31 27.7044 78.3375 27.7692 78.3375C28.2503 78.33 29.0977 78.3225 30.3116 78.3175C30.4063 78.3175 30.4985 78.3549 30.5857 78.3449C30.8126 78.3225 31.0917 78.3225 31.4257 78.3449C31.5504 78.3549 31.6376 78.3175 31.6874 78.2378C31.7074 78.2054 31.7174 78.1655 31.7149 78.1281L31.4706 75C31.4706 75 31.4706 74.99 31.4681 74.9875L31.4008 74.8479C31.4008 74.8479 31.3958 74.8305 31.3958 74.823C31.3883 74.4242 31.3784 74.0304 31.3659 73.6415C31.3609 73.4995 31.3385 73.3699 31.2961 73.2527C31.2886 73.2328 31.2837 73.2079 31.2837 73.1854L31.1989 71.7547C31.1989 71.7398 31.1914 71.7223 31.184 71.7074C31.1765 71.6949 31.1715 71.6849 31.169 71.6824C31.1366 71.6201 31.1167 71.5503 31.1142 71.4805C31.0618 70.476 31.0219 69.8355 30.997 69.5588C30.997 69.5314 30.9796 69.499 30.9546 69.4566C30.9397 69.4317 30.9297 69.4043 30.9272 69.3768C30.85 68.5867 30.8599 67.839 30.7403 67.0065C30.6854 66.6176 30.6481 66.0842 30.6281 65.4112C30.6281 65.3689 30.6057 65.3115 30.5658 65.2418C30.5658 65.2368 30.5608 65.2318 30.5608 65.2268L30.3888 62.6994C30.3888 62.6769 30.3789 62.6545 30.3639 62.6371C30.3365 62.5997 30.319 62.5573 30.3141 62.5099C30.2542 61.8095 30.2193 61.1515 30.2119 60.5384C30.2119 60.5209 30.1919 60.4736 30.1496 60.3988C30.1346 60.3714 30.1246 60.3414 30.1246 60.309L29.985 58.4247C29.985 58.4247 29.985 58.4073 29.9801 58.3998C29.9227 58.2153 29.8928 58.0458 29.8878 57.8863C29.8654 57.166 29.8255 56.6126 29.7682 56.2238C29.7483 56.0967 29.7433 55.997 29.7458 55.9222C29.7507 55.8175 29.7358 55.7178 29.6984 55.6256C29.6884 55.5982 29.681 55.5708 29.681 55.5433C29.676 55.2916 29.661 54.8704 29.6386 54.2746C29.6336 54.1824 29.6211 54.0952 29.5962 54.0104C29.5713 53.9257 29.5613 53.8335 29.5688 53.7363C29.5763 53.6116 29.4841 53.5045 29.3594 53.497H24.013C23.988 53.497 23.9681 53.5169 23.9681 53.5394L23.9432 53.8808C23.9432 53.9058 23.9282 53.9307 23.9083 53.9481C23.7587 54.0628 23.7787 54.2373 23.7662 54.4217C23.7662 54.4367 23.7637 54.4516 23.7587 54.4666L23.3998 55.6256C23.3998 55.6256 23.3923 55.643 23.3873 55.6505C23.345 55.7153 23.325 55.7577 23.3225 55.7826C23.2926 56.1565 23.2378 56.4357 23.158 56.6176C23.0683 56.8295 23.0234 57.0065 23.0259 57.1485C23.0259 57.1735 23.0184 57.1984 23.006 57.2208L22.9611 57.2956C22.9462 57.318 22.9362 57.3429 22.9312 57.3704L22.7817 58.0309C22.7817 58.0309 22.7742 58.0483 22.7692 58.0558C22.7617 58.0633 22.7542 58.0683 22.7517 58.0733C22.7368 58.0857 22.7268 58.1057 22.7243 58.1231L22.5748 58.826C22.5723 58.841 22.5598 58.8509 22.5474 58.8534C22.5349 58.8534 22.5274 58.8584 22.5224 58.8609C22.51 58.8684 22.5 58.8808 22.4975 58.8958L22.1436 60.4387C22.1411 60.4536 22.1336 60.4661 22.1211 60.476L22.0788 60.5109C22.0489 60.5309 22.0314 60.5633 22.0314 60.5957C22.0314 60.8873 21.9591 61.1789 21.8195 61.4706C21.8071 61.498 21.7971 61.5254 21.7946 61.5553C21.7697 61.7373 21.7473 61.8619 21.7273 61.9317C21.6725 62.1136 21.6426 62.2183 21.6351 62.2482C21.4033 63.2303 21.1665 64.1052 20.9222 64.8654C20.8325 65.147 20.7353 65.5134 20.6281 65.9671C20.5234 66.4107 20.3215 67.1834 20.0249 68.2801C20 68.3699 19.9676 68.4671 19.9252 68.5743C19.8829 68.6839 19.8554 68.821 19.8405 68.9905C19.8255 69.155 19.7707 69.3469 19.6735 69.5638C19.6361 69.646 19.6137 69.8006 19.6037 70.0249C19.6037 70.0598 19.5788 70.0922 19.5439 70.1022H19.5389C19.504 70.1171 19.4816 70.152 19.4816 70.1919C19.4816 70.4212 19.4467 70.6331 19.3694 70.8325C19.3619 70.8499 19.3495 70.8649 19.332 70.8773C19.2896 70.9048 19.2747 70.9496 19.2846 71.0094C19.2871 71.0244 19.2772 71.0394 19.2622 71.0418L19.1127 71.0743C19.1002 71.0767 19.0852 71.0693 19.0828 71.0568C19.008 70.7826 18.9756 70.5234 18.9806 70.2742C18.9806 70.172 18.9581 70.1121 18.9058 70.0997C18.8809 70.0922 18.8659 70.0723 18.8634 70.0473C18.8509 69.7931 18.7886 69.5364 18.6765 69.2697C18.6615 69.2348 18.6491 69.1974 18.6416 69.16C18.5793 68.8335 18.4621 68.4297 18.2976 67.9511C18.2054 67.6844 18.1456 67.4701 18.1206 67.308C18.0957 67.156 18.0658 66.9342 18.0259 66.6475C18.0209 66.6126 18.011 66.5777 17.9935 66.5478C17.8988 66.3684 17.8365 66.1814 17.8066 65.982C17.8016 65.9546 17.7941 65.9272 17.7817 65.9048C17.7268 65.8026 17.6969 65.7303 17.6894 65.6929C17.6371 65.329 17.6147 65.1396 17.6171 65.1271C17.6171 65.1196 17.6172 65.1096 17.6122 65.1022L17.4601 64.813C17.4477 64.7906 17.4452 64.7657 17.4477 64.7408C17.4576 64.6859 17.4028 64.4566 17.2881 64.0478C17.0414 63.1754 16.7822 62.2283 16.5105 61.2014C16.4531 60.9795 16.4432 60.7477 16.4108 60.6007C16.4033 60.5708 16.3858 60.5433 16.3609 60.5234C16.3185 60.491 16.2961 60.4611 16.2911 60.4337C16.2488 60.147 16.174 59.8554 16.0668 59.5588C16.0369 59.479 16.012 59.2896 15.992 58.9905C15.992 58.9606 15.9721 58.9332 15.9472 58.9182L15.8948 58.8883C15.8749 58.8783 15.8624 58.8584 15.8574 58.8385C15.8175 58.6715 15.8051 58.4421 15.7353 58.2552C15.6132 57.9337 15.6082 57.5648 15.4786 57.2333C15.4487 57.156 15.4038 57.004 15.3514 56.7821C15.344 56.7522 15.3315 56.7223 15.3166 56.6949C15.177 56.4456 15.1496 56.1465 15.0847 55.9247C14.9751 55.5583 14.8654 55.0922 14.7532 54.5314C14.7532 54.5139 14.7433 54.499 14.7358 54.484C14.6361 54.3195 14.7358 54.1301 14.5688 53.9755C14.5538 53.9631 14.5439 53.9456 14.5414 53.9282L14.4591 53.5319C14.4591 53.5169 14.4442 53.507 14.4292 53.507L9.04038 53.4945C8.99801 53.4945 8.96311 53.5294 8.96311 53.5718V53.5792C8.96311 53.5992 8.95563 53.6141 8.93569 53.6241C8.89581 53.644 8.87089 53.6889 8.87837 53.7338C8.89581 53.8609 8.88584 53.983 8.85095 54.1052C8.84347 54.1351 8.83849 54.1625 8.83599 54.1924C8.80359 54.995 8.78116 55.4337 8.76869 55.5084C8.75125 55.6181 8.72383 55.6804 8.68146 55.6929C8.66152 55.7004 8.64905 55.7178 8.64905 55.7378L8.58923 57.2482C8.58923 57.2632 8.58923 57.2781 8.57926 57.2906L8.53938 57.3878C8.53938 57.3878 8.5344 57.4102 8.5344 57.4227C8.54686 57.7044 8.52941 57.9411 8.47707 58.1306C8.4671 58.1655 8.46211 58.2004 8.45962 58.2353C8.43719 58.6116 8.40728 59.0653 8.3674 59.5987C8.35244 59.7906 8.32004 59.9451 8.2677 60.0623C8.25523 60.0897 8.25025 60.1171 8.24776 60.147C8.2328 60.9471 8.21286 61.5528 8.18544 61.9591C8.17797 62.0688 8.12064 62.1884 8.16052 62.2682C8.17547 62.2981 8.17797 62.3305 8.168 62.3604C8.05583 62.7268 8.01097 63.1206 8.0334 63.5443C8.0334 63.5942 8.01845 63.654 7.98355 63.7313C7.96859 63.7612 7.96361 63.7936 7.9661 63.826C7.97856 63.998 7.97109 64.1675 7.94118 64.337C7.89631 64.6037 7.87388 64.7756 7.87388 64.8504C7.87388 65.1545 7.7991 65.3265 7.8016 65.6331C7.8016 65.648 7.77667 66.0543 7.72682 66.8494C7.72682 66.8719 7.71436 66.8918 7.69691 66.9043C7.68943 66.9117 7.67946 66.9167 7.67198 66.9167C7.66451 66.9192 7.65703 66.9267 7.65703 66.9367L7.32552 71.5678C7.32552 71.5977 7.31555 71.6251 7.3006 71.6525C7.25324 71.7373 7.22832 71.832 7.22832 71.9392C7.22832 72.1759 7.20838 72.6047 7.17597 73.2278C7.17597 73.2577 7.16102 73.2876 7.13858 73.3076C7.13858 73.3076 7.12861 73.3125 7.11864 73.32C7.09621 73.335 7.08126 73.3624 7.07876 73.3898L6.95414 75.6156C6.95414 75.6406 6.94666 75.663 6.9342 75.6829C6.91426 75.7153 6.90429 75.7452 6.9018 75.7702C6.87687 76.0045 6.80708 76.7647 6.69741 78.0508C6.67996 78.2552 6.78465 78.3549 7.01147 78.3474C8.23779 78.3175 9.46162 78.315 10.683 78.3449C10.7253 78.3449 10.7627 78.315 10.7652 78.2751V78.2627C10.7602 78.2403 10.7727 78.2203 10.8001 78.2029C10.8275 78.1854 10.8425 78.158 10.845 78.1256C10.8524 78.0384 10.8574 77.9087 10.8574 77.7318C10.8574 77.7168 10.8674 77.6969 10.8873 77.672C10.9048 77.647 10.9172 77.6196 10.9172 77.5897C10.9497 76.7871 10.992 75.9995 11.0469 75.2218C11.0518 75.157 11.0469 75.0124 11.0269 74.7881C11.0269 74.7707 11.0169 74.7557 11.007 74.7432C10.9721 74.7059 10.9721 74.666 11.002 74.6236C11.0867 74.5015 11.0095 74.332 11.1117 74.1924C11.1316 74.1675 11.1416 74.1351 11.1441 74.1027C11.2014 73.3973 11.2313 72.6919 11.2338 71.979C11.2338 71.8569 11.2562 71.7497 11.2961 71.6575C11.3086 71.6301 11.3136 71.5977 11.3086 71.5678C11.2961 71.4681 11.3086 71.311 11.346 71.0992C11.4432 70.5334 11.3983 69.9227 11.4282 69.3195C11.4531 68.836 11.4806 68.4122 11.5105 68.0458C11.5105 68.0334 11.5155 68.0209 11.5254 68.0109C11.5404 67.9935 11.5504 67.9785 11.5504 67.9611C11.5952 66.8544 11.6376 65.9845 11.6725 65.3539C11.6725 65.3365 11.6849 65.324 11.6999 65.319C11.7398 65.3066 11.7597 65.2816 11.7622 65.2442C11.7722 65.0174 11.7772 64.7333 11.7747 64.3918C11.7747 64.1401 11.7871 63.8584 11.8096 63.5418C11.8395 63.1705 11.8544 62.7492 11.8569 62.2781C11.8569 62.2158 11.8769 62.1635 11.9118 62.1236C11.9292 62.1037 11.9392 62.0812 11.9417 62.0563C11.994 61.5777 12.009 61.1366 11.9816 60.7303C11.9616 60.4137 11.9865 60.0698 12.0364 59.818C12.0464 59.7607 12.1012 59.7258 12.1585 59.7408C12.2034 59.7532 12.2358 59.7906 12.2433 59.8355C12.2507 59.8803 12.2757 59.9252 12.318 59.9651C12.338 59.985 12.3529 60.0099 12.3579 60.0374L12.6271 61.3135C12.6271 61.3135 12.6271 61.3135 12.6271 61.3185C12.7567 61.5229 12.8116 61.7472 12.7866 61.994C12.7866 62.0264 12.8041 62.0588 12.834 62.0713C12.8689 62.0837 12.8913 62.0962 12.9013 62.1062C12.9212 62.1261 12.9362 62.151 12.9387 62.1809L13.001 62.6072C13.001 62.6072 13.001 62.6196 13.006 62.6271C13.1505 63.006 13.2353 63.3424 13.2627 63.6366C13.2627 63.6391 13.2752 63.664 13.3026 63.7088C13.32 63.7388 13.33 63.7637 13.335 63.7811C13.3873 64.0503 13.4721 64.3195 13.5942 64.5862C13.5992 64.5962 13.6017 64.6037 13.6042 64.6136L15.0374 70.0897C15.0449 70.1171 15.0598 70.142 15.0798 70.1595L15.0922 70.172C15.0922 70.172 15.1047 70.1869 15.1072 70.1969L17.2707 78.1356C17.2782 78.163 17.2981 78.1829 17.3255 78.1929C17.343 78.2004 17.3654 78.2054 17.3928 78.2029C17.4202 78.2029 17.4402 78.2228 17.4402 78.2502V78.2552L17.4477 78.2403L17.4502 78.2378Z" fill="#D9D9D9"/>
<path d="M80 85.0299C80 85.0623 79.9751 85.0872 79.9427 85.0872H41.7099C41.6775 85.0872 41.6526 85.0623 41.6526 85.0299V46.7298C41.6526 46.6974 41.6775 46.6725 41.7099 46.6725H79.9427C79.9751 46.6725 80 46.6974 80 46.7298V85.0299ZM56.2064 60.4487C56.2064 60.4487 56.1915 60.4536 56.189 60.4536C56.1566 60.4686 56.1366 60.4985 56.1366 60.5359C56.1317 60.7852 56.0594 61.0319 55.9198 61.2762C55.9048 61.3011 55.8949 61.3285 55.8924 61.3559C55.86 61.5578 55.7977 61.7921 55.7054 62.0538C55.6257 62.2832 55.2792 63.33 54.6685 65.1919C54.6586 65.2243 54.6386 65.2518 54.6137 65.2717C54.509 65.3589 54.4642 65.4885 54.4791 65.6655C54.4891 65.7727 54.4467 65.9123 54.3545 66.0842C54.3545 66.0892 54.3495 66.0967 54.347 66.1017L53.0833 70.0349C53.0833 70.0349 53.0733 70.0573 53.0683 70.0648C52.9213 70.2941 52.8914 70.6506 52.8041 70.9098C52.363 72.2084 52.0913 73.0209 51.9916 73.3524C51.9592 73.4596 51.8694 73.7089 51.7249 74.1002C51.5953 74.4516 51.503 74.7881 51.4482 75.1097C51.4482 75.1296 51.4208 75.1745 51.3759 75.2393C51.351 75.2767 51.3335 75.3166 51.3236 75.3614C51.0793 76.3734 50.6606 77.2981 50.5384 77.7318C50.4961 77.8789 50.4836 78.0184 50.501 78.1506C50.511 78.2403 50.5883 78.3076 50.678 78.3076H54.519C54.5439 78.3076 54.5663 78.2876 54.5688 78.2627V78.2378C54.5688 78.2179 54.5838 78.2004 54.6012 78.1929L54.7657 78.1456C54.7932 78.1381 54.8106 78.1132 54.8131 78.0858C54.8206 77.9561 54.833 77.8614 54.8505 77.8041C54.9402 77.4975 55.0399 77.1984 55.1496 76.9043C55.1596 76.8769 55.167 76.847 55.167 76.8195C55.177 76.6351 55.2119 76.5254 55.2717 76.4955C55.2842 76.4905 55.2917 76.4781 55.2917 76.4656L55.3465 76.0045C55.3465 76.0045 55.3515 75.9821 55.354 75.9696L55.6356 75.2842C55.6356 75.2842 55.6356 75.2742 55.6356 75.2692L55.668 74.9701C55.668 74.9402 55.6905 74.9128 55.7179 74.8978L55.7503 74.8829C55.7827 74.8679 55.8051 74.833 55.8026 74.7956C55.7877 74.5613 55.845 74.347 55.9771 74.155C55.9995 74.1226 56.0145 74.0877 56.0245 74.0504C56.0843 73.8235 56.1117 73.6092 56.1117 73.4048C56.1117 73.335 56.1416 73.2976 56.1989 73.2926C56.2264 73.2926 56.2488 73.2677 56.2463 73.2378C56.2463 73.1879 56.3335 72.8141 56.513 72.1187C56.5529 71.9591 56.6601 71.9467 56.7249 71.8096C56.7348 71.7871 56.7598 71.7722 56.7822 71.7747L57.2483 71.822C57.2483 71.822 57.2707 71.827 57.2782 71.8345C57.3704 71.9143 57.4676 71.9217 57.5698 71.8544C57.6072 71.8295 57.6496 71.8171 57.6994 71.8171H63.9956C64.018 71.8171 64.0404 71.8245 64.0579 71.8395C64.1651 71.9242 64.2523 71.9217 64.3196 71.832C64.337 71.8071 64.3669 71.7946 64.3944 71.7971C64.5763 71.8096 64.7209 71.7996 64.8256 71.7697C64.8555 71.7622 64.8854 71.7797 64.8929 71.8071V71.8146C64.8979 71.852 64.9278 71.8844 64.9801 71.9093C65.01 71.9242 65.03 71.9492 65.0399 71.9791L65.7777 74.4716C65.7852 74.4965 65.7977 74.5214 65.8126 74.5439C65.86 74.6162 65.8849 74.6685 65.8874 74.7009C65.9048 74.9402 65.9347 75.1196 65.9796 75.2418C66.0992 75.5733 66.1641 75.7727 66.1715 75.8425C66.174 75.8749 66.184 75.9073 66.1989 75.9347C66.2737 76.0768 66.3236 76.2463 66.3485 76.4432C66.351 76.4656 66.3709 76.4955 66.4058 76.5329C66.4183 76.5454 66.4258 76.5603 66.4332 76.5778L66.8844 78.1032C66.8919 78.1306 66.9118 78.1506 66.9392 78.158C67.0265 78.183 67.1162 78.2228 67.2059 78.2852C67.2333 78.3026 67.2633 78.3126 67.2957 78.3126C69.0728 78.3101 70.3615 78.3101 71.1616 78.3126C71.2114 78.3126 71.2388 78.2876 71.2463 78.2353C71.2513 78.1904 71.2314 78.1481 71.184 78.1082C71.1616 78.0907 71.1491 78.0633 71.1466 78.0359C71.1341 77.8814 71.0843 77.6994 70.9971 77.495C70.9846 77.4676 70.9771 77.4377 70.9696 77.4078C70.9397 77.2607 70.8874 77.1286 70.8076 77.014C70.7777 76.9716 70.7503 76.827 70.7254 76.5852C70.7229 76.5528 70.7029 76.5279 70.673 76.5155L70.6456 76.5055C70.6107 76.4905 70.5883 76.4581 70.5908 76.4207C70.5933 76.2687 70.521 75.992 70.3689 75.5907C70.2792 75.3515 70.0599 74.6859 69.7109 73.5967C69.6336 73.35 69.5663 73.153 69.5115 73.001C69.4268 72.7692 69.3694 72.5673 69.3345 72.3953C69.3271 72.3629 69.3171 72.333 69.2996 72.3031C69.2249 72.1735 69.18 72.0015 69.1651 71.7946C69.1651 71.7871 69.1651 71.7822 69.1601 71.7747L68.8111 70.7802C68.8011 70.7528 68.7887 70.7278 68.7712 70.7054L68.7214 70.6406C68.7089 70.6231 68.6989 70.6057 68.6965 70.5858C68.6616 70.4312 68.6666 70.2368 68.5793 70.1097C68.5045 70 68.5195 69.8106 68.4671 69.6735C68.4397 69.6062 68.2752 69.0952 68.2727 69.0952C68.2403 69.0927 68.2154 69.0628 68.2204 69.0304V69.0254C68.2304 68.9656 68.2179 68.9182 68.1805 68.8809C68.1556 68.8559 68.1406 68.8186 68.1431 68.7837C68.1531 68.654 68.1232 68.5494 68.0509 68.4721C68.0135 68.4297 67.9886 68.3799 67.9761 68.325C67.9462 68.183 67.9263 68.0359 67.8565 67.849C67.7219 67.4925 67.6297 67.2208 67.5823 67.0339C67.5723 66.994 67.5399 66.9292 67.4876 66.842C67.4502 66.7797 67.4253 66.7099 67.4128 66.6351C67.3879 66.4806 67.3106 66.2213 67.1885 65.8574C67.0738 65.5209 66.7648 64.5763 66.2638 63.0259C66.1042 62.5324 65.9946 62.0788 65.8076 61.6251C65.7503 61.4831 65.7353 61.1341 65.5783 60.992C65.5534 60.9696 65.5359 60.9397 65.526 60.9048C65.4038 60.4237 65.3241 60.1196 65.2867 59.9925C65.2418 59.8405 65.1994 59.7184 65.1621 59.6236C65.0599 59.3619 64.9801 59.1226 64.9278 58.9108C64.9278 58.9033 64.9228 58.8983 64.9178 58.8933C64.9103 58.8883 64.9053 58.8834 64.9053 58.8809C64.8904 58.8659 64.8779 58.846 64.8754 58.8235C64.8256 58.5444 64.7259 58.2378 64.5788 57.9063C64.5663 57.8814 64.5589 57.8515 64.5539 57.824C64.514 57.5897 64.4841 57.3131 64.4243 57.2881C64.4018 57.2782 64.3844 57.2582 64.3794 57.2333C64.357 57.1187 64.2448 56.7822 64.0454 56.2238C63.9981 56.0942 63.9557 56.0045 63.9108 55.9546C63.8859 55.9272 63.8734 55.8898 63.8709 55.8524C63.8659 55.7253 63.8311 55.5683 63.7687 55.3863C63.5693 54.8181 63.4572 54.5065 63.4323 54.4517C63.4073 54.3993 63.3899 54.322 63.3799 54.2223C63.3674 54.1127 63.335 54.0429 63.2827 54.0155C63.2553 54.0005 63.2453 53.9681 63.2578 53.9407C63.2827 53.8908 63.2877 53.8036 63.2752 53.6765C63.2752 53.6441 63.2453 53.6191 63.2129 53.6191C63.168 53.6191 63.1481 53.5917 63.1531 53.5394C63.1531 53.5145 63.1381 53.492 63.1132 53.4895H58.6491C58.6192 53.4895 58.5943 53.5145 58.5943 53.5444C58.5943 53.5917 58.5693 53.6117 58.522 53.6067C58.4846 53.6017 58.4472 53.6216 58.4298 53.6565C58.3674 53.7787 58.345 53.8734 58.36 53.9457C58.365 53.9706 58.355 53.9955 58.335 54.0105C58.2702 54.0628 58.2353 54.1476 58.2328 54.2672C58.2328 54.2971 58.2279 54.327 58.2179 54.3544C57.7842 55.6256 57.4427 56.6675 57.196 57.4826C57.1112 57.7642 57.0414 57.9536 56.9941 58.0509C56.9891 58.0608 56.9841 58.0708 56.9816 58.0808L56.7972 58.7662C56.7972 58.7662 56.7972 58.7737 56.7922 58.7762C56.7024 58.9158 56.6426 59.0877 56.6127 59.2896C56.6052 59.342 56.5878 59.3943 56.5678 59.4442C56.4133 59.7856 56.3086 60.1047 56.2563 60.4013C56.2513 60.4287 56.2314 60.4512 56.2039 60.4561V60.4487H56.2064Z" fill="#D9D9D9"/>
<path d="M58.4022 65.9322C58.4945 65.663 58.5418 65.4835 58.5418 65.3913C58.5418 65.3614 58.5543 65.3315 58.5767 65.3115C58.634 65.2567 58.664 65.1545 58.6615 65.0075C58.6615 64.9726 58.6714 64.9402 58.6939 64.9152C58.7288 64.8729 58.7412 64.823 58.7337 64.7707C58.7288 64.7432 58.7437 64.7158 58.7686 64.7009C58.7985 64.6834 58.8135 64.6635 58.8185 64.6411C58.8584 64.4217 58.9232 64.2223 59.0204 64.0404C59.0254 64.0329 59.0279 64.0229 59.0304 64.0129L59.135 63.3773C59.14 63.3524 59.1525 63.3325 59.1749 63.32C59.2223 63.2926 59.2522 63.2552 59.2597 63.2128C59.2971 63.0433 59.3419 62.8315 59.3943 62.5772C59.4017 62.5473 59.4192 62.5199 59.4466 62.5025C59.4466 62.5025 59.4591 62.495 59.4765 62.4875C59.489 62.48 59.4965 62.4701 59.4965 62.4576L59.5214 62.1236C59.5214 62.1236 59.5289 62.1037 59.5363 62.0962C59.5912 62.0613 59.631 61.9541 59.656 61.7771C59.6709 61.665 59.7532 61.4157 59.9027 61.0269C59.9077 61.0119 59.9127 60.9995 59.9152 60.9845C59.9975 60.6505 60.0473 60.4686 60.0623 60.4436C60.0797 60.4137 60.0922 60.3813 60.0972 60.3464C60.1196 60.1146 60.1719 59.9028 60.2567 59.7158C60.3265 59.5588 60.3713 59.4043 60.3913 59.2522C60.4012 59.1625 60.486 59.0777 60.4636 58.988C60.4536 58.9481 60.4685 58.9058 60.5034 58.8833C60.5034 58.8833 60.5159 58.8783 60.5358 58.8684C60.5533 58.8609 60.5657 58.8459 60.5707 58.8285L60.7477 58.0558C60.7527 58.0309 60.7801 58.0134 60.805 58.0209C60.82 58.0209 60.8349 58.0359 60.8399 58.0533C60.9346 58.335 61.0094 58.5294 61.0692 58.644C61.0917 58.6864 61.1241 58.8759 61.1664 59.2198C61.1664 59.2497 61.1839 59.2771 61.2063 59.2971C61.2138 59.3046 61.2188 59.3071 61.2188 59.3095C61.2337 59.322 61.2462 59.3395 61.2512 59.3569L61.3883 59.8305C61.3933 59.8454 61.3982 59.8579 61.4057 59.8704C61.4855 60.0174 61.5403 60.1844 61.5702 60.3763C61.5752 60.4112 61.5902 60.4436 61.6151 60.4686C61.6201 60.4736 61.6226 60.4785 61.6251 60.481C61.6425 60.5035 61.655 60.5284 61.6649 60.5558L62.0039 61.7074C62.0089 61.7223 62.0114 61.7348 62.0114 61.7497C62.0114 61.9043 62.0338 62.0264 62.0837 62.1111C62.0837 62.1111 62.0887 62.1186 62.0887 62.1236L62.3653 63.0683C62.3703 63.0857 62.3803 63.0982 62.3953 63.1082C62.4177 63.1206 62.4326 63.1406 62.4401 63.163C62.4925 63.3275 62.5199 63.4895 62.5249 63.649C62.5249 63.6789 62.5473 63.7064 62.5797 63.7138C62.5947 63.7163 62.6021 63.7188 62.6046 63.7213C62.632 63.7338 62.6495 63.7612 62.6545 63.7911C62.6719 63.9531 62.6869 64.0528 62.6969 64.0852C62.8015 64.3843 62.8963 64.6934 62.9785 65.0149C62.996 65.0822 63.0009 65.1346 62.996 65.1745C62.991 65.2069 63.0009 65.2368 63.0234 65.2617C63.1131 65.3589 63.0907 65.5583 63.1679 65.7079C63.1978 65.7652 63.2228 65.8375 63.2477 65.9247C63.3075 66.1465 63.3973 66.3833 63.5144 66.6401C63.5269 66.665 63.5318 66.6924 63.5343 66.7198C63.5393 66.812 63.5593 66.9018 63.5991 66.9965C63.6415 67.0937 63.7163 67.3778 63.8285 67.8439C63.8334 67.8714 63.8459 67.8963 63.8609 67.9212C63.9132 68.006 63.9356 68.0857 63.9282 68.163C63.9232 68.2353 63.8509 68.2926 63.7686 68.2901C62.1161 68.2727 60.6131 68.2702 59.2646 68.2826C58.4122 68.2901 57.9262 68.2876 57.809 68.2727C57.7716 68.2677 57.7467 68.2353 57.7492 68.2004L57.7617 68.006C57.7617 67.981 57.7741 67.9561 57.7916 67.9387C57.9611 67.7717 57.9062 67.5124 57.986 67.3454C58.0533 67.2034 58.0981 67.0837 58.1206 66.984C58.2003 66.6301 58.3 66.2836 58.4172 65.9397L58.4022 65.9322Z" fill="#D9D9D9"/>
</svg>
