<svg width="81" height="81" viewBox="0 0 81 81" fill="none" xmlns="http://www.w3.org/2000/svg">
<path d="M52.7439 80.9151C20.9962 80.9151 4.02237 80.9151 1.8248 80.9102C1.33754 80.9102 0.89413 80.7275 0.543299 80.3791C0.190033 80.0258 0.00487264 79.5824 0.00487264 79.0927C0.00487264 76.8951 0.00487264 59.9237 0 28.176C0 27.4427 0 25.7227 2.00509 25.7227C4.14905 25.7251 7.74019 25.7275 12.7858 25.7275C16.3672 25.7275 20.6844 25.7275 25.73 25.7275C25.73 13.4119 25.73 5.64983 25.7251 2.00996C25.7251 1.37896 25.8908 0.903875 26.2343 0.560354C26.7508 0.0414174 27.5085 0 28.1785 0H79.0976C79.5873 0 80.0307 0.187597 80.3815 0.538427C80.7324 0.889257 80.9175 1.33267 80.9175 1.82237C80.9175 4.01993 80.92 20.9938 80.9224 52.7415C80.9224 53.4748 80.9224 55.1948 78.9173 55.1948C76.7709 55.1924 73.1798 55.19 68.1317 55.19C64.5503 55.19 60.238 55.19 55.1924 55.19C55.1924 67.1913 55.1924 75.1702 55.1973 78.91C55.1973 79.541 55.0316 80.0161 54.6881 80.3596C54.1716 80.8761 53.4139 80.92 52.7439 80.92V80.9151ZM3.74219 77.1802C19.6538 77.1802 35.5581 77.1802 51.4575 77.1851V55.19H41.32C35.1585 55.19 30.571 55.19 27.5597 55.1875C27.0675 55.1875 26.6217 55.0024 26.2708 54.654C25.9225 54.3056 25.7373 53.8597 25.7373 53.3652C25.7373 48.8848 25.7373 40.918 25.7373 29.4649H3.74462C3.74462 45.3643 3.74462 61.2686 3.74462 77.1802H3.74219ZM51.4551 51.4527V29.4673H29.4697V51.4527H51.4551ZM77.1851 51.4527C77.1826 35.5532 77.1826 19.6465 77.1851 3.73488H61.6487C50.9215 3.73488 40.192 3.73488 29.4697 3.73488V25.73H39.6925C45.8126 25.73 50.3734 25.73 53.3725 25.73C53.8646 25.73 54.3105 25.9151 54.6589 26.2635C55.0072 26.6119 55.1924 27.0578 55.1924 27.5499C55.1948 32.0303 55.1948 39.9995 55.1924 51.4502H77.1875L77.1851 51.4527Z" fill="#D9D9D9"/>
</svg>
