<svg width="84" height="84" viewBox="0 0 84 84" fill="none" xmlns="http://www.w3.org/2000/svg">
<path d="M82.439 58.1284C78.0018 55.7037 73.6303 53.3228 69.3248 50.9834C69.3102 50.9737 69.298 50.9615 69.2882 50.9468C69.2882 50.9468 69.2858 50.9444 69.2833 50.942C69.2833 50.9395 69.2833 50.9346 69.2809 50.9298C69.2785 50.9224 69.276 50.9151 69.2736 50.9078C69.2736 50.9005 69.2736 50.8956 69.2736 50.8883C69.2736 50.881 69.2736 50.8737 69.2736 50.8688C69.2736 50.8615 69.2785 50.8541 69.2809 50.8468C69.2809 50.8419 69.2858 50.8371 69.2882 50.8322C69.298 50.8176 69.3102 50.8029 69.3248 50.7956C75.0647 47.6683 79.2068 45.407 81.7633 44.0092H81.7657C82.0609 43.8482 82.3414 43.6945 82.5927 43.5555C83.2928 43.17 83.6441 42.5943 83.6441 41.8284C83.6441 41.0624 83.2928 40.4843 82.5927 40.0988C80.1533 38.762 75.7307 36.3495 69.3224 32.8587C69.3077 32.8489 69.2955 32.8367 69.2858 32.8221C69.2858 32.8221 69.2833 32.8197 69.2809 32.8172C69.2809 32.8148 69.2809 32.8099 69.2785 32.805C69.276 32.7977 69.2736 32.7904 69.2711 32.7831C69.2711 32.7758 69.2711 32.7709 69.2711 32.7636C69.2711 32.7562 69.2711 32.7489 69.2711 32.744C69.2711 32.7367 69.276 32.7294 69.2785 32.7221C69.2785 32.7172 69.2833 32.7123 69.2858 32.7075C69.2955 32.6928 69.3077 32.6782 69.3224 32.6709C73.6279 30.3315 77.9993 27.9506 82.4366 25.5259C83.9514 24.6965 84.1271 22.8059 82.5537 21.9473C73.0815 16.7855 59.838 9.56244 42.8207 0.275652C42.4817 0.0926971 42.1524 0 41.8279 0C41.5035 0 41.1742 0.0926971 40.8351 0.275652C23.8178 9.56 10.5719 16.7831 1.10215 21.9448C-0.471257 22.8035 -0.295621 24.694 1.21925 25.5234C5.65651 27.9482 10.0279 30.329 14.3335 32.6684C14.3481 32.6782 14.3603 32.6904 14.37 32.705C14.37 32.705 14.3725 32.7075 14.3749 32.7099C14.3749 32.7123 14.3749 32.7172 14.3774 32.7221C14.3798 32.7294 14.3822 32.7367 14.3847 32.744C14.3847 32.7514 14.3847 32.7562 14.3847 32.7636C14.3847 32.7709 14.3847 32.7782 14.3847 32.7831C14.3847 32.7904 14.3798 32.7977 14.3774 32.805C14.3774 32.8099 14.3725 32.8148 14.37 32.8197C14.3603 32.8343 14.3481 32.8489 14.3335 32.8563C7.92759 36.347 3.50496 38.7596 1.06556 40.0964C0.363017 40.4818 0.0117436 41.0575 0.0117436 41.8259C0.0117436 42.5943 0.363017 43.17 1.06556 43.5555C2.50481 44.3434 4.64172 45.5119 7.46411 47.0511L7.47142 47.056C9.42782 48.1245 11.7135 49.3685 14.3359 50.798C14.3505 50.8078 14.3627 50.82 14.3725 50.8346C14.3725 50.8346 14.3749 50.8371 14.3774 50.8395C14.3774 50.8419 14.3774 50.8468 14.3798 50.8517C14.3822 50.859 14.3847 50.8663 14.3871 50.8737C14.3871 50.881 14.3871 50.8859 14.3871 50.8932C14.3871 50.9005 14.3871 50.9078 14.3871 50.9127C14.3871 50.92 14.3822 50.9273 14.3798 50.9346C14.3798 50.9395 14.3749 50.9444 14.3725 50.9493C14.3627 50.9639 14.3505 50.9785 14.3359 50.9859C10.0304 53.3253 5.65895 55.7061 1.22169 58.1309C-0.293181 58.9603 -0.468818 60.8508 1.10459 61.7095C10.5768 66.8712 23.8203 74.0943 40.84 83.3786C41.1766 83.564 41.5059 83.6567 41.8303 83.6567C42.1548 83.6567 42.4841 83.564 42.8232 83.3786C59.8429 74.0943 73.0864 66.8712 82.5585 61.7095C84.132 60.8508 83.9563 58.9603 82.4415 58.1309L82.439 58.1284ZM6.15415 41.8894C6.14195 41.882 6.12976 41.8723 6.12488 41.8601C6.12488 41.8601 6.12488 41.8552 6.12488 41.8528C6.12 41.843 6.12244 41.8357 6.12244 41.8259C6.12244 41.8162 6.12244 41.8089 6.12488 41.7991C6.12488 41.7991 6.12488 41.7942 6.12488 41.7918C6.13219 41.7796 6.14195 41.7674 6.15415 41.7625L18.4512 35.0517C18.5268 35.0102 18.6195 35.0102 18.6975 35.0517C26.6427 39.3963 34.0828 43.453 41.0205 47.2243C41.2278 47.3365 41.4986 47.3926 41.8328 47.3926C42.167 47.3926 42.4402 47.3365 42.6475 47.2243C49.5828 43.4506 57.0229 39.3938 64.968 35.0493C65.0461 35.0078 65.1388 35.0078 65.2144 35.0493L77.5114 41.7576C77.5236 41.7649 77.5358 41.7747 77.5407 41.7869C77.5407 41.7869 77.5407 41.7918 77.5407 41.7942C77.5456 41.804 77.5431 41.8113 77.5431 41.821C77.5431 41.8308 77.5431 41.8381 77.5407 41.8479C77.5407 41.8479 77.5407 41.8528 77.5407 41.8552C77.5334 41.8674 77.5236 41.8796 77.5114 41.8845C69.0614 46.4949 61.1797 50.7956 53.8615 54.7865L41.8425 61.3143C41.7962 61.3143 41.7669 61.3094 41.7498 61.3021C31.2775 55.5915 19.4123 49.1197 6.15415 41.8894ZM77.5261 59.9775C77.5261 59.9775 77.5261 59.9824 77.5261 59.9848C77.5188 59.997 77.509 60.0092 77.4968 60.0141C64.2435 67.242 52.3832 73.7113 41.9157 79.4219C41.8987 79.4293 41.8694 79.4341 41.823 79.4341C41.7864 79.4341 41.7621 79.4293 41.745 79.4219C31.2775 73.7113 19.4172 67.2396 6.16391 60.0116C6.15171 60.0043 6.13951 59.9946 6.13463 59.9824C6.13463 59.9824 6.13463 59.9775 6.13463 59.9751C6.12975 59.9653 6.13219 59.958 6.13219 59.9482C6.13219 59.9385 6.13219 59.9311 6.13463 59.9214C6.13463 59.9214 6.13463 59.9165 6.13463 59.9141C6.14195 59.9019 6.15171 59.8897 6.16391 59.8848L18.456 53.1789C18.5317 53.1374 18.6244 53.1374 18.7024 53.1789C26.6451 57.521 34.0828 61.5777 41.018 65.349C41.2254 65.4613 41.4962 65.5174 41.8303 65.5174C42.1645 65.5174 42.4353 65.4613 42.6427 65.349C49.5779 61.5777 57.0156 57.521 64.9583 53.1789C65.0364 53.1374 65.129 53.1374 65.2047 53.1789L77.4968 59.8872C77.509 59.8946 77.5212 59.9043 77.5261 59.9165C77.5261 59.9165 77.5261 59.9214 77.5261 59.9238C77.5309 59.9336 77.5285 59.9409 77.5285 59.9507C77.5285 59.9604 77.5285 59.9677 77.5261 59.9775Z" fill="#D9D9D9"/>
</svg>
