<svg width="306" height="476" viewBox="0 0 306 476" fill="none" xmlns="http://www.w3.org/2000/svg">
<path d="M305.115 0H25.3155C25.1155 0 25.0155 0.2 25.0155 0.3V60.3C25.0155 60.5 25.2155 60.6 25.3155 60.6H184.515C184.515 60.6 184.615 60.6 184.715 60.6C184.915 60.7 184.915 60.9 184.715 61.1L62.3155 227.3C62.3155 227.3 62.3155 227.4 62.3155 227.5C62.3155 227.7 62.4155 227.8 62.6155 227.8H133.615C133.715 227.8 133.815 227.8 133.915 227.7L305.415 0.5C305.415 0.5 305.415 0.4 305.415 0.3C305.415 0.1 305.315 0 305.115 0Z" fill="#4B4A4D"/>
<path d="M185.515 181.3C185.215 181.3 184.815 181.3 184.615 181.6L148.015 230.1C148.015 230.1 148.015 230.3 148.115 230.3C191.115 239.1 224.215 267.2 226.915 313.3C229.415 353.7 209.415 391 171.115 406.4C119.315 427.2 74.1155 392.6 40.2155 357.8C40.0155 357.6 39.6155 357.6 39.4155 357.8L0.11547 396.4C0.0154701 396.5 -0.0845299 396.7 0.11547 396.9C17.4155 425.9 43.3155 447.8 74.3155 461.6C105.615 475.5 138.415 479.2 172.715 472.9C225.715 463.1 270.115 430.2 290.215 379.9C302.015 350.5 305.215 315.2 297.015 284.7C282.815 231.6 237.215 195.8 185.515 181.5V181.3Z" fill="#4B4A4D"/>
</svg>
