<?xml version="1.0" encoding="UTF-8"?>
<svg id="Layer_2" data-name="Layer 2" xmlns="http://www.w3.org/2000/svg" viewBox="0 0 388.34 232.26">
  <g id="Layer_1-2" data-name="Layer 1">
    <g>
      <path d="M327.75,77.18c-3.59-24.02-13.16-45.6-28.73-64.74-2.93-3.61-6.61-7.58-11.04-11.91-.11-.1-.25-.16-.39-.16-.39,0-5.33-.03-14.83-.08C229.58.06,173.46-.03,104.39,0c-.11,0-.21.04-.28.11-10.05,9.56-18.4,20.32-25.06,32.29-11.01,19.79-16.69,42.28-16.59,64.93.09,22.73,5.56,44.02,16.41,63.87,4.6,8.41,10.19,16.36,16.78,23.84,2.07,2.35,4.52,4.95,7.35,7.8.11.11.25.17.41.17h184.88c.09,0,.18-.04.24-.1,13-12.69,22.97-27.11,29.91-43.27,9.78-22.8,12.96-48.07,9.31-72.47ZM205.52,8.22h78.5c.18,0,.35.07.47.2,16.92,17.1,28.12,37.4,33.6,60.89.11.46.17.84.17,1.14,0,0,0,0,0,0,0,.12-.1.22-.22.22h-86.35c-.16,0-.3-.1-.37-.24l-25.92-62.02s0-.03-.01-.05c0-.07.06-.13.13-.14ZM73.31,70.37c5.45-24.11,16.78-44.8,33.99-62.06.14-.14.34-.22.54-.22h74.48s.04,0,.05,0c.12.03.19.15.16.27-5.56,20.97-13.32,41.75-21.78,62.07-.06.14-.19.23-.34.23h-86.87s-.04,0-.05,0c-.13-.03-.21-.16-.18-.29ZM185.04,184.96h-54.33s-.04,0-.05,0c-.08-.03-.13-.12-.1-.2,5.84-16.28,11.99-32.67,18.47-49.17,2.59-6.59,5.21-13.06,7.87-19.41.01-.03.03-.05.06-.06.06-.02.12,0,.14.06l28.08,68.58s.01.04.01.06c0,.08-.07.15-.15.15ZM252.83,184.96h-44.64s-.03,0-.05,0c-.08-.03-.13-.11-.1-.19,4.2-13.1,8.68-26.11,13.44-39.05,2.6-7.05,5.34-14.04,8.24-20.95.02-.04.05-.08.09-.1.09-.04.2,0,.25.09,8.61,19.38,16.07,39.56,22.86,60.06,0,.01,0,.02,0,.03,0,.06-.05.11-.11.11ZM285.27,184.76s-.03.03-.05.04c-.1.05-.22.01-.27-.09-6.37-11.92-12.2-23.06-17.5-33.42-4.86-9.51-9.4-18.98-13.6-28.41-.02-.04-.03-.08-.03-.13,0-.16.14-.29.3-.29,8.35.04,14.1.04,17.24-.01,4.73-.07,9.35-3.26,12.63-6.83,3.66-3.98,6.67-8.57,9.04-13.77,0-.01,0-.03,0-.04,0-.05-.04-.09-.09-.09h-73s-.02,0-.03,0c-.04.02-.06.06-.04.1l2.01,4.52c.08.19.09.4.02.59-.87,2.5-2.02,5.47-3.47,8.92-5.68,13.56-11.95,26.76-18.82,39.59-.02.03-.04.05-.07.07-.08.03-.17,0-.2-.08l-23.41-53.61c-.03-.06-.09-.1-.16-.1h-78.22s-.08,0-.11.03c-.13.06-.19.22-.13.36,2.25,4.59,5.11,8.84,8.58,12.74,2.91,3.27,6.77,6.23,11.04,7.28,1.01.25,2.66.37,4.95.37,8.22-.01,13.87-.01,16.96,0,.02,0,.04,0,.06.01.07.03.09.11.06.17-1.54,3.31-3.44,7.2-5.7,11.66-6.55,12.93-15.24,29.52-26.07,49.77-.21.39-.36.64-.47.77,0,0,0,0-.01.01-.07.06-.17.06-.23,0-11.11-11.34-19.74-24.19-25.89-38.56-10.15-23.72-12.67-49.92-7.41-75.17,0-.04.04-.08.08-.1.07-.03.14,0,.17.07,2.35,5.14,5.35,9.82,9.01,14.02,2.31,2.66,5.8,5.41,9.47,6.43.95.27,2.61.4,4.96.39,7.75-.01,32.51-.02,74.27,0,.02,0,.04,0,.06-.01.08-.03.12-.13.08-.21l-2.04-4.6c-.05-.12-.05-.25,0-.37.53-1.42,1.15-2.97,1.85-4.63,6.4-15.19,13.13-29.86,20.18-44.02.02-.03.04-.06.07-.07.08-.03.16,0,.19.07l23.84,53.64c.05.11.16.19.29.19,52.53,0,79.61,0,81.24,0,5.78-.03,10.88-4.45,14.57-9.16,2.65-3.38,4.92-7.22,6.81-11.52.01-.03.04-.06.08-.07.06-.01.12.03.14.09,3.02,14.93,3.44,29.7,1.26,44.3-3.92,26.22-15.96,50.2-34.49,69.21Z"/>
      <path d="M40.12,219.39c-.09-.04-1.82-.78-5.2-2.21-1.7-.72-3.7-1.81-3.87-3.81-.15-1.74,1.17-2.99,2.8-3.45,3.47-.99,7.89.25,8.55,4.27.03.2.18.35.38.4.27.06.53-.11.59-.38l.84-3.92c.03-.13-.03-.26-.14-.33-3.18-1.98-7.59-2.54-11.2-2.06-3.55.47-6.95,2.34-7.04,6.37-.07,3.41,2.84,5.2,5.63,6.47.02.01,1.54.68,4.55,2,1.39.61,2.4,1.29,3.02,2.03,2.11,2.54.16,5.22-2.76,5.49-3.88.36-7.12-.69-9.71-3.17-.02-.01-.03-.02-.05-.03-.07-.02-.13.03-.15.09-.19.86-.52,1.64-.99,2.34,0,0,0,.01,0,.02-.06.11-.02.24.08.29,3.95,2.18,8.22,2.9,12.8,2.16,3.16-.51,6.31-2.47,6.75-5.83.47-3.57-2.01-5.44-4.87-6.73Z"/>
      <path d="M80.53,207.74c-7.29-.07-12.45,4.77-12.52,12.13-.07,7.36,4.98,12.31,12.28,12.38,7.29.07,12.45-4.77,12.52-12.13.07-7.36-4.98-12.31-12.28-12.38ZM80.42,230.36c-5.42,0-7.17-5.99-7.18-10.33,0-4.33,1.74-10.33,7.16-10.34,5.42,0,7.17,5.99,7.18,10.32,0,4.34-1.74,10.34-7.16,10.34Z"/>
      <path d="M190.96,209.92c-2.76-1.95-6.7-2.43-10.05-2.03-5.35.63-9.6,3.91-10.56,9.29-.77,4.29.11,7.93,2.61,10.91,4.42,5.26,12.7,5.16,18.03,1.73.11-.07.15-.21.1-.33l-.83-2.02s-.01-.02-.03-.03c-.03-.02-.08-.02-.1.02-1.63,2.2-4.32,3.12-7.05,2.83-4.54-.48-7.1-4.06-7.65-8.41-.46-3.62.29-7.31,2.86-9.99.92-.96,1.93-1.6,3.05-1.91,3.62-1.03,7.28.24,8.04,4.28.04.2.19.36.39.41.28.06.55-.12.61-.39l.8-3.78c.05-.22-.04-.45-.22-.58Z"/>
      <path d="M230.19,207.75c-7.29-.07-12.45,4.77-12.52,12.12-.07,7.36,4.97,12.3,12.27,12.38,7.29.07,12.44-4.77,12.52-12.12.07-7.36-4.97-12.3-12.27-12.38ZM230.07,230.35c-5.42,0-7.17-6-7.18-10.33,0-4.34,1.74-10.34,7.16-10.34,5.42,0,7.17,6,7.18,10.33,0,4.34-1.74,10.34-7.16,10.34Z"/>
      <path d="M307.39,207.75c-7.29-.07-12.44,4.77-12.52,12.13-.07,7.36,4.98,12.3,12.27,12.38,7.29.07,12.45-4.77,12.52-12.13.07-7.36-4.97-12.3-12.27-12.38ZM307.27,230.36c-5.42,0-7.18-6-7.18-10.33,0-4.34,1.74-10.34,7.16-10.34,5.42,0,7.18,6,7.18,10.33,0,4.34-1.74,10.34-7.16,10.34Z"/>
      <path d="M383.4,219.39c-.09-.04-1.82-.77-5.2-2.2-1.7-.72-3.7-1.8-3.88-3.8-.15-1.74,1.16-2.99,2.79-3.46,3.46-1,7.89.24,8.55,4.26.04.19.18.34.37.39.27.07.54-.1.6-.36l.83-3.92c.03-.13-.03-.26-.14-.33-3.18-1.98-7.59-2.53-11.2-2.04-3.55.47-6.94,2.34-7.03,6.37-.07,3.41,2.84,5.2,5.63,6.46.02.01,1.54.67,4.55,1.99,1.39.61,2.4,1.29,3.02,2.03,2.12,2.53.17,5.22-2.75,5.49-3.88.37-7.11-.69-9.71-3.16-.02-.01-.03-.02-.05-.03-.07-.02-.13.03-.15.09-.19.86-.52,1.64-.98,2.34,0,0,0,.01,0,.02-.06.11-.02.24.08.29,3.95,2.17,8.22,2.89,12.8,2.15,3.16-.51,6.3-2.48,6.75-5.84.47-3.57-2.02-5.44-4.88-6.72Z"/>
      <path d="M206.46,221.6s-.03-.05-.04-.08c0-.07.05-.13.12-.14,4.32-.4,8.47-2.34,8.22-7.32-.2-3.94-3.52-5.75-7.07-6.05-2-.17-3.53-.2-4.57-.1-2.87.28-5.49.36-7.89.23,0,0,0,0-.01,0-.1,0-.17.08-.17.18.21,7.67.21,15.49,0,23.46,0,0,0,.01,0,.02,0,.06.06.1.13.1,1.73-.23,3.36-.23,4.91,0,0,0,0,0,.01,0,.05,0,.09-.04.09-.09v-21.25c0-.19.13-.35.31-.39,3.22-.68,8.75-.89,9.04,3.69.24,3.8-1.5,5.87-5.22,6.21-.29.03-1.25,0-2.87-.06-.12,0-.22.07-.26.19-.19.68-.03,1.3.46,1.86,2.69,3.04,5.37,6.26,8.05,9.67.09.12.23.18.38.16,1.99-.18,3.96-.19,5.91,0,.03,0,.06,0,.08-.03.04-.04.04-.1,0-.14l-9.63-10.11Z"/>
      <path d="M265.14,211.54c-4.42-5.87-12.24-2.7-18.29-3.44,0,0-.02,0-.03,0-.1,0-.19.09-.18.2.26,7.72.26,15.48,0,23.29,0,0,0,0,0,0,0,.1.08.18.18.18h4.86c.07,0,.12-.05.12-.12v-8.13s0-.02,0-.03c.02-.12.14-.21.26-.19,4.5.7,11.84.35,13.55-5.07.7-2.22.61-4.33-.25-6.34-.06-.13-.13-.25-.21-.36ZM260.84,216.38h0c-.04,2.88-2.4,5.18-5.28,5.15l-2.96-.04h0c-.51,0-.93-.43-.92-.94l.12-9.8h0c0-.51.43-.93.94-.92l2.96.04h0c2.88.04,5.19,2.4,5.15,5.27l-.02,1.24Z"/>
      <path d="M67.42,208.13s0-.03,0-.04c0-.09-.09-.16-.18-.15-3.37.23-6.8.33-10.29.3-3.49.04-6.92-.06-10.29-.29-.01,0-.03,0-.04,0-.09.02-.15.1-.14.2.14.79.13,1.58-.02,2.37,0,0,0,.01,0,.02,0,.06.05.11.1.11h7.58c.16,0,.29.13.29.29l.02,20.84s0,0,0,.01c0,.06.07.11.14.1.9-.13,1.69-.19,2.37-.19s1.47.06,2.37.19c0,0,0,0,.01,0,.07,0,.12-.05.12-.12v-20.84c0-.16.13-.3.29-.3h7.58s.01,0,.02,0c.06-.01.1-.07.08-.12-.15-.79-.16-1.58-.02-2.37Z"/>
      <path d="M13.37,208.32c-.07-.17-.25-.26-.42-.22-.77.19-1.78.19-3.02,0-.1-.02-.2.04-.24.14-2.85,7.84-6.08,15.67-9.69,23.49,0,.02-.01.04,0,.06,0,.05.06.08.11.07.86-.14,1.69-.14,2.48-.01.12.02.23-.04.28-.15l2.47-6.34c.07-.18.25-.3.44-.3h9.03c.31,0,.58.18.69.47l2.53,6.19c.05.11.16.18.28.17,1.75-.2,3.45-.21,5.1-.02.01,0,.03,0,.04,0,.04-.02.06-.07.04-.11-3.64-7.8-7.02-15.6-10.13-23.42ZM14.26,222.81c-1.25.19-2.1.11-3.86.12-1.76,0-2.61.09-3.86-.09-.01,0-.03,0-.04,0-.09-.03-.13-.13-.09-.21l3.83-9.46s.04-.03.07-.04c.01,0,.03,0,.04,0s.03,0,.04,0c.04,0,.07.03.07.04l3.91,9.42s0,.03.01.04c.01.09-.05.18-.14.19Z"/>
      <path d="M116.57,208.24c-.02-.09-.11-.14-.19-.12-.76.17-1.5.17-2.23.01,0,0-.01,0-.02,0-.05,0-.1.04-.1.1v16.18s-.01.05-.03.07c-.04.04-.1.04-.14,0-1.78-1.94-3.68-3.89-5.37-5.93-2.87-3.45-6.09-6.98-8.66-10.3-.09-.11-.24-.17-.37-.13-.76.17-1.52.17-2.27,0-.01,0-.03,0-.04,0-.09,0-.16.07-.15.16.25,7.87.25,15.68,0,23.42,0,.01,0,.03,0,.04.02.09.11.14.19.12.76-.17,1.5-.17,2.23-.01,0,0,.01,0,.02,0,.05,0,.1-.04.1-.1v-16.18s.01-.05.03-.07c.04-.04.1-.04.14,0,1.78,1.94,3.67,3.89,5.37,5.93,2.86,3.45,6.09,6.98,8.66,10.3.09.11.24.17.37.13.76-.17,1.52-.17,2.27,0,.01,0,.03,0,.04,0,.09,0,.16-.07.15-.16-.25-7.87-.25-15.68,0-23.42,0-.01,0-.03,0-.04Z"/>
      <path d="M155.32,208.34c-.03-.15-.17-.25-.33-.22-1.48.29-2.99.28-4.52-.01-.11-.02-.23.04-.28.15l-7.76,17.34s-.04.06-.08.08c-.08.03-.17,0-.21-.08l-7.55-17.27c-.05-.11-.16-.17-.28-.16-1.52.21-3.05.21-4.6,0-.01,0-.02,0-.04,0-.12,0-.21.1-.2.22.25,7.85.25,15.63-.01,23.33,0,.01,0,.03,0,.04.02.09.11.15.21.13.76-.17,1.51-.18,2.26,0,0,0,.02,0,.03,0,.08,0,.15-.07.15-.15l-.15-16.94s0-.03.02-.05l.21-.15s0,0,.01,0c.03-.01.06,0,.07.03l7.42,17c.06.13.2.2.34.17.72-.18,1.35-.18,1.89,0,.14.04.29-.02.35-.16l7.63-17.06s.05-.06.09-.06c.06,0,.11.04.12.1v17.16s0,.01,0,.02c0,.07.07.12.14.11,1.65-.21,3.28-.19,4.89.03,0,0,.01,0,.02,0,.07,0,.13-.06.13-.13-.23-7.47-.23-15.26,0-23.37,0-.02,0-.04,0-.06Z"/>
      <path d="M165.71,208.22h-4.88s-.08.04-.08.08v23.38c0,.05.18.09.39.09h4.25c.22,0,.39-.04.39-.09v-23.38s-.04-.08-.08-.08Z"/>
      <path d="M343.43,208.23c-.02-.09-.11-.14-.19-.12-.76.17-1.5.17-2.23.01,0,0-.01,0-.02,0-.05,0-.1.04-.1.1v16.19s-.01.05-.03.07c-.04.04-.1.04-.14,0-1.78-1.94-3.68-3.89-5.38-5.93-2.86-3.46-6.09-6.99-8.66-10.31-.09-.11-.24-.17-.38-.13-.76.17-1.52.17-2.27,0-.01,0-.03,0-.04,0-.09,0-.16.07-.15.16.25,7.87.25,15.68,0,23.43,0,.01,0,.03,0,.04.02.09.11.14.19.12.76-.17,1.5-.17,2.23-.01,0,0,.01,0,.02,0,.05,0,.1-.04.1-.1v-16.19s.01-.05.03-.07c.04-.04.1-.04.14,0,1.78,1.94,3.68,3.89,5.37,5.94,2.87,3.45,6.09,6.98,8.67,10.3.09.11.24.17.37.13.76-.17,1.52-.17,2.27,0,.01,0,.03,0,.04,0,.09,0,.16-.07.15-.16-.25-7.87-.25-15.68,0-23.43,0-.01,0-.03,0-.04Z"/>
      <path d="M366.04,229.44c-4.13.33-8.1.35-11.91.06-.14-.01-.25-.13-.25-.27v-8.06c0-.13.11-.25.24-.25,2.79-.14,5.49-.06,8.11.24,0,0,.01,0,.02,0,.08,0,.14-.06.14-.14v-2.28s0-.01,0-.02c0-.08-.08-.14-.16-.13-2.56.28-5.26.38-8.07.28-.14,0-.25-.12-.25-.26v-7.71c0-.19.14-.34.33-.36,3.73-.28,7.48-.25,11.27.08,0,0,0,0,0,0,.06,0,.11-.05.11-.11v-2.33s0,0,0-.01c0-.07-.07-.12-.14-.11-5.44.42-10.92.44-16.45.06,0,0-.02,0-.02,0-.13,0-.23.11-.22.24.19,7.91.19,15.7,0,23.38,0,0,0,0,0,0,0,.07.06.13.13.12,5.6-.32,11.31-.3,17.12.06,0,0,0,0,.01,0,.09,0,.16-.07.16-.16v-2.17s0,0,0-.01c0-.09-.08-.15-.17-.15Z"/>
      <path d="M290.68,208.37s0-.03,0-.05c-.02-.14-.15-.23-.29-.21-1.55.23-3.08.24-4.61,0-.01,0-.02,0-.03,0-.12,0-.22.1-.22.22v9.97c0,.11-.09.2-.2.2-1.74.06-3.39.09-4.96.09s-3.22-.03-4.96-.08c-.11,0-.2-.09-.2-.2v-9.97s0-.02-.01-.03c-.02-.12-.13-.21-.25-.19-1.53.23-3.06.23-4.61,0-.02,0-.03,0-.05,0-.14,0-.25.12-.24.26.2,7.76.21,15.53.01,23.3,0,.01,0,.02,0,.03.02.12.13.2.24.18,1.63-.23,3.2-.23,4.72,0,0,0,.02,0,.03,0,.09,0,.17-.08.17-.17v-10.63c0-.09.06-.17.15-.17.88-.04,2.55-.07,5-.07,2.45,0,4.12.02,5,.06.09,0,.17.08.17.17v10.63s0,.02,0,.03c.01.09.1.16.19.14,1.52-.23,3.09-.23,4.72,0,.01,0,.02,0,.04,0,.12,0,.21-.1.21-.22-.2-7.77-.21-15.54-.01-23.3Z"/>
    </g>
  </g>
</svg>