<?xml version="1.0" encoding="UTF-8"?>
<svg id="Layer_2" data-name="Layer 2" xmlns="http://www.w3.org/2000/svg" viewBox="0 0 450 85.33">
  <defs>
    <style>
      .cls-1 {
        fill: #1d1d1d;
      }
    </style>
  </defs>
  <g id="Layer_1-2" data-name="Layer 1">
    <g>
      <path class="cls-1" d="M442.37,32.36c-3.92-2.59-7.04-4.38-9.35-5.39-20.87-9.1-43.87-13.36-66.11-16.67-16.34-2.44-30.94-4.25-43.79-5.42C292.81,2.09,262.54.5,232.3.09c-9.98-.14-19.83-.12-29.56.04-29.94.51-59.89,1.81-89.61,4.52-9.86.9-18.73,1.91-26.63,3.05-16.88,2.43-33.09,5.22-49.41,9.54-11.52,3.06-22.43,7.26-31.74,14.4-4.68,3.59-6.59,8.84-4.56,14.22,2.17,5.74,10.69,10.66,16.61,13.43,5.36,2.51,9.78,4.28,13.26,5.31,14.22,4.19,29.09,7.46,44.61,9.82,26.53,4.03,53.51,6.86,80.92,8.47,25.55,1.5,49.08,2.31,70.59,2.42,28.8.15,59.86-.88,93.18-3.1,10.36-.69,21.26-1.98,32.26-3.13,16.13-1.69,32.51-4.23,49.13-7.63,6.23-1.28,13.63-3.21,22.19-5.81,8.11-2.47,19.12-6.8,24.15-13.88,5.11-7.19.92-15.28-5.35-19.4ZM436.94,48.69c-5.16,3.67-11.72,5.98-18.14,7.76-39.88,11.04-81.75,15.46-123.53,17.62-22.52,1.16-44.87,1.71-67.06,1.65-23.16-.07-48.29-.91-75.41-2.53-27.68-1.65-54.38-4.68-80.12-9.08-9.94-1.71-20.74-4.09-32.39-7.17-9-2.38-17.5-5.16-24.92-10.09-1.49-.99-2.65-2.17-3.49-3.55-2.36-3.91,6.14-8.53,8.78-9.74,8.03-3.66,16.6-6.54,25.69-8.65,31.9-7.36,64.11-10.97,97.59-12.82,50.22-2.77,101.43-2.72,153.62.14,19.83,1.09,39.53,2.98,59.11,5.65,18.58,2.54,35.91,5.9,51.98,10.08,6.94,1.8,12.85,3.71,17.73,5.71,4.35,1.79,12.1,5.41,13.71,10.02.57,1.63-1.89,4.09-3.17,5Z"/>
      <path class="cls-1" d="M289.87,30.28c-3.36-1.15-7.18-1.74-11.45-1.77-4.27-.03-8.1.5-11.47,1.59-5.25,1.71-10.01,6.21-10.06,11.99-.04,5.77,4.65,10.35,9.87,12.14,3.36,1.15,7.18,1.74,11.45,1.77,4.27.03,8.1-.5,11.47-1.6,5.25-1.7,10.01-6.21,10.06-11.98.04-5.78-4.65-10.36-9.87-12.14ZM286.99,43.24c-.3,2.75-1.51,5.16-3.25,6.79-.87.82-1.87,1.44-2.96,1.81-.81.28-1.66.42-2.54.4-.01,0-.02,0-.03,0h0c-4.76-.11-8.52-4.78-8.39-10.44.13-5.66,4.09-10.16,8.86-10.05,4.46.1,8.05,4.22,8.37,9.4.02.35.03.7.02,1.05s-.03.7-.07,1.05Z"/>
      <path class="cls-1" d="M87.34,52.95s-.01-.03-.02-.04c-.03-.05-.07-.09-.13-.12-2.79-1.44-4.89-3.19-6.85-6.01-3.48-4.99-6.42-9.45-8.81-13.37-.23-.38-.2-.87.08-1.21l2.25-2.74c.04-.05.06-.12.07-.19,0,0,0-.01,0-.02,0,0,0,0,0-.01,0-.02,0-.04-.01-.06,0-.02,0-.04-.02-.05,0-.02-.02-.03-.03-.05-.01-.02-.02-.04-.04-.05,0,0-.02-.01-.03-.02-.05-.04-.11-.06-.18-.06h-18.23s-.09.01-.12.03c0,0,0,0-.01,0-.01,0-.02.02-.03.02-.02.01-.03.02-.04.04-.01.01-.02.03-.03.04,0,.02-.02.03-.02.05,0,.02,0,.04-.01.06,0,.02,0,.03,0,.05,0,.04.01.08.03.12l2.02,3.5c.14.25.12.57-.06.81-2.98,3.88-6.62,8.38-10.93,13.5-2,2.39-4.56,4.2-7.66,5.44-.04.02-.08.04-.12.07-.01,0-.02.02-.03.03-.02.02-.04.04-.05.07,0,.01-.01.03-.02.04-.01.03-.02.05-.02.08,0,.02,0,.03,0,.05,0,0,0,.02,0,.02,0,.02,0,.03.01.05,0,.03,0,.05.02.07,0,.02.01.03.02.04.01.02.03.05.05.07.01.01.02.02.03.03.02.02.05.03.08.05.01,0,.03.01.04.02.04.01.09.02.13.02h15.63s.1-.02.14-.05c0,0,0-.01,0-.01.02-.02.03-.05.04-.07.01-.03.03-.05.03-.08,0-.05,0-.11-.04-.15l-3.48-4.43c-.07-.08-.11-.18-.15-.27,0-.02-.01-.03-.02-.05-.03-.09-.05-.19-.05-.29,0,0,0-.01,0-.02,0-.02,0-.04,0-.06,0-.04,0-.07.01-.11,0-.03.01-.06.02-.1,0-.03.02-.07.03-.1.01-.03.03-.06.04-.09.01-.03.03-.06.05-.09.02-.03.04-.06.06-.08.02-.03.04-.05.06-.08.03-.03.05-.05.08-.08.02-.02.04-.04.06-.05.08-.06.17-.11.26-.14.02,0,.03-.01.05-.02.1-.03.2-.05.31-.05h14.07s.06,0,.08.01c.88.23,1.57,1.04,2.05,2.43.12.34.01.72-.27.95l-2.77,2.17c-.07.05-.12.12-.15.19-.01.02-.01.04-.02.07-.02.05-.04.11-.04.16,0,.01,0,.02,0,.03,0,.02.01.05.01.07,0,.04,0,.08.02.11.01.04.03.07.05.1.02.03.03.06.05.08.04.04.08.08.13.11.02.01.04.03.06.04.07.03.15.06.23.06h21.69c.06,0,.12-.02.17-.04.01,0,.02-.01.04-.02.04-.03.08-.07.11-.12,0,0,0,0,0,0,0,0,0,0,0,0,.01-.02.01-.04.02-.07,0-.02.01-.04.02-.07,0,0,0-.01,0-.02,0-.05-.02-.1-.04-.15ZM63.08,42.37s-.04.04-.07.06c-.01.01-.02.03-.04.04,0,0-.01,0-.02,0-.06.03-.12.05-.19.05h-6.97c-.05,0-.11-.01-.15-.03-.02,0-.03-.02-.05-.03-.02-.01-.05-.02-.07-.04,0,0,0-.01-.01-.02-.02-.02-.04-.04-.06-.07-.02-.02-.03-.04-.04-.06-.01-.02-.02-.05-.02-.07,0-.03-.02-.06-.02-.09,0,0,0-.01,0-.02,0-.03,0-.05.01-.07,0-.02,0-.04,0-.05.02-.05.04-.1.07-.14l4.27-5.21s.04-.04.07-.06c.02,0,.03,0,.05,0,.03,0,.05-.01.09-.01.03,0,.05.01.08.02.02,0,.03,0,.05.01.02.02.04.04.05.06l3.02,5.23c.03.06.05.13.05.19,0,0,0,.01,0,.02,0,.02,0,.04-.01.05,0,.03,0,.06-.02.09,0,.03-.02.05-.04.07-.01.02-.03.05-.05.07Z"/>
      <path class="cls-1" d="M127.12,29.55s0-.02,0-.03c0-.01,0-.02,0-.03,0-.03,0-.06-.02-.08,0-.03-.02-.05-.03-.08-.01-.02-.02-.04-.04-.05-.03-.04-.06-.07-.1-.09-.02,0-.03-.02-.05-.03-.06-.03-.12-.05-.19-.04h-15.36c-.05,0-.1.01-.14.03-.01,0-.02.02-.04.02-.03.02-.06.04-.08.06,0,0-.01,0-.02.01,0,.01-.01.03-.02.04-.01.02-.02.04-.03.06,0,.02-.01.05-.02.07,0,.02,0,.04,0,.06,0,.03,0,.07.02.1,0,.01,0,.03.01.04.02.04.05.08.09.12l4.39,3.59c.51.42.81,1.05.81,1.72,0,2.16-.03,5.11-.06,8.84,0,.8-.12,1.46-.33,1.98-1.41,3.47-13.04,3.75-13.48-.42-.37-3.51-.22-5.97-.13-10.71.01-.67.28-1.31.75-1.79l3.32-3.38s.05-.06.06-.09c.01-.03.02-.07.02-.11,0,0,0,0,0,0,0,0,0,0,0,0,0-.04,0-.07-.02-.1-.01-.03-.03-.06-.06-.09,0,0,0,0,0,0-.03-.03-.06-.05-.09-.06-.03-.01-.07-.02-.11-.02h-20.21s-.1.01-.14.03c-.02.01-.04.03-.07.04-.02.01-.04.02-.05.03,0,0,0,0,0,0-.04.04-.06.08-.08.12-.02.05-.03.09-.03.14,0,.02,0,.04.01.06,0,.03,0,.05.01.08.02.04.04.09.08.12.81.82,4.21,3.48,4.32,5.4.04.76.04,4.46,0,11.11-.08,10.85,30.54,11.55,31.62.1.14-1.55.18-5.18.11-10.89-.04-2.52,2.91-3.94,5.19-5.52.05-.04.1-.09.13-.14,0-.02.01-.03.02-.05.02-.04.03-.09.03-.13Z"/>
      <path class="cls-1" d="M162.14,46.17s0-.08,0-.11c0-.02.02-.04.03-.06.01-.02.02-.05.03-.06.02-.03.05-.05.08-.07,0,0,.02-.02.03-.02.04-.02.09-.04.14-.05,11.83-1.35,10.95-16.84-.83-16.73-10.89.1-21.51.09-31.84-.05-.05,0-.1.01-.15.04-.01,0-.02.02-.04.02-.03.02-.06.04-.08.07,0,0-.01.01-.02.02,0,0,0,.02-.01.03-.01.02-.02.04-.03.06,0,.02-.01.04-.01.07,0,.02,0,.04,0,.05,0,.04.01.07.03.11,0,.01,0,.03.02.04.03.04.06.08.1.11l5.28,3.57c.55.37.88.99.88,1.65v12.01c0,.54-.25,1.05-.67,1.39l-5.98,4.7s-.07.08-.1.12c0,.01,0,.03-.01.04-.01.03-.02.07-.02.11,0,0,0,.01,0,.02,0,.02,0,.03,0,.04,0,.03,0,.05.01.07,0,.02.02.05.03.07.01.02.02.04.04.05.02.03.05.05.08.07.01,0,.02.02.04.02.05.02.1.03.15.03h21.57c.05,0,.1-.01.15-.03.02,0,.03-.02.04-.02.02-.01.04-.02.06-.03,0,0,.01-.02.02-.02.02-.02.04-.04.06-.06.02-.02.03-.04.04-.06.01-.02.02-.05.02-.07,0-.03.01-.05.02-.08,0-.03,0-.06,0-.09,0-.02,0-.03,0-.05-.01-.05-.03-.09-.07-.13l-4.18-5.32c-.08-.1-.13-.21-.18-.32,0-.02-.02-.04-.02-.06-.04-.11-.06-.23-.06-.35,0,0,0-.02,0-.03,0-.02,0-.05,0-.07,0-.04,0-.09.01-.13,0-.04.02-.08.03-.11.01-.04.02-.08.03-.11.01-.04.03-.07.05-.11.02-.04.04-.07.06-.1.02-.03.04-.07.07-.1.02-.03.05-.06.07-.09.03-.03.06-.06.09-.09.02-.02.05-.04.07-.06.09-.07.2-.13.31-.17.02,0,.04-.01.06-.02.11-.04.23-.06.36-.06h.95c1.06,0,2.06.49,2.72,1.32l4.89,6.22c.29.37.73.58,1.2.58,4.51-.03,8.22-.02,11.13.03.23,0,.36-.12.39-.36.02-.24-.06-.41-.25-.53-3.13-1.82-5.42-4-6.85-6.56-.02-.04-.04-.09-.05-.14,0,0,0,0,0,0,0-.01,0-.02,0-.03ZM158.33,37.52s0,0,0,0c0,.05,0,.1,0,.15,0,.07,0,.15-.01.22,0,.06-.02.12-.03.17-.01.06-.02.13-.03.19-.01.05-.03.09-.04.14-.02.07-.04.14-.06.21-.02.05-.04.09-.05.13-.03.07-.05.14-.08.2-.03.05-.06.1-.08.16-.03.05-.06.11-.09.16-.03.05-.07.1-.1.15-.03.05-.07.1-.1.15-.04.05-.08.1-.12.15-.04.04-.07.09-.11.13-.04.04-.08.08-.12.12-.05.05-.09.09-.14.14-.04.03-.08.06-.12.09-.06.05-.11.1-.17.14-.05.04-.11.07-.16.11-.05.03-.1.07-.15.1-.06.04-.13.07-.19.1-.05.03-.1.06-.15.08-.06.03-.12.05-.18.08-.06.03-.12.05-.18.08-.06.02-.13.04-.2.06-.06.02-.12.04-.18.06-.06.02-.12.03-.19.04-.07.02-.13.03-.2.05-.06,0-.11.01-.17.02-.08.01-.15.02-.23.03-.07,0-.14,0-.21,0-.07,0-.13,0-.2,0h0l-6.32-.03h0c-.19,0-.36-.06-.51-.14-.04-.02-.07-.04-.11-.07-.19-.14-.34-.35-.4-.59-.02-.09-.04-.18-.04-.28h0s.03-5.38.03-5.38h0c0-.19.06-.36.14-.51.02-.04.04-.07.07-.11.06-.08.12-.14.2-.2.05-.04.11-.08.17-.11.07-.04.15-.07.22-.09.09-.02.18-.04.28-.04h0l6.32.03c2.23.01,4.03,1.67,4.02,3.69v.17Z"/>
      <path class="cls-1" d="M219.75,53.87s0-.04,0-.06c0-.03,0-.06-.02-.1,0-.01,0-.03-.01-.04-.02-.04-.05-.08-.09-.11-2.83-2.42-5.09-5.08-7.27-8.66-1.83-3.01-4.2-6.47-6.26-9.81-.76-1.22-2.06-3.01-3.92-5.38-.22-.27-.54-.43-.89-.43h-14.06c-.05,0-.11.01-.15.03-.02,0-.03.02-.05.03-.02.01-.04.02-.06.03,0,0-.01.02-.02.02-.02.02-.04.04-.06.07-.02.02-.03.04-.04.07-.01.02-.02.05-.02.08,0,.03-.01.06-.02.09,0,.03,0,.07,0,.1,0,.02,0,.04,0,.05.02.05.04.1.07.14l1.85,2.36c.3.37.29.91-.01,1.28-3.33,4.04-6.52,8.03-9.59,11.95-2.39,3.05-5.07,5.61-8.04,7.68-.04.03-.07.07-.1.11,0,.01-.01.03-.02.04-.01.03-.02.07-.03.1,0,0,0,.02,0,.02,0,.01,0,.02,0,.03,0,.02,0,.04.01.06,0,.02.01.04.03.06,0,.02.02.03.03.05.02.03.05.05.08.07.01,0,.02.02.03.02.04.02.09.04.14.04h13.46c.06,0,.11-.01.16-.03.02,0,.03-.02.05-.03.02-.01.05-.02.07-.04,0,0,.01-.01.02-.02.02-.02.04-.05.06-.07.02-.02.03-.04.05-.07.01-.03.02-.05.03-.08,0-.03.02-.06.02-.09,0-.03,0-.07,0-.1,0-.02,0-.04,0-.06-.02-.05-.04-.1-.07-.15l-3.22-4.09c-.07-.09-.12-.19-.16-.3,0-.02-.01-.04-.02-.05-.03-.1-.05-.21-.05-.32,0,0,0-.02,0-.02,0-.02,0-.04,0-.06,0-.04,0-.08.01-.12,0-.04.01-.07.02-.1,0-.04.02-.07.03-.1.01-.03.03-.07.04-.1.02-.03.03-.06.05-.1.02-.03.04-.06.06-.09.02-.03.04-.06.07-.08.03-.03.06-.06.09-.08.02-.02.04-.04.07-.06.09-.06.18-.11.28-.15.02,0,.04-.01.05-.02.11-.03.21-.05.33-.05,7.08.06,11.85.07,14.31.03.9-.01,1.64.36,2.23,1.12.93,1.2.89,2.34-.12,3.41-.55.58-1.14,1.13-1.77,1.63-.05.04-.09.09-.11.14,0,.02,0,.03-.02.05-.01.04-.03.08-.03.12,0,0,0,.01,0,.02,0,.02,0,.03.01.05,0,.03,0,.06.02.08,0,.03.02.05.04.08.01.02.03.04.04.06.03.03.06.06.1.08.02,0,.03.02.04.03.05.03.11.04.18.04h21.74s.1-.01.14-.03c.01,0,.02-.02.03-.02.03-.02.06-.04.08-.06,0,0,0,0,.01,0,0-.01.01-.03.02-.04.01-.02.02-.04.03-.06,0-.02.01-.04.01-.07ZM194.99,42.77s-.05.05-.08.07c-.02.01-.03.03-.05.04,0,0-.02,0-.02,0-.07.04-.14.06-.23.06h-7.69c-.06,0-.13-.02-.18-.04-.02,0-.04-.02-.06-.03-.03-.01-.05-.02-.08-.04,0,0-.01-.02-.02-.02-.03-.02-.05-.05-.07-.08-.02-.03-.04-.05-.05-.08-.01-.03-.02-.06-.03-.09,0-.03-.02-.07-.02-.1,0,0,0-.02,0-.03,0-.03.01-.06.02-.09,0-.02,0-.04.01-.06.02-.06.05-.12.09-.17l4.51-5.5s.09-.09.14-.12c0,0,0,0,0,0,.04-.02.08-.03.12-.04.02,0,.05-.02.07-.02.03,0,.06,0,.1,0,.03,0,.07,0,.1,0,.02,0,.04.02.07.03.04.02.08.03.11.06,0,0,0,0,0,0,.05.04.09.09.12.14l3.17,5.51c.04.07.06.15.06.23,0,0,0,.01,0,.02,0,.02,0,.04-.01.07,0,.04,0,.07-.02.1-.01.03-.03.06-.04.09-.02.03-.03.06-.05.08Z"/>
      <path class="cls-1" d="M253.37,29.41h-35.24c-.11,0-.2.09-.2.2v10.22s0,.05.01.08c0,0,0,0,0,.01,0,.02.02.03.03.05,0,.01.02.03.03.04.01.01.03.02.04.03.01.01.03.02.04.03.01,0,.03.01.05.01.02,0,.04.01.06.01.03,0,.06,0,.09,0,.85-.25,2.82-2.99,4.65-5.23.35-.43.88-.68,1.44-.68h4.22c.18,0,.35.07.47.19.06.06.11.13.14.21.03.08.05.17.05.26v13.56c0,.6-.28,1.17-.75,1.54l-4.72,3.71s-.07.07-.1.12c0,.01,0,.03-.01.04-.01.03-.02.07-.02.1,0,0,0,.01,0,.02,0,.02,0,.03,0,.05,0,.03,0,.05.01.07,0,.02.02.04.03.07.01.02.02.04.03.05.02.03.05.05.08.07.01,0,.02.02.04.02.04.02.09.03.15.03h22.92s.08-.01.12-.03c.01,0,.02-.01.03-.02.02-.02.05-.03.07-.05,0,0,0,0,0,0,0-.01.01-.03.02-.04.01-.02.02-.04.03-.06,0-.02,0-.04.01-.06,0-.02,0-.03,0-.05,0-.03,0-.06-.02-.09,0-.01,0-.02,0-.03-.02-.04-.04-.07-.08-.1l-5.06-4.15c-.36-.3-.57-.74-.57-1.21v-13.4h0c0-.1.02-.2.06-.29.04-.09.09-.17.16-.23.13-.13.32-.22.52-.22h5.19c.51,0,1,.24,1.31.64l4.56,5.79s.09.08.14.11c.02,0,.03,0,.05.02.04.01.08.03.12.03,0,0,.01,0,.02,0,.02,0,.03,0,.05-.01.03,0,.06,0,.08-.02.03,0,.05-.02.08-.04.02-.01.04-.02.06-.04.03-.03.05-.06.08-.1,0-.01.02-.03.03-.04.02-.05.04-.11.04-.17v-10.4c0-.36-.29-.65-.65-.65Z"/>
      <path class="cls-1" d="M343.53,30.4s0-.07-.01-.1c-.01-.03-.03-.06-.05-.09-.01-.02-.02-.05-.04-.07-.03-.04-.07-.07-.11-.09-.01,0-.03-.02-.04-.03-.06-.03-.12-.05-.19-.05-.16,0-.38-.01-.66,0-7.05,0-11.57-.04-13.54-.15-.06,0-.12.01-.18.03-.02,0-.03.02-.05.03-.04.02-.07.04-.1.08,0,0-.01,0-.02.01-.01.01-.02.03-.03.05-.02.03-.03.05-.04.08-.01.03-.02.06-.02.09,0,.03,0,.05,0,.08,0,.04.01.08.02.13,0,.02,0,.03.01.05.03.06.06.11.11.15l4.28,3.51c.5.41.78,1.02.78,1.66v6.67c0,.06-.01.13-.04.19,0,.02-.02.04-.03.06-.02.03-.03.06-.05.08,0,0-.01,0-.02.01-.03.03-.06.05-.09.07-.02.02-.05.04-.07.05-.03.01-.06.02-.09.02-.04,0-.07.02-.11.02-.04,0-.08,0-.12-.01-.02,0-.05,0-.07-.01-.06-.02-.12-.05-.17-.09l-15.32-12.57c-.36-.29-.81-.46-1.27-.46h-16.75s-.08.02-.11.04c0,0-.01,0-.02.02,0,0-.01,0-.02.01-.01.02,0,.03-.01.05,0,.02-.02.05-.02.07,0,0,0,.01,0,.02,0,.04.03.08.06.1l8.31,6.82c.17.14.27.35.27.58v11.96c0,.5-.23.98-.62,1.29l-4.44,3.49s-.07.07-.1.12c0,.01,0,.03-.01.04-.01.03-.02.07-.02.11,0,0,0,.01,0,.02,0,.02,0,.03,0,.04,0,.03,0,.05.01.07,0,.02.02.05.03.07.01.02.02.04.04.05.02.03.05.05.08.07.01,0,.02.02.04.02.05.02.1.03.15.03h14.41c.06,0,.12-.01.18-.04.02,0,.03-.02.04-.03.04-.02.07-.05.1-.08,0,0,.02,0,.02-.02.01-.01.01-.03.02-.04.02-.03.03-.05.04-.08.01-.03.02-.06.02-.08,0-.02,0-.05,0-.07,0-.04-.01-.08-.03-.13,0-.02,0-.03-.02-.05-.03-.05-.06-.1-.12-.14l-3.91-3.21c-.46-.38-.73-.94-.73-1.54v-6.87c0-.06.01-.11.03-.16,0-.02.02-.03.03-.05.01-.02.02-.05.04-.07,0,0,.01,0,.02-.01.02-.02.05-.04.07-.06.02-.02.04-.03.06-.04.02-.01.05-.02.08-.02.03,0,.06-.02.09-.02.03,0,.07,0,.1,0,.02,0,.04,0,.06,0,.05.02.1.04.14.08l15.23,12.49c.29.24.66.37,1.04.37h7.74c.28,0,.51-.23.51-.5v-19.5c0-.17.08-.33.21-.44l4.76-3.73c.05-.04.1-.1.13-.15,0-.02,0-.03.02-.05.02-.04.03-.09.04-.14,0,0,0,0,0-.01,0-.02,0-.05,0-.07Z"/>
      <path class="cls-1" d="M387.35,30.17c-14.62-.01-28.37-.07-41.25-.16-.52,0-.89.04-1.11.12-.04.01-.07.04-.1.07,0,0,0,0,0,0,0,0,0,.02-.02.03,0,.02-.02.03-.03.05,0,.02,0,.03-.01.05,0,.02,0,.03,0,.05,0,.02,0,.04,0,.05,0,.01,0,.03.01.04.02.04.04.07.07.1l5.12,4.2c.23.19.37.48.37.78v13.23c0,.66-.3,1.28-.83,1.7l-4.88,3.83s-.07.07-.1.12c0,0,0,0,0,0,0,.02,0,.03-.01.05,0,.03-.02.05-.02.08,0,.02,0,.05,0,.07,0,.02,0,.05,0,.07,0,.03.02.05.03.07,0,.02.02.04.03.05.03.04.07.07.12.1.25.12.52.18.81.19,10.31.07,24.22.17,41.71.29,0,0,0,0,0,0,.03,0,.05-.01.07-.02.03,0,.05,0,.08-.02.02,0,.04-.03.06-.04.02-.01.05-.03.06-.04.02-.02.03-.04.04-.06.01-.02.03-.04.04-.07,0-.02.01-.05.02-.08,0-.03.02-.05.02-.08v-7.41c0-.05-.01-.11-.03-.16,0,0,0,0,0,0,0-.02-.02-.03-.03-.04-.02-.02-.03-.05-.05-.07-.02-.02-.04-.03-.06-.04-.02-.01-.04-.03-.06-.04-.03-.01-.05-.01-.08-.02-.02,0-.04,0-.06,0-.05,0-.1.01-.15.03l-6.13,2.91c-.4.19-.83.29-1.26.29h-15.58c-.54,0-.98-.44-.98-.98v-3.35c0-.43.35-.78.78-.78h8.14c.44,0,.87.13,1.24.38l4.58,3.1s.11.05.16.07c.02,0,.04,0,.05,0,.02,0,.04,0,.06,0,.02,0,.03,0,.05,0,.03,0,.07,0,.1-.02.03,0,.06-.02.09-.03.03-.01.05-.03.08-.05.03-.02.05-.04.07-.07.02-.03.04-.06.06-.09,0-.02.02-.03.02-.05.02-.05.04-.11.04-.17v-11.18c0-.07-.03-.15-.06-.21,0,0,0-.02,0-.03,0,0-.02-.01-.03-.02-.02-.02-.04-.04-.06-.06-.02-.02-.04-.03-.06-.04-.02-.01-.05-.02-.07-.03-.03,0-.05-.01-.08-.02-.02,0-.04,0-.06,0-.07,0-.15.02-.21.06l-5.11,3.52c-.54.37-1.17.56-1.82.56h-7.02c-.42,0-.76-.34-.76-.75v-4.51c0-.46.37-.83.83-.83h16.24c.46,0,.92.11,1.34.31l5.35,2.56c.06.03.13.05.2.05,0,0,0,0,.01,0,.02,0,.05-.01.07-.01.04,0,.07,0,.1-.02.03-.01.05-.03.08-.05s.05-.03.08-.05c.03-.02.04-.06.06-.09.02-.02.03-.04.05-.07.03-.06.05-.13.05-.21v-6.66c0-.26-.21-.48-.48-.48Z"/>
      <path class="cls-1" d="M398.9,43.76c-3.34,0-6.05,2.71-6.05,6.05s2.71,6.05,6.05,6.05,6.05-2.71,6.05-6.05-2.71-6.05-6.05-6.05ZM398.7,55.05c-2.8-.1-4.98-2.54-4.88-5.44.11-2.9,2.46-5.18,5.26-5.07,2.8.1,4.98,2.54,4.88,5.44-.11,2.9-2.46,5.18-5.26,5.07Z"/>
      <path class="cls-1" d="M401.79,48.29h-.21c-.4,0-.74.3-.78.7l-.13,1.14s0,.03-.01.05c0,.02-.02.02-.03.04-.01.02-.03.04-.05.05-.02.01-.04.02-.07.02-.03,0-.06.02-.09,0-.11-.03-.17-.14-.15-.25.1-.48.09-.92-.05-1.32-.08-.23-.29-.38-.53-.39h-4.48c-.05,0-.11.02-.15.04-.01,0-.02.02-.04.02-.03.02-.06.05-.08.08,0,0-.02.01-.02.02,0,0,0,.02,0,.02-.01.02-.02.04-.02.06,0,.02-.01.04-.01.07,0,.02,0,.03,0,.05,0,.04.01.08.03.11,0,.01.01.03.02.04.03.04.06.08.11.11.79.46,1.14,1.22,1.04,2.27,0,.07,0,.13.02.19,0,.02.01.04.02.06.02.04.03.08.06.12.01.02.03.03.04.05.03.03.06.06.1.09.02.01.03.02.05.03,0,0,.01,0,.02.01.03.01.06.01.09.02.04.01.07.02.11.03.02,0,.04,0,.06,0,.04,0,.09,0,.13-.02.02,0,.04-.01.06-.02.04-.02.08-.04.11-.07.02-.01.03-.02.05-.04.05-.04.09-.09.12-.16.1-.2.13-.69.09-1.48-.01-.26.13-.5.36-.61l.6-.28c.05-.02.11-.04.17-.04,0,0,0,0,0,0,.02,0,.04,0,.06.01.03,0,.07,0,.09.02.02,0,.04.03.07.04.02.01.05.03.07.04.02.02.04.05.06.08.01.02.03.03.04.05.02.05.04.11.04.17v1.53c0,.09.02.18.06.27,0,0,0,0,0,0,.01.03.04.05.05.08.03.04.05.09.09.13.03.03.07.05.1.07.04.02.07.05.11.07.05.02.1.02.15.03.03,0,.06.02.1.02.09,0,.18-.02.26-.06.56-.25,1.18-.24,1.87.04.07.03.15.05.24.05,0,0,0,0,0,0,.06,0,.12-.02.18-.04.02,0,.05,0,.07-.01.04-.02.07-.04.1-.07.03-.02.07-.04.1-.07.02-.02.02-.04.04-.05.04-.05.08-.1.1-.15.03-.07.05-.16.05-.24v-2.22c0-.34-.28-.62-.62-.62Z"/>
    </g>
  </g>
</svg>