<?xml version="1.0" encoding="UTF-8"?>
<svg id="Layer_2" data-name="Layer 2" xmlns="http://www.w3.org/2000/svg" viewBox="0 0 450 89.19">
  <g id="Layer_1-2" data-name="Layer 1">
    <g>
      <path d="M38.27,21.75c-6.63-4.03-13.95-4.75-21.95-2.14-2.02.66-4.44,2.26-6.62,3.62-.03.02-.07.03-.1.04-.01,0-.03,0-.04,0-.02,0-.04,0-.06,0,0,0,0,0-.01,0-.02,0-.04-.01-.06-.02-.02,0-.03-.01-.05-.02-.01,0-.03-.02-.04-.03-.02-.01-.03-.03-.04-.04-.01-.02-.02-.04-.03-.06,0-.01-.01-.02-.02-.04,0-.03-.01-.07,0-.11.43-3.08.19-8.22.2-16.23,0-1.86-.13-3.09-.4-3.69C7.42-.6,3.68.05.4.06c0,0,0,0,0,0-.03,0-.05.01-.07.02-.02,0-.05,0-.07.02-.02,0-.04.03-.06.04-.02.01-.04.02-.06.04-.02.02-.03.04-.04.06-.01.02-.03.04-.04.06,0,.02-.01.05-.02.08,0,.03-.01.05-.01.08C.05,19.38.05,33.02,0,41.4c0,1.89.17,3.63.54,5.21.66,2.82,1.11,4.51,1.34,5.07,3.05,7.4,8.19,12.26,15.42,14.58,5.28,1.69,10.47,1.72,15.57.09,8.83-2.82,15.63-10.46,16.97-19.84,1.46-10.1-3.05-19.57-11.58-24.76ZM25.2,58.24c-.53,0-1.06-.03-1.58-.08-.26-.03-.52-.06-.77-.1-.51-.08-1.01-.18-1.51-.31-.99-.25-1.93-.6-2.83-1.04-.67-.32-1.32-.7-1.94-1.11-.62-.42-1.2-.87-1.75-1.37-.37-.33-.71-.68-1.05-1.05-.33-.37-.65-.75-.94-1.14-.44-.59-.85-1.22-1.2-1.88-1.19-2.19-1.86-4.69-1.86-7.35,0-2.93.82-5.67,2.23-8,.26-.42.54-.83.83-1.23.15-.2.3-.39.46-.58.94-1.14,2.05-2.15,3.28-2.98.21-.14.41-.27.63-.4,2.33-1.42,5.07-2.23,8-2.23,4.79,0,9.07,2.19,11.9,5.61.16.19.31.38.46.58.89,1.19,1.61,2.51,2.13,3.93.26.71.47,1.44.62,2.2.1.5.18,1.01.23,1.53.05.52.08,1.04.08,1.58,0,8.52-6.91,15.43-15.43,15.43Z"/>
      <path d="M125.36,20.01c-1.8.71-3.88,2.14-5.61,3.15-.03.02-.06.02-.09.02,0,0-.01,0-.02,0-.02,0-.04-.02-.06-.03-.02-.01-.04-.02-.05-.04-.02-.03-.04-.06-.04-.1.11-4.1.14-9.53.1-16.29C119.54-.76,116.49.23,110.58,0c0,0,0,0-.01,0-.02,0-.04,0-.06.01-.02,0-.05,0-.07.01-.02,0-.04.02-.06.03-.02.01-.04.02-.05.04-.02.02-.03.03-.04.05-.01.02-.03.03-.04.05,0,.02-.01.04-.02.07,0,.02-.01.05-.01.07,0,25.06,0,45.54,0,61.43,0,5.99,4.7,5.41,9,5.31.22,0,.4-.19.4-.41-.03-4.73-.05-10.82-.04-18.27,0-4.11.05-6.44.14-6.99,1.2-7.16,5.37-12.26,12.71-13.72,7.89-1.57,15.63,3.68,17.74,11.14.27.96.4,4.2.38,9.72-.02,4.94-.04,9.02-.05,12.25-.01,2.93.88,5.9,3.99,6.15,1.17.09,2.93.12,5.29.09.24,0,.43-.2.43-.43-.02-12.53-.02-19.62.01-21.27.07-3.53-.22-6.47-.86-8.82-4.07-14.89-19.92-22.1-34-16.5Z"/>
      <path d="M224.73,12.18c1.14,0,2.18-.4,2.99-1.07,1.04-.86,1.71-2.17,1.71-3.63,0-2.6-2.1-4.7-4.7-4.7s-4.7,2.1-4.7,4.7c0,.97.3,1.88.8,2.63.84,1.25,2.27,2.07,3.9,2.07Z"/>
      <path d="M60.47,27.57c-5.42,6.82-6.7,16.44-3.53,24.32,2.29,5.7,6.24,10.02,11.84,12.97,6.27,3.3,14.88,3.49,21.26.69,3.23-1.42,6.03-3.4,8.41-5.93,2.19-2.33,3.98-5.26,5.37-8.78.03-.07.04-.14.04-.21,0,0,0,0,0-.01,0-.05-.02-.1-.03-.14,0-.03,0-.06-.02-.09-.02-.04-.04-.06-.06-.09-.02-.03-.04-.07-.07-.09-.02-.02-.05-.03-.07-.05-.04-.03-.08-.06-.12-.08-.07-.03-.14-.05-.22-.05h-8.77c-.26,0-.5.11-.66.3-1.04,1.19-2.39,3.14-3.79,4.26-9.08,7.24-21.92,2.98-25-8.11,0-.02,0-.04,0-.06,0,0,0,0,0-.01,0-.02,0-.03,0-.05,0-.01,0-.03.01-.04,0-.01.02-.02.02-.04,0-.01.02-.02.03-.03.01,0,.02-.02.03-.02.01,0,.03-.02.04-.02.02,0,.05-.01.08-.01,8.57.05,20.92.06,37.05.02.67,0,1.36.27,1.93.24.2-.01.38-.15.43-.35.31-1.12.45-2.35.41-3.7-.18-5.84-2.01-10.89-5.5-15.15-10.18-12.39-29.1-12.21-39.08.32ZM94.44,37.12s-.03.02-.04.03c0,0-.02.02-.03.02,0,0,0,0-.01,0-.04.02-.07.03-.12.03-1.77-.05-6.48-.07-14.13-.07-7.64,0-12.35.01-14.13.06-.04,0-.08,0-.12-.03,0,0,0,0-.01,0-.01,0-.02-.01-.03-.02-.02-.01-.03-.02-.04-.03-.01-.01-.02-.03-.03-.04,0-.01-.02-.03-.02-.04,0-.02,0-.03-.01-.05,0-.01,0-.02,0-.03,0,0,0,0,0-.01,0-.04,0-.08.03-.12,2.74-5.58,7.95-9.42,14.37-9.42,6.42,0,11.63,3.84,14.36,9.43.02.04.03.08.03.12,0,0,0,0,0,.01,0,.01,0,.02,0,.03,0,.02,0,.04-.01.05,0,.02-.01.03-.02.04,0,.01-.02.03-.03.04Z"/>
      <path d="M209.2,25.57c-13.4-13.53-36.4-8.02-41.94,10.46-.69,2.3-1.01,6.18-.96,11.64.05,6.08.07,10.89.04,14.41-.01,1.84.65,3.23,1.99,4.19,1.76,1.26,5.5.67,7.19.76,0,0,.01,0,.02,0,.02,0,.03,0,.05-.01.02,0,.04,0,.06-.01.02,0,.03-.02.05-.03.02-.01.04-.02.05-.03.01-.01.02-.03.04-.05.01-.02.03-.03.03-.05,0-.02.01-.04.02-.06,0-.02.01-.05.01-.07-.02-13.84-.03-21.31-.02-22.42.03-2.82.2-4.71.51-5.65,4.69-14.02,22.85-15.2,29.22-1.83.09.19.29.32.51.32h9.04c.12,0,.23-.09.24-.22.02-.28-.01-.59-.11-.95-1.08-3.94-3.09-7.4-6.04-10.38Z"/>
      <path d="M285.93,48.56c.04-5.87-.23-9.82-.81-11.86-2.9-10.11-11.16-17.73-21.92-18.5-8.23-.59-15.08,2.01-20.56,7.79-4.59,4.85-6.82,10.67-6.7,17.49.09,4.7.1,10.95.04,18.75-.04,5.24,4.75,4.96,8.88,4.79.23,0,.42-.2.42-.44.08-11.85.11-19.44.1-22.76-.02-5.5,1.87-9.78,5.7-12.84,8.13-6.52,20.01-3.72,24.09,5.97.87,2.08,1.31,4.58,1.29,7.49-.02,3.93-.04,9.51-.08,16.73-.02,4.04,1.85,6.01,5.6,5.9,1.42-.04,2.97.07,3.71-.06.21-.04.35-.22.32-.43-.14-1.11-.17-7.12-.09-18.02Z"/>
      <path d="M340.79,45.04c.02-3.41-.2-6.05-.67-7.92-4.95-19.85-30.25-25.77-43.41-10.19-7.7,9.11-8,21.93-.38,31.31,5.04,6.21,11.66,9.29,19.85,9.26,4.22-.02,8.36-1.03,11.95-3.2,1.49-.9,2.54-1.5,3.16-1.81.02-.01.04-.02.07-.02,0,0,.02,0,.03,0,.02,0,.04.01.05.02.02.01.03.02.04.04.02.03.04.05.04.09.45,8.59-4.61,16.71-13.72,17.77-7.07.82-13.19-2.71-16.41-9.37-.08-.16-.23-.25-.4-.25h-8.88c-.06,0-.12.01-.18.03,0,0-.01,0-.02.01-.04.01-.07.04-.1.06-.03.02-.06.03-.08.06-.03.02-.04.06-.07.09-.02.03-.04.06-.06.09-.01.03-.02.06-.03.1-.01.04-.02.08-.02.12,0,.07,0,.13.03.2,2.76,8.3,7.86,13.91,15.29,16.81,3.1,1.21,6.67.81,13.33.8,1.77,0,3.26-.25,4.48-.74,7.85-3.13,12.95-8.81,15.31-17.02.57-2.01.85-4.07.82-6.18-.06-4.48-.06-11.19-.01-20.14ZM315.8,58.24h0c-8.52,0-15.43-6.91-15.43-15.43h0c0-3.2.97-6.16,2.63-8.63.55-.82,1.19-1.59,1.88-2.28.52-.52,1.08-1.01,1.68-1.45.4-.3.81-.57,1.23-.83.85-.52,1.75-.95,2.7-1.3.24-.09.48-.17.72-.24,1.45-.45,2.99-.69,4.59-.69,2.93,0,5.67.82,8,2.23.21.13.42.26.63.4,1.23.83,2.34,1.84,3.28,2.98.16.19.31.38.46.58.3.4.57.81.83,1.23,1.42,2.33,2.23,5.07,2.23,8,0,8.52-6.91,15.43-15.43,15.43Z"/>
      <path d="M351.2,27.58c-5.42,6.82-6.69,16.45-3.52,24.33,2.29,5.7,6.24,10.02,11.85,12.96,6.28,3.3,14.89,3.49,21.27.68,3.23-1.42,6.03-3.4,8.41-5.94,2.19-2.34,3.98-5.27,5.37-8.79.03-.07.04-.14.04-.21,0,0,0,0,0-.01,0-.05-.02-.1-.03-.14,0-.03,0-.06-.02-.09-.02-.04-.04-.06-.06-.1-.02-.03-.04-.07-.06-.09-.02-.02-.05-.03-.07-.05-.04-.03-.08-.06-.12-.08-.07-.03-.14-.05-.22-.05h-8.77c-.26,0-.5.12-.66.31-1.04,1.19-2.39,3.14-3.79,4.26-9.07,7.25-21.93,3-25.02-8.09,0-.02-.01-.05-.01-.07,0,0,0,0,0,0,0-.02,0-.03.01-.05,0-.01,0-.03.01-.04,0-.01.02-.02.03-.04,0-.01.02-.02.03-.03,0,0,.02-.01.03-.02.01,0,.03-.02.04-.02.03,0,.05-.02.08-.01,8.58.05,20.93.05,37.06,0,.67,0,1.36.27,1.93.24.2-.01.38-.15.43-.35.31-1.12.45-2.35.41-3.7-.18-5.85-2.02-10.9-5.52-15.15-10.2-12.39-29.12-12.2-39.09.34ZM385.12,37.05s-.03.02-.05.03c-.01,0-.02.02-.03.02,0,0,0,0,0,0-.03.01-.07.02-.11.02-1.77-.04-6.46-.05-14.07-.04-7.61.01-12.3.04-14.07.08-.04,0-.08,0-.11-.02,0,0,0,0,0,0-.01,0-.02-.02-.03-.02-.02-.01-.03-.02-.04-.03-.01-.01-.02-.03-.03-.04,0-.01-.02-.03-.03-.04,0-.02,0-.04-.01-.05,0-.01,0-.02,0-.04,0,0,0,0,0,0,0-.04,0-.07.02-.11,2.72-5.56,7.9-9.39,14.29-9.4,6.4-.01,11.59,3.8,14.32,9.36.02.03.02.07.02.11,0,0,0,0,0,0,0,.01,0,.02,0,.04,0,.02,0,.04-.01.06,0,.02-.02.03-.03.04,0,.01-.02.03-.03.04Z"/>
      <path d="M443.86,25.61c-13.39-13.55-36.39-8.05-41.94,10.42-.7,2.3-1.02,6.18-.97,11.64.05,6.08.06,10.89.02,14.41-.02,1.84.64,3.24,1.98,4.2,1.76,1.26,5.5.67,7.19.76,0,0,.01,0,.02,0,.02,0,.03,0,.05-.01.02,0,.04,0,.06-.01.02,0,.03-.02.05-.03.02-.01.04-.02.05-.03.01-.01.02-.03.04-.05.01-.02.03-.03.03-.05,0-.02.01-.04.02-.06,0-.02.01-.05.01-.07-.01-13.84-.01-21.31,0-22.42.03-2.82.21-4.71.52-5.65,4.7-14.01,22.86-15.18,29.22-1.81.09.19.29.32.51.32h9.04c.12.01.23-.08.24-.2.02-.28-.01-.59-.11-.95-1.07-3.94-3.08-7.4-6.02-10.38Z"/>
      <path d="M229.04,18.39h-8.77c-.15,0-.27.12-.27.27.03,21.61.03,35.82,0,42.64-.02,6.38,4.14,5.7,9.07,5.83,0,0,0,0,.01,0,.02,0,.04,0,.07-.01.03,0,.05,0,.07-.02.02,0,.04-.02.06-.04.02-.01.04-.02.06-.04.02-.02.03-.04.04-.06.01-.02.03-.04.04-.06.01-.02.01-.05.02-.07,0-.03.02-.05.02-.08V18.82c0-.24-.19-.43-.43-.43Z"/>
    </g>
  </g>
</svg>