<?xml version="1.0" encoding="UTF-8"?>
<svg id="Layer_2" data-name="Layer 2" xmlns="http://www.w3.org/2000/svg" viewBox="0 0 450 160.14">
  <defs>
    <style>
      .cls-1 {
        fill: #1d1d1d;
      }
    </style>
  </defs>
  <g id="Layer_1-2" data-name="Layer 1">
    <g>
      <path class="cls-1" d="M280.4,99.73s-.05-.07-.07-.1c.02.04.04.07.07.1Z"/>
      <path class="cls-1" d="M358.95,87.63s-.02-.04-.03-.06c.01.02.02.04.03.06Z"/>
      <path class="cls-1" d="M358.37,87.2c-.06-.01-.11-.02-.17-.02.06,0,.11,0,.17.02Z"/>
      <path class="cls-1" d="M244.52,127.34s-.03-.05-.04-.08c.02.02.03.05.04.08Z"/>
      <path class="cls-1" d="M244.12,127.05c.05,0,.1.02.15.04-.01,0-.02-.01-.03-.02-.04-.01-.08-.02-.11-.02Z"/>
      <path class="cls-1" d="M359.03,87.8s-.02-.06-.03-.09c.01.03.02.06.03.09Z"/>
      <path class="cls-1" d="M244.35,127.14s.05.03.07.05c-.02-.02-.04-.04-.07-.05Z"/>
      <path class="cls-1" d="M359,88.37s.02-.06.03-.1c0,.03-.02.07-.03.1Z"/>
      <path class="cls-1" d="M358.93,88.52s.03-.06.04-.08c-.01.03-.03.06-.04.08Z"/>
      <path class="cls-1" d="M372.74,119.06s-.04,0-.06.01c.02,0,.04,0,.06-.01Z"/>
      <path class="cls-1" d="M359.05,88.21s0-.07.01-.11c0,.04,0,.07-.01.11Z"/>
      <path class="cls-1" d="M427.82,79.39s-.06-.04-.09-.07c.03.03.06.05.09.07Z"/>
      <path class="cls-1" d="M428.51,79.56s-.06.01-.09.01c.03,0,.06,0,.09-.01Z"/>
      <path class="cls-1" d="M428.83,79.47s-.02.01-.04.02c0,0,.01,0,.02,0,0,0,.01-.01.02-.01Z"/>
      <path class="cls-1" d="M280.61,99.9s-.08-.05-.12-.08c.02.01.03.03.05.05.02.01.05.02.07.03Z"/>
      <path class="cls-1" d="M372.56,119.15s.04-.03.06-.04c-.02,0-.03.01-.05.03,0,0-.01.01-.02.02Z"/>
      <path class="cls-1" d="M358.77,87.4s.03.02.04.04c0,0,0,0,0,0-.01-.01-.03-.02-.04-.03Z"/>
      <path class="cls-1" d="M372.8,119.06s.04,0,.06.01c-.02,0-.04-.01-.06-.01Z"/>
      <path class="cls-1" d="M359.05,87.87c.01.05.02.11.02.17,0-.06,0-.11-.02-.17Z"/>
      <path class="cls-1" d="M244.54,127.42s.01.06.01.09c0-.03,0-.06-.01-.09Z"/>
      <path class="cls-1" d="M358.53,87.25s-.05-.01-.07-.02c.02,0,.05.01.07.02Z"/>
      <path class="cls-1" d="M273.79,79.21s.06.02.08.03c-.03-.01-.06-.02-.08-.03Z"/>
      <path class="cls-1" d="M273.63,79.12s.06.04.08.05c-.03-.02-.06-.03-.08-.05Z"/>
      <path class="cls-1" d="M273.95,79.28s.05,0,.08.01c-.03,0-.05,0-.08-.01Z"/>
      <path class="cls-1" d="M135.6,60.28s0,.03.01.05c0-.02,0-.03-.01-.05Z"/>
      <path class="cls-1" d="M62.86,86.27s-.05-.02-.08-.03c.03,0,.05.02.08.03Z"/>
      <path class="cls-1" d="M9.49,120.3s-.02.03-.02.05c0-.02.01-.03.02-.05Z"/>
      <path class="cls-1" d="M63.09,86.57s-.03-.07-.05-.1c.02.03.04.06.05.1Z"/>
      <path class="cls-1" d="M274.29,79.3s.06-.01.09-.02c-.03,0-.06.01-.09.02Z"/>
      <path class="cls-1" d="M428.24,79.56s.06,0,.1,0c-.03,0-.06,0-.1,0Z"/>
      <path class="cls-1" d="M427.89,79.44s.06.03.09.04c-.03-.01-.06-.03-.09-.04Z"/>
      <path class="cls-1" d="M372.98,119.12s-.04-.03-.06-.04c.02,0,.04.02.06.04Z"/>
      <path class="cls-1" d="M428.06,79.52s.06.02.09.02c-.03,0-.06-.01-.09-.02Z"/>
      <path class="cls-1" d="M428.61,79.55s.05-.02.08-.03c-.03,0-.05.02-.08.03Z"/>
      <path class="cls-1" d="M280.25,99.37s.01.09.03.13c-.01-.04-.02-.09-.03-.13Z"/>
      <path class="cls-1" d="M427.52,79.03c.05.1.12.19.19.26-.08-.08-.14-.16-.19-.26Z"/>
      <path class="cls-1" d="M274.62,79.19s.04-.03.06-.04c-.02.01-.04.03-.06.04Z"/>
      <path class="cls-1" d="M274.46,79.26s.05-.02.08-.03c-.03.01-.05.02-.08.03Z"/>
      <path class="cls-1" d="M280.68,99.93c.07.03.15.05.23.05-.08,0-.16-.02-.23-.05Z"/>
      <path class="cls-1" d="M358.68,87.33s-.04-.02-.06-.03c.02.01.04.02.06.03Z"/>
      <path class="cls-1" d="M117.21,52.8s-.01-.07-.02-.11c0,.04,0,.07.02.11Z"/>
      <path class="cls-1" d="M117.69,53.19c-.06,0-.12-.02-.18-.04.06.02.12.04.18.04Z"/>
      <path class="cls-1" d="M117.4,53.09s.04.02.06.03c-.03-.02-.06-.04-.09-.07.01.01.02.03.03.04Z"/>
      <path class="cls-1" d="M117.29,52.97s-.04-.05-.05-.08c.01.03.03.06.05.08Z"/>
      <path class="cls-1" d="M66.51,111.16s.01-.03.02-.04c0,.01-.02.02-.02.04Z"/>
      <path class="cls-1" d="M66.5,111.24s0-.03,0-.04c0,.01,0,.03,0,.04Z"/>
      <path class="cls-1" d="M66.55,111.39s0,0,.01.01c-.01-.01-.02-.03-.03-.04,0,0,0,.02.02.03Z"/>
      <path class="cls-1" d="M66.51,111.32s0-.03,0-.04c0,.01,0,.03,0,.04Z"/>
      <path class="cls-1" d="M139.03,8.72s.02.08.02.12c0-.04-.01-.08-.02-.12Z"/>
      <path class="cls-1" d="M138.96,9.23s-.03.04-.04.06c.02-.02.03-.04.04-.06Z"/>
      <path class="cls-1" d="M280.25,99.23s0-.05,0-.07c0,.02,0,.05,0,.07Z"/>
      <path class="cls-1" d="M139.05,8.97s-.01.09-.03.13c.02-.04.02-.09.03-.13Z"/>
      <path class="cls-1" d="M138.97,8.54s-.04-.04-.06-.07c.03.04.06.08.08.12,0-.02,0-.04-.02-.05Z"/>
      <path class="cls-1" d="M138.67,8.27c.08.03.14.08.19.14-.06-.06-.12-.11-.19-.14Z"/>
      <path class="cls-1" d="M117.2,52.58s0-.04.01-.06c0,.02,0,.04-.01.06Z"/>
      <path class="cls-1" d="M307.46,97.37s-.02-.06-.03-.1c0,.03.02.07.03.1Z"/>
      <path class="cls-1" d="M307.41,97.17s0-.03,0-.04c0,.01,0,.03,0,.04Z"/>
      <path class="cls-1" d="M9.46,120.45s0-.03,0-.05c0,.02,0,.03,0,.05Z"/>
      <path class="cls-1" d="M62.93,86.33s.05.04.07.06c-.02-.03-.05-.04-.07-.06Z"/>
      <path class="cls-1" d="M62.5,86.21c.06-.01.12-.01.18,0,0,0,0,0-.01,0-.06,0-.11,0-.16.01Z"/>
      <path class="cls-1" d="M9.49,120.57s-.02-.04-.02-.07c0,.01,0,.03,0,.04,0,0,0,.02.01.03Z"/>
      <path class="cls-1" d="M135.6,60.23s0-.03,0-.05c0,.02,0,.03,0,.05Z"/>
      <path class="cls-1" d="M274.2,79.3s-.06,0-.08,0c.03,0,.06,0,.08,0Z"/>
      <path class="cls-1" d="M135.66,60.41s-.02-.03-.03-.04c0,.01.02.03.03.04Z"/>
      <path class="cls-1" d="M274.87,78.97s-.07.08-.11.12c0,0,0,0,.01,0,.04-.03.07-.07.1-.11Z"/>
      <path class="cls-1" d="M135.77,60.48s-.04-.02-.06-.04c0,0,.01.01.02.02.01,0,.03.01.04.02Z"/>
      <path class="cls-1" d="M307.71,97.61s.03,0,.04.01c-.03-.01-.06-.03-.09-.05.02.01.03.03.05.04Z"/>
      <path class="cls-1" d="M307.97,97.65c-.06,0-.12,0-.18-.01.06.01.12.02.18.01Z"/>
      <path class="cls-1" d="M307.57,97.52s-.04-.05-.06-.07c.02.03.04.05.06.07Z"/>
      <path class="cls-1" d="M9.52,120.26s.03-.02.04-.04c-.01.01-.03.02-.04.04Z"/>
      <path class="cls-1" d="M11.3,132.61c9.15,2.36,18.02.38,26.26-3.84,6.13-3.14,11.97-6.75,17.53-10.84.54-.39,1.27-.38,1.8.02,9.76,7.56,19.32,11.67,31.35,11.55,11.43-.12,22.35-3.18,31.68-9.73,5.73-4.02,10.67-8.43,14.82-13.23,5.32-6.16,9.13-13.47,12.42-20.99.07-.15.22-.25.39-.26,4.31-.19,8.8-.23,13.48-.12,1.6.04,1.92,1.85,1.09,2.95-5.04,6.69-8.49,11.34-10.36,13.93-3.84,5.33-6.47,9.86-5.04,16.49,1.06,4.93,5.61,7.21,10.18,8.25,5.31,1.21,10.56,1.36,15.71-.38,3.01-1.02,6.53-3.44,9.23-4.57,1.9-.8,2.75-.37,4.09,1.27.98,1.2,2.37,2.13,4.16,2.78,9.31,3.37,19.64,1.76,26.87-5.13.59-.57,1.46-.68,2.59-.34.16.05.3.13.42.25,4.68,4.5,10.37,6.61,17.08,6.33,2.37-.1,4.73-.08,7.09.04.04,0,.08.01.11.02.01,0,.02.01.03.02.03.01.06.03.08.05.02.02.05.03.07.05.02.02.04.05.05.07.02.02.03.05.04.08.01.03.02.05.02.08,0,.03.01.06.01.09,0,.05,0,.1-.02.15-.59,1.81-1.53,3.58-2.82,5.33-4.06,5.52-8.41,10.08-13.04,13.67-3.39,2.63-8.33,5.68-12.51,5.35-1.69-.13-4.04-.54-7.04-1.22-.89-.2-1.64-.61-2.24-1.23-.52-.53-.52-1.37-.02-1.91.52-.55.83-.89.92-1,.84-1.02.96-2.88.56-3.97-.07-.18-.19-.34-.35-.44-.83-.57-1.63-.89-2.4-.96-2.38-.23-6.69.69-7.32,3.61-1.45,6.64,2.42,12.51,8.78,14.2,4.61,1.22,9.43,1.39,14.45.51,8.58-1.51,16.66-6.56,23.63-12.3,1.85-1.53,3.79-3.55,5.8-6.07,7.28-9.1,14-18.64,21.16-29.08.36-.53.96-.84,1.6-.84h6.8c.21,0,.39.15.42.36.33,2.19.78,4.12,1.36,5.78,2.58,7.37,12.31,10.49,19.28,10.92,10.97.68,23.53-2.11,31.47-10.26,4.08-4.2,7.85-9.11,11.31-14.72,4.64-7.54,7.62-12.5,8.94-14.87.45-.81,1.3-1.31,2.23-1.31h2.69c.06,0,.11,0,.17.02.03,0,.06.02.09.03.02,0,.05.01.07.02.03.01.06.03.09.05.02.01.04.02.06.03.03.02.06.05.09.07.01.01.03.02.04.03,0,0,0,0,0,0,.04.04.08.08.11.13.01.02.02.04.03.06.02.03.03.06.05.09.01.03.02.06.03.09,0,.02.02.05.02.07.01.06.02.11.02.17,0,.02,0,.04,0,.06,0,.04,0,.07-.01.11,0,.02-.01.04-.02.06,0,.03-.02.07-.03.1,0,.02-.02.04-.03.06-.01.03-.03.06-.04.08-.03.05-.07.09-.11.13-4.47,4.57-8.53,9.49-12.17,14.75-3.59,5.19-7.78,12.8-4.05,18.71,2.94,4.65,9.52,6.41,14.66,5.37,5.91-1.19,11.01-3.96,15.3-8.32,0,0,.01-.01.02-.02.01-.01.03-.02.05-.03.02-.01.04-.02.06-.03.02,0,.04,0,.06-.01.02,0,.04,0,.06,0,.02,0,.04,0,.06.01.02,0,.04,0,.06.02.02,0,.04.02.06.04.02.01.04.03.06.05.56.65,1.06,1.31,1.5,1.97,1.72,2.59,4.29,4.36,7.3,5.21,7.95,2.24,16.63,1.27,23.33-3.83.44-.33,1.15-.52,2.12-.56.18,0,.35.09.45.24.2.33.42.75.67,1.26,1,2.03,2.75,3.26,5.25,3.7.5.09,3.31.15,8.45.2.69,0,1.63.03,2.82.07,2.4.09,5-.42,7.78-1.54,6.19-2.47,11.57-5.86,15.66-10.8,1.19-1.43,1.73-2.92,1.63-4.48-.06-.9-.4-1.58-1.02-2.03-3.49-2.57-8.62,2.56-12.31,5.48-1.78,1.41-4.13,2.54-7.03,3.4-2.23.66-3.8.33-5.57-1.06-.19-.15-.28-.4-.23-.64.17-.77.43-1.42.79-1.96,4.69-6.98,12.8-19.17,24.34-36.57.74-1.11.49-1.98-.74-2.59-.14-.07-.29-.1-.44-.1-4.82.06-9.01.03-12.59-.09-.92-.03-1.78.2-2.34.82-.25.27-1.51,1.61-3.78,4-.07.08-.16.14-.26.19,0,0-.01.01-.02.01,0,0-.01,0-.02,0-.03.02-.07.03-.1.04-.03,0-.05.02-.08.03-.03,0-.06,0-.09.01-.03,0-.06.01-.09.01-.03,0-.06,0-.09,0-.03,0-.06,0-.1,0-.03,0-.06-.01-.09-.02-.03,0-.06-.01-.09-.02-.03-.01-.06-.03-.08-.04-.03-.01-.06-.03-.09-.04-.02-.01-.04-.03-.07-.05-.03-.02-.06-.04-.09-.07,0,0-.02-.02-.03-.03-.07-.07-.14-.16-.19-.26-3.21-6.66-9.59-6.74-15.85-4.64-7.9,2.65-15.81,7.1-21.97,11.89-5.48,4.26-9.48,9.63-13.39,15.31-3.47,5.05-7.15,8.65-11.64,12.3-1.28,1.04-2.41,1.66-3.39,1.84-1.39.26-4.57.36-5.25-1.36-1.2-3-1.13-5.66.47-8.6.97-1.78,1.93-3.27,2.88-4.47,6.61-8.33,13.97-16.37,22.1-24.11.66-.63.73-1.61-.23-2.02-.63-.27-1.33-.33-2.12-.15-9.13,1.97-19.05,4.51-27.72.25-1.06-.52-1.79-.35-2.32.68-2.46,4.74-4.71,8.98-6.75,12.72-3.74,6.83-8.04,12.95-12.9,18.35-5.8,6.46-15.3,13.54-24.03,11.75-2.56-.53-5.35-2.47-4.86-5.45.17-1.02.33-1.89.5-2.6.13-.59.6-1.06,1.19-1.19,14.57-3.29,27.02-9.85,36.35-21.62,1.64-2.07,2.96-5.84,1.98-8.58-3.02-8.4-15.65-7.7-22.51-5.99-4.54,1.13-8.72,2.96-12.54,5.49-7.99,5.28-15.25,12.34-20.29,20.46-.27.43-.74.69-1.25.69h-3.06c-.08,0-.16-.02-.23-.05-.02,0-.04-.02-.06-.03-.02-.01-.05-.02-.07-.03-.02-.01-.03-.03-.05-.05-.04-.03-.07-.06-.1-.1-.03-.03-.05-.07-.07-.1-.02-.04-.04-.08-.05-.12-.01-.04-.02-.09-.03-.13,0-.05,0-.09,0-.14,0-.02,0-.05,0-.07.02-.08.04-.15.09-.22,1.96-3.01,6.48-9.78,13.56-20.32,1.04-1.55,1.6-2.76.52-4.3-.33-.48-.86-.7-1.58-.67-3.63.16-7.37.15-11.21-.03-1.19-.05-2.33.34-3.42,1.19-.04.03-.07.06-.09.09l-3.24,4.06s-.07.08-.1.11c0,0,0,0-.01,0-.03.02-.05.04-.08.06-.02.01-.04.03-.06.04-.03.02-.06.03-.08.04-.03.01-.05.02-.08.03-.03,0-.05.01-.08.02-.03,0-.06.01-.09.02-.03,0-.06,0-.09,0s-.06,0-.08,0c-.03,0-.06,0-.09-.01-.03,0-.06,0-.08-.01-.03,0-.05-.02-.08-.03-.03-.01-.06-.02-.08-.03-.02-.01-.04-.03-.07-.04-.03-.02-.06-.03-.08-.05-.04-.03-.08-.07-.12-.11-1.8-2.01-2.63-4.75-5.64-5.51-3.44-.87-6.86-.82-10.27.16-10.96,3.16-19.51,9.09-26.92,17.57-4.95,5.66-11.34,13.75-17.35,20.46-2.92,3.25-6.44,5.45-10.92,4.9-5.28-.65.33-9.09,1.94-11.49,2.74-4.08,8.96-13.31,18.67-27.7.32-.47.3-1.1-.05-1.54-.69-.89-1.72-.86-2.86-.87-5.46-.02-9.66-.03-12.61,0-.72,0-1.39.37-1.8.97-6.88,10.29-13.33,19.75-19.36,28.36-3.53,5.05-7.51,8.92-13.07,11.49-1.17.53-3.84,1.16-4.93.79-5.12-1.75-2.47-6.14-.51-9.14,6.02-9.15,12.68-19.11,19.99-29.89.33-.48.31-1.1-.03-1.51-.73-.87-1.7-1.08-2.9-1.08-20.99,0-32.66.01-34.99.01-2.49,0-2.58-1.65-3.62-4.12-2.09-4.97-5.6-8.43-10.53-10.38-.01,0-.03-.01-.04-.02,0,0-.01-.01-.02-.02-.01-.01-.03-.02-.04-.04-.01-.01-.02-.03-.03-.04,0-.01-.02-.03-.02-.04,0-.02,0-.03-.01-.05,0-.02,0-.03,0-.05,0-.02,0-.03,0-.05,0-.02.01-.05.02-.07.06-.11.15-.19.27-.24,9.8-4.04,18.59-9.34,26.39-15.9,7.9-6.65,14.39-15.93,13.93-26.22-.14-3.19-1.24-6.01-3.3-8.47-5.12-6.09-13.68-7.82-21.2-8.79-2.36-.31-4.83-.47-7.4-.49-4.84-.03-10.77.28-17.79.95-18.61,1.75-36.17,6.19-52.68,13.34-13.71,5.93-25.94,12.84-36.7,20.74-8.84,6.49-15.73,14.64-20.65,24.45-2.07,4.11-3.25,8.16-3.56,12.15-.66,8.53,2.98,14.21,10.93,17.03,2.17.77,4.34,1.24,6.51,1.43,7.06.59,14.04.14,20.96-1.34,4.14-.89,7.86-1.73,11.15-2.53.05-.01.11-.02.16-.01,0,0,0,0,.01,0,.04,0,.07.02.1.03.03.01.05.02.08.03.03.02.05.04.07.06.02.02.05.04.07.06.02.02.03.05.04.07.02.03.04.06.05.1.02.06.02.12.02.18l-.07.65c-.01.1-.05.19-.11.27-6.06,8.3-12.53,15.8-19.4,22.49-4.37,4.26-8.94,7.75-13.69,10.49-5.45,3.14-16.17,7.15-20.35-.07,0,0,0-.02-.01-.03,0-.01,0-.03,0-.04,0-.02-.01-.04-.01-.05,0-.02,0-.03,0-.05,0-.02,0-.03,0-.05s.01-.03.02-.05c0-.02.02-.03.03-.04.01-.01.03-.02.04-.04.02-.01.03-.03.06-.04,3.14-1.36,2.51-4.25.12-5.78-.85-.54-2-.74-3.45-.6-3.72.34-6.9,3.64-6.19,7.51,1.04,5.71,5.68,9.87,11.2,11.29ZM396.09,103.03c3.32-5.33,7.07-10.12,11.26-14.37,2.17-2.2,4.63-3.76,7.38-4.67,3.64-1.21,5.85.79,5.37,4.62-.54,4.42-2.12,6.26-5.02,10.2-3.23,4.4-6.8,8.75-10.69,13.05-2.44,2.7-6.45,6.66-9.85,4.38-4.61-3.08-.52-9.91,1.54-13.22ZM307.44,96.96c2.06-5.11,5.21-9.42,9.45-12.93,2.68-2.22,5.66-3.4,8.94-3.54.93-.04,2.15.13,2.85.85,2.55,2.64-1.07,6.52-3.24,8.08-3.52,2.53-7.78,4.85-12.8,6.96-1.51.63-3.07,1.06-4.67,1.27-.06,0-.12,0-.18-.01-.01,0-.03,0-.04-.01-.01,0-.03,0-.04-.01-.02,0-.03-.02-.05-.04-.03-.02-.06-.03-.09-.06-.02-.02-.04-.05-.06-.07-.02-.03-.04-.05-.05-.08-.02-.03-.02-.06-.03-.1,0-.02-.02-.04-.02-.06,0-.01,0-.03,0-.04,0-.01,0-.03,0-.04,0-.06.01-.12.03-.17ZM238.74,112.1c.14-3.63,1.51-6.82,3.76-10,3.32-4.69,6.99-8.98,11.02-12.88,1.77-1.71,3.77-3.28,5.99-4.7,2.2-1.41,5.44-1.62,6.53,1.19.71,1.84-1.08,5.88-2.14,7.9-3.03,5.77-6.65,11.23-10.86,16.37-2.55,3.11-6.32,6.79-10.42,7.22-3.26.34-3.98-2.5-3.88-5.09ZM116.32,100.67c-10.62,10.02-23.25,18.91-38.39,16.25-4.31-.76-8.1-2.59-11.36-5.51,0,0,0,0-.01-.01,0,0-.01-.02-.02-.03,0-.01-.02-.02-.02-.04,0-.01,0-.03,0-.04,0-.01,0-.03,0-.04,0-.01,0-.03,0-.04,0-.01,0-.03,0-.04,0-.01.01-.03.02-.04,0,0,0-.02.02-.03,0,0,0,0,.01-.01,14.76-13.73,27.64-28.97,40.35-44.96.44-.56,1.12-.88,1.83-.88,2.82.02,5.29-.04,7.39-.16,2.18-.13,4.29.26,6.34,1.17,3.15,1.39,4.1,3.74,4.3,7.26.55,9.77-3.2,20.32-10.45,27.16ZM153.2,11.47c.48-.37.99-.63,1.53-.76.2-.05.41-.02.58.09,1.5.94,2.43,1.86,2.79,2.76,3.2,8.09-.83,17.56-6.82,23.41-7.28,7.12-17.25,13.23-27.32,15.64-1.97.47-4.07.66-6.28.58-.06,0-.12-.02-.18-.04-.02,0-.03-.02-.05-.03-.02-.01-.04-.02-.06-.03-.01-.01-.02-.02-.03-.04-.03-.02-.05-.05-.07-.08-.02-.03-.04-.05-.05-.08-.01-.03-.02-.06-.03-.09,0-.04-.01-.07-.02-.11,0-.02,0-.03,0-.05,0-.02,0-.04.01-.06,0-.02,0-.04.01-.06.02-.06.04-.12.08-.17,7.26-9.76,14.39-18.74,21.4-26.94,4.54-5.31,9.38-9.96,14.52-13.94ZM49.32,76.2c-2.8.02-4.9-.2-6.33-.68-4.8-1.62-7.2-5.21-7.22-10.78-.02-7.49,3.96-14.03,9.27-19.46,4.14-4.23,8.79-8.02,13.98-11.39,15.06-9.78,31.93-16.33,49.54-20.98,9.82-2.59,19.68-4.17,29.6-4.75.17-.01.34.02.51.1.07.03.14.08.19.14.02.02.03.04.05.06.02.02.04.04.06.07.01.02.01.04.02.05.02.04.03.08.05.13.01.04.02.08.02.12,0,.04,0,.08,0,.12,0,.05-.01.09-.03.13,0,.02,0,.04-.01.06-.01.03-.03.05-.05.07-.01.02-.02.04-.04.06-.05.06-.11.12-.18.16-12.02,7.24-23.51,15.55-33.22,25.66-.89.93-4.64,5.27-11.27,13.03-2.49,2.91-6.37,7.45-11.64,13.61-2.84,3.32-5.34,6.88-7.54,9.56-1.33,1.63-2.97,2.6-4.93,2.91-8.07,1.29-13.92,1.91-20.84,1.98Z"/>
    </g>
  </g>
</svg>