<?xml version="1.0" encoding="UTF-8"?>
<svg id="Layer_2" data-name="Layer 2" xmlns="http://www.w3.org/2000/svg" viewBox="0 0 422.49 137.09">
  <g id="Layer_1-2" data-name="Layer 1">
    <g>
      <path d="M0,125.05s0,0,0,0c0-.02,0-.04,0-.05,0,.02,0,.03,0,.05Z"/>
      <path d="M236.07,115.64s-.02,0-.03,0c.02,0,.04.01.05.02,0,0-.01-.01-.02-.02Z"/>
      <path d="M304.19,124.57h0c-.05,0-.1-.01-.15-.03.05.02.1.03.15.03Z"/>
      <path d="M96.68,104.32s0-.05,0-.08c0,.04,0,.07,0,.11,0-.01,0-.02,0-.03Z"/>
      <path d="M244.53,28.64s.04-.04.05-.05c-.02.02-.04.04-.07.06,0,0,.01,0,.02,0Z"/>
      <path d="M197.31,103.5s0-.02,0-.02c0,.02,0,.05-.02.07,0-.02.02-.03.02-.04Z"/>
      <path d="M96.65,113.73s-.02,0-.03,0c.03,0,.05.02.07.03-.01,0-.02-.02-.04-.03Z"/>
      <path d="M120.59,94.19s-.01,0-.02,0c.06,0,.12.02.17.04-.05-.01-.1-.03-.15-.03Z"/>
      <path d="M128.16,94.75s0,0,0,.01c0-.04.01-.07.02-.11,0,.03-.02.06-.02.1Z"/>
      <path d="M135.25,96.83c-.05,0-.1,0-.16,0,.03,0,.06.02.09.02.02,0,.04,0,.07,0Z"/>
      <path d="M97.94,101.19s0,.01,0,.02c0-.03,0-.06.01-.09,0,.03-.02.05-.02.07Z"/>
      <path d="M128.38,137.09h0s-.07-.02-.1-.04c.03.03.06.04.1.04Z"/>
      <path d="M115.13,95.03s0,.03,0,.04c0-.07.02-.12.03-.19,0,.05-.03.09-.03.14Z"/>
      <path d="M166.9,115.68s0,.02,0,.04c0-.03,0-.06.01-.1,0,.02-.01.04-.01.06Z"/>
      <path d="M228.48,86.61c.1-.06.22-.15.33-.27,0,0,0,0,0,0,.2-.21.34-.43.35-.56-.02.13-.15.35-.35.56-.11.12-.23.2-.33.27Z"/>
      <path d="M229.14,85.68c-.09-.09-.38.06-.66.34,0,0,0,0,0,0-.06.06-.11.12-.15.18.05-.06.09-.12.15-.18.27-.28.57-.43.66-.34Z"/>
      <path d="M228.19,84.36s-.01.03-.02.04c0-.02.01-.03.03-.05,0,0,0,0-.01,0Z"/>
      <path d="M229.92,85.12c.05-.04.11-.08.17-.13.07-.06.13-.12.19-.17-.06.06-.12.12-.19.17-.06.05-.11.09-.17.13Z"/>
      <path d="M229.62,86.13c.05.06.12.13.19.2.21.2.43.33.56.35-.13-.02-.34-.15-.56-.35-.07-.07-.13-.13-.19-.2Z"/>
      <path d="M58.47,115.67s-.03,0-.04,0c.02,0,.04.01.06.02,0,0,0-.01-.01-.01Z"/>
      <path d="M199.94,58.22s.02,0,.02,0c-.03,0-.05,0-.08,0,.02,0,.04.01.06.01Z"/>
      <path d="M229.54,85.68c.13.02.34.15.56.35.28.26.44.55.36.63t0,0c.08-.08-.08-.37-.36-.63-.21-.2-.43-.33-.56-.35Z"/>
      <path d="M134.45,121.96s.01,0,.01,0c0,0,0,0,0,0,0,0,0,0,0,0Z"/>
      <path d="M230.28,84.81c.12-.12.2-.24.22-.32-.02.08-.1.2-.22.32Z"/>
      <path d="M121.04,82.74h-5.56c-.08,0-.15.02-.2.07.05-.05.12-.08.2-.08h5.56Z"/>
      <path d="M115.26,82.84s-.06.1-.06.17v6.06s0-6.06,0-6.06c0-.06.03-.12.06-.17Z"/>
      <path d="M229.92,85.12c-.11.08-.21.13-.3.16.09-.03.19-.09.3-.16Z"/>
      <path d="M230.5,84.49s.01-.07,0-.1c-.01-.02-.04-.02-.07-.02.03,0,.06,0,.07.02.02.02.02.05,0,.1Z"/>
      <path d="M121.04,82.74h0s.01,0,.02,0c0,0-.01,0-.02,0Z"/>
      <path d="M222.83,44.53s-.01-.01-.02-.02c.01.02.03.05.04.07,0-.02,0-.04-.02-.05Z"/>
      <path d="M199.53,31.56s0,.02,0,.02c.01-.02.03-.05.04-.07-.01.02-.03.02-.04.04Z"/>
      <path d="M230.16,84.46c-.1.06-.21.13-.33.22-.07.06-.14.13-.2.19.06-.06.13-.12.2-.19.12-.1.23-.17.33-.22Z"/>
      <path d="M374.87,124.5c.16-.07.28-.23.28-.42h0c0,.19-.11.35-.28.42Z"/>
      <path d="M374.67,90.22h0s.02,0,.04,0c-.01,0-.02,0-.04,0Z"/>
      <path d="M268.8,90.61s0,0,0,0c0,0,0-.02,0-.03,0,0,0,.02,0,.03Z"/>
      <path d="M209.03,106.76s.03,0,.05,0c-.03,0-.06-.02-.09-.04.01,0,.02.03.04.03Z"/>
      <path d="M208.57,111.92s.01-.07.02-.1c0,.02-.03.04-.03.06,0,.02,0,.03,0,.05Z"/>
      <path d="M301.15,90.21s0,0,0,0c.02,0,.04.03.06.04-.02-.01-.03-.03-.05-.04Z"/>
      <path d="M314.54,122.47s0,0,.01,0c-.03,0-.06,0-.08-.01.02,0,.05.01.07.01Z"/>
      <polygon points="285.26 120.89 285.27 120.89 285.26 120.89 285.26 120.89"/>
      <path d="M230.49,106.52s0-.03,0-.05c0,.03,0,.06-.01.09,0-.02.02-.03.02-.05Z"/>
      <path d="M174.32,71.85c2.67,2.49,5.57,5.2,8.86,7.08,5.25,3.01,11.1,4.96,17.53,5.86,1.31.19,2.46.21,3.46.08.05,0,.09-.05.09-.09s-.04-.08-.09-.08c-2.83-.27-5.97-.98-9.41-2.11-7.59-2.49-13.65-7.06-18.52-13.01-9.16-11.18-11.13-26.46-5.94-39.96,4.08-10.62,13.66-19.39,24.33-22.97,11.7-3.92,23.73-2.47,34.2,3.98,6.87,4.23,12.02,10.21,15.43,17.93.02.04.06.07.11.09.01,0,.03,0,.04,0,.03,0,.05.01.07,0,0,0,0,0,.02-.01.03-.01.05-.03.07-.06.01-.01.02-.02.03-.03.02-.04.03-.09.02-.14-.37-1.22-.82-2.36-1.34-3.41-2.3-4.56-4.38-8.64-7.91-11.95-3.24-3.05-5.79-5.18-7.65-6.39-2.54-1.65-5.7-3.14-9.47-4.45-18.34-6.4-40.2,1.54-49.81,18.38-7.11,12.47-8,25.25-2.67,38.32,2.18,5.35,5.02,9.66,8.53,12.94Z"/>
      <path d="M222.81,44.52c-.04-.06-.09-.12-.16-.16l-22.46-12.96c-.07-.04-.15-.06-.22-.06,0,0-.02,0-.02,0-.02,0-.04,0-.06.01-.03,0-.06,0-.1.02-.03.01-.06.02-.08.04-.03.02-.05.03-.07.05-.03.02-.05.05-.07.07-.02.02-.03.04-.04.07-.04.07-.06.14-.06.22v25.93c0,.08.02.16.06.22,0,0,0,.02,0,.02,0,.02.03.03.04.04.02.03.04.05.07.07.02.02.05.04.07.05.03.02.05.03.08.04.03.01.06.02.1.02.03,0,.05,0,.08,0,.08,0,.15-.02.22-.06l22.46-12.96c.07-.04.12-.1.16-.16,0,0,.01-.01.02-.02,0-.02.01-.04.02-.05.01-.03.02-.06.03-.09,0-.03,0-.06,0-.09,0-.03,0-.06,0-.09,0-.03-.02-.06-.03-.09-.01-.02-.02-.05-.04-.07Z"/>
      <path d="M108.25,83.01c0-.15-.12-.26-.26-.26h-5.55c-.15,0-.26.12-.26.26l.02,17.28.08,4.52-.09,20.23c0,.12.1.22.22.22h5.59c.13,0,.23-.1.23-.23l-.1-20.96.12-4.61v-16.45Z"/>
      <path d="M115.27,89.27c.05.05.12.08.2.08h5.56c.12,0,.21-.06.26-.16.01-.03.02-.07.02-.11v-6.06s.01,0,.01,0c0,0,0-.01,0-.02,0-.09-.06-.17-.14-.22-.03-.02-.07-.03-.11-.04,0,0-.01,0-.02,0h-5.56c-.08,0-.15.02-.2.07,0,0-.01.02-.02.03-.04.05-.06.1-.06.17v6.06s-.01,0-.01,0c0,0,0,.01,0,.02,0,.07.03.13.08.18Z"/>
      <path d="M228.91,85.43c.09-.04.13-.15.09-.24-.12-.37-.33-.65-.65-.84-.02-.02-.05-.03-.08-.02,0,0-.02,0-.02,0-.01,0-.03,0-.04.01,0,0,0,0,0,.01-.01.01-.02.03-.03.05,0,0,0,.01,0,.02,0,.03,0,.05.02.08l.48.84c.04.09.15.13.24.09Z"/>
      <path d="M230.5,84.39s-.04-.02-.07-.02c-.03,0-.07.01-.11.02-.05.02-.1.04-.16.07-.1.06-.21.13-.33.22-.07.06-.14.13-.2.19s-.11.12-.14.18c-.07.11-.1.2-.07.24.02.02.05.03.09.03.03,0,.07-.01.11-.03.09-.03.19-.09.3-.16.05-.04.11-.08.17-.13.07-.06.13-.12.19-.17,0,0,0,0,.01-.01.12-.12.2-.24.22-.32.01-.04.01-.07,0-.1Z"/>
      <path d="M228.15,86.69c.05.05.18.01.32-.08.1-.06.22-.15.33-.27.2-.21.34-.43.35-.56,0-.04,0-.08-.03-.1-.09-.09-.38.06-.66.34-.06.06-.11.12-.15.18-.17.22-.25.42-.17.49Z"/>
      <path d="M230.1,86.02c-.21-.2-.43-.33-.56-.35-.04,0-.08,0-.1.02s-.02.05-.02.1c0,.04.03.09.06.15s.08.12.13.18c.05.06.12.13.19.2.21.2.43.33.56.35.04,0,.08,0,.1-.02.08-.08-.08-.37-.36-.63Z"/>
      <path d="M408.82,120.06c4.76-5.89,5.99-12.2,3.7-18.95-.79-2.32-1.88-4.28-3.28-5.87-5.52-6.28-16.14-7.47-23.34-3.45-6.74,3.77-9.45,11.93-8.23,19.4l.84,2.86c1.39,3.94,3.73,6.84,7.04,8.69,5.71,3.2,14.55,3.69,20.33-.28.82-.56,1.58-1.11,2.28-1.65.26-.42.48-.67.65-.75ZM406.15,119.18c-.37.33-.75.64-1.14.94-2.17,1.62-4.72,2.66-7.4,3.02-6.65.89-13.14-2.49-16.22-8.45-.45-.87-.82-1.78-1.11-2.72-1.87-6.25.26-13.01,5.38-17.05,5.27-4.16,12.58-4.55,18.27-.99,6.14,3.84,8.9,11.35,6.72,18.25-.85,2.69-2.4,5.1-4.49,6.99Z"/>
      <path d="M301.43,90.93c.03-.07.05-.14.05-.21,0,0,0,0,0,0,0-.02-.01-.04-.01-.07,0-.05-.01-.09-.03-.14-.01-.03-.04-.06-.06-.09-.02-.03-.03-.06-.06-.09-.03-.03-.08-.06-.12-.08-.02-.01-.04-.03-.06-.04-.07-.03-.14-.05-.22-.05h-1.17c-.5,0-.95.29-1.16.75l-3.01,6.67-1.85,4.38-8.35,18.81c-.03.06-.07.1-.12.12,0,0,0,0,0,0,0,0,0,0,0,0-.02,0-.04,0-.06.01-.01,0-.02,0-.04,0-.01,0-.02,0-.04,0-.02,0-.04,0-.06-.01,0,0,0,0,0,0,0,0,0,0,0,0-.05-.03-.1-.07-.12-.12l-8.92-20.19-2.24-5.13-2.17-4.74c-.13-.28-.4-.45-.71-.45h-1.73c-.05,0-.1.01-.14.03,0,0,0,0,0,0,0,0-.01,0-.02.01-.04.02-.07.04-.1.07-.02.02-.03.04-.04.06-.01.02-.03.04-.04.06-.01.04-.02.07-.02.11,0,0,0,.02,0,.03,0,.05.01.1.03.14l2.03,4.45,2.24,5.25,10.52,23.59c.14.32.46.53.82.53h1.48c.33,0,.62-.19.75-.49l9.76-21.89,1.96-4.47,3.02-6.81Z"/>
      <path d="M306.27,90.61c0-.22-.18-.4-.4-.4h-1.69c-.22,0-.4.18-.4.4v7.7s.02,4.54.02,4.54v21.32c.01.16.11.3.25.36.05.02.1.03.15.03h1.71c.21,0,.38-.17.38-.38l-.03-20.97.03-4.58-.02-8.02Z"/>
      <path d="M343.24,104.07c-.2-.05-.32-.26-.37-.65-.78-6.23-3.61-10.26-8.48-12.11-2.28-.86-5.98-1.23-11.1-1.12-.17,0-3.92.02-11.24.05-.12,0-.22.11-.22.23l-.03,8.77-.02,4.56v20.43c-.01.18.13.33.31.33,6.59-.03,10.21-.03,10.85,0,9.17.37,16.59-1.21,19.36-10.69.53-1.82.65-4.05.94-6.08-.58-1.63-.58-2.86,0-3.71ZM340.64,107.37c.13,7.75-2.71,12.52-8.53,14.31-2.06.64-5.04.9-8.94.79-2.9-.08-5.77-.08-8.62,0,0,0,0,0-.01,0-.03,0-.05-.01-.07-.01-.03,0-.05,0-.08-.02-.02,0-.04-.03-.07-.04-.02-.01-.04-.02-.06-.04-.02-.02-.03-.04-.04-.06-.01-.02-.03-.04-.04-.06-.01-.02-.01-.05-.02-.08,0-.02-.02-.05-.02-.07,0,0,0,0,0-.01v-17.99s.03-4.58.03-4.58l-.04-6.77c0-.05.01-.11.03-.15.02-.05.05-.09.09-.13s.08-.07.13-.09c.05-.02.1-.03.15-.03,2.65,0,5.29-.01,7.93-.03,8.82-.07,16.04.41,18,11.11.44.97.51,2.29.2,3.96Z"/>
      <path d="M350.37,92.59s0-.07.02-.1c.04-.09.13-.16.24-.16h24.03c.27,0,.48-.22.48-.49v-1.15h0c0-.24-.19-.44-.43-.46-.01,0-.02,0-.04,0h-26.45c-.2,0-.36.16-.36.36v14.2s.08,3.59.08,3.59l-.07,15.68c0,.13.05.25.14.34.09.09.21.14.34.14h26.34c.06,0,.12-.01.18-.04.16-.07.28-.23.28-.42v-1.19h0c0-.06-.01-.12-.04-.17-.07-.16-.23-.27-.41-.27h-24c-.13,0-.25-.08-.3-.2-.02-.04-.03-.08-.03-.12l.03-13.15-.02-3.7-.03-12.69Z"/>
      <path d="M59.23,108.13c-.4-3.98-1.77-7.25-4.1-9.82-7.91-8.74-25.91-6.31-29.74,5.55-1.34,4.18-1.24,8.36.3,12.56l.53,1.59c.46.55.96,1.19,1.49,1.93,4.93,6.88,16.14,7.91,23.14,4.4,3.47-1.75,6.03-4.59,7.68-8.53,0-.01,0-.03,0-.04,0,0,0-.01,0-.02,0-.01,0-.02-.02-.04,0-.01-.02-.02-.03-.03-.02-.01-.03-.02-.06-.02h-6.09c-.11,0-.22.06-.27.16-4.14,7.17-14.45,6.97-19.36.68-.44-.51-.78-1.12-1.02-1.83-.86-2.46-1.1-4.8-.73-7.03.87-5.22,3.96-8.28,9.25-9.16,7.14-1.19,12.89,3.48,12.9,10.8l1.12,2.77,4.97-.93c.2-1.19.21-2.18.03-2.98Z"/>
      <path d="M96.74,113.79s-.03-.02-.05-.03c-.02-.01-.04-.03-.07-.03h-6.14c-.12,0-.23.08-.25.2-.42,2.25-1.46,4.06-3.12,5.41-2.81,2.29-7.98,2.3-11.12.87-2.59-1.17-4.29-3.13-5.11-5.86-1.64-5.44-.58-12.8,5.25-15.14,4.9-1.96,12.68-1.11,13.98,5.07.05.22.25.38.47.38h5.75s.05,0,.08,0c.01,0,.02,0,.03-.01.02,0,.04-.02.06-.03.02-.01.04-.02.05-.04.02-.01.03-.03.04-.05.01-.02.03-.04.04-.06.01-.02.02-.04.02-.06,0-.02.01-.05.01-.07,0-.04,0-.07,0-.11-1.76-7.59-7.48-10.64-14.91-11.07-7.63-.45-14.66,3-17.05,10.49-1.53,4.76-1.27,10.57,1.16,15.04,2.5,4.6,6.92,7.11,13.28,7.54,9.52.65,15.4-3.46,17.63-12.33,0-.01,0-.02,0-.03,0-.02-.01-.03-.02-.04,0-.02,0-.04-.02-.05Z"/>
      <path d="M188.39,93.5c-4.93-.56-9.53-.38-13.81.53-2.69,1.63-4.69,3.42-5.98,5.38-1.33,4.74-.39,8.16,2.81,10.26,1.6,1.05,4.21,1.8,7.84,2.24,4.24.52,10.25.72,11.97,2.89,2.06,2.63-.77,5.41-3.34,6.07-4.78,1.22-14.22,1.34-14.95-5.18-.03-.24-.23-.41-.46-.41h-5.16s-.02,0-.04,0c-.02,0-.04.01-.06.02-.03,0-.05.01-.07.02-.02.01-.04.03-.06.04-.02.02-.04.03-.06.05-.02.02-.03.04-.04.06-.01.02-.03.04-.04.07,0,.02-.01.05-.02.08,0,.03-.01.06-.01.1.47,4.81,2.88,7.91,7.22,9.32,6.77,2.2,21.76,2.66,23.9-6.97,1.39-6.23-2.98-9.58-8.54-10.35-5.18-.72-8.89-1.25-11.12-1.58-3.15-.48-5.61-2.2-3.78-5.48.48-.87,1.22-1.4,2.22-1.59,2.88-1.13,5.84-1.25,8.85-.34,3.15.13,4.99,1.7,5.5,4.74.02.11.11.19.22.19h5.78s.02,0,.02,0c.02,0,.03-.02.04-.02.02,0,.03-.01.05-.03.01-.01.02-.03.02-.05,0-.02.02-.04.02-.07-.33-2.07-.86-3.73-1.58-5-1.91-2.45-4.6-3.74-7.34-4.97Z"/>
      <path d="M188.39,93.5c2.74,1.23,5.43,2.53,7.34,4.97h10.28s7.63-5.11,7.63-5.11c-8.83-.4-17.25-.35-25.25.14Z"/>
      <path d="M213.63,93.36l-7.63,5.13c-3.7,4.98-4.75,10.41-3.17,16.29,4.08,15.12,28.23,15.42,33.3,1,0-.01,0-.02,0-.03,0,0,0-.02,0-.02,0-.01,0-.03-.02-.04,0-.01-.02-.02-.03-.03-.02-.01-.03-.02-.05-.02h-6.1c-.14,0-.26.08-.32.2-2.63,5.42-10.05,6.58-15.07,4.1-3.35-1.65-5.35-4.33-5.98-8.02,0-.02,0-.03,0-.05,0-.02.02-.04.03-.06,0-.03.02-.05.03-.08.02-.02.04-.03.07-.05.03-.02.06-.04.1-.04h27.91c.11,0,.21-.09.22-.2.23-4.54-.93-8.76-3.5-12.68-1.98-2.06-4.81-3.89-8.48-5.49l-11.31.07ZM230.48,106.48s0,.03,0,.05c0,.02-.01.03-.02.05,0,.02-.01.04-.03.06-.02.02-.03.03-.05.04-.01,0-.02.03-.04.03-.02,0-.03,0-.05,0-.85.03-4.38.05-10.62.07-6.23.02-9.76.01-10.61-.01-.02,0-.03,0-.05,0-.02,0-.02-.02-.04-.03-.02-.01-.04-.02-.06-.04-.02-.02-.02-.04-.03-.06,0-.02-.02-.03-.02-.05,0-.02,0-.03,0-.05,1.27-5.53,5.25-7.99,10.77-8,5.52-.01,9.52,2.42,10.82,7.95Z"/>
      <path d="M224.94,93.29c3.67,1.6,6.49,3.43,8.48,5.49l39.69,1.67-2.24-5.25c-15.14-1.21-30.45-1.85-45.93-1.92Z"/>
      <path d="M154.01,95.07c-6.36-2.45-12.51-1.89-18.43,1.66-.08.05-.17.07-.25.09-.02,0-.05,0-.07,0-.02,0-.04,0-.07,0-.03,0-.06-.01-.09-.02-.05,0-.1-.01-.15-.03-.05-.02-.09-.04-.13-.06-.04-.02-.08-.05-.12-.08-.04-.03-.07-.07-.11-.12-.03-.04-.07-.08-.09-.13-.01-.02-.02-.04-.03-.07-.03-.08-.05-.17-.06-.27v-1.37c0-.27-.22-.48-.48-.48h-5.25s0,0-.01,0c-.03,0-.06.01-.09.02-.03,0-.07,0-.1.02-.03.01-.06.04-.08.06-.03.02-.06.03-.08.06-.02.02-.04.06-.06.08-.02.03-.04.05-.05.09-.01.03-.01.07-.02.1,0,.04-.02.07-.02.11l.08,2.42c.28,1.7.3,3.34.04,4.91l-.04,34.87s.02.07.04.1.06.04.1.04h5.84c.08,0,.15-.07.15-.15v-14.8s0-.07.02-.1c0,0,.01-.01.02-.02.01-.02.03-.04.04-.06,0,0,0,0,0,0,0,0,0,0,0,0,.05-.04.11-.06.17-.06,0,0,.01,0,.02,0,.06,0,.12.03.17.08,4.85,5.48,15.3,5.52,21.25,1.6,8.02-5.29,8.7-16.17,3.9-23.8-1.86-2.02-3.85-3.59-5.96-4.71ZM146.5,121.29c-6.21.66-11.81-3.79-12.55-10-.46-3.81,1.03-7.6,3.96-10.08,3.81-3.23,9.27-3.61,13.49-.94.96.61,1.83,1.36,2.57,2.23,1.65,1.92,2.61,4.35,2.73,6.88.29,6.04-4.18,11.26-10.2,11.91Z"/>
      <path d="M174.57,94.03l-20.56,1.04c2.11,1.12,4.09,2.69,5.96,4.71l8.62-.36c1.3-1.96,3.29-3.76,5.98-5.38Z"/>
      <path d="M121.41,95.05s0-.01,0-.02c0-.05-.02-.1-.03-.15-.01-.06-.01-.11-.03-.17-.02-.05-.06-.09-.09-.14-.03-.05-.05-.09-.09-.13-.04-.04-.09-.06-.13-.09-.04-.03-.08-.07-.13-.09-.05-.02-.11-.03-.16-.04-.06-.01-.11-.04-.17-.04h-4.58s-.03,0-.04,0c-.05,0-.09.02-.14.04-.06.01-.11.02-.16.04-.05.02-.09.06-.13.09-.04.03-.09.06-.13.1-.04.04-.06.09-.09.13-.03.05-.06.09-.08.14-.02.05-.02.11-.03.16-.01.06-.03.12-.03.19l.14,3.52-.08,4.77v21.55c0,.18.14.33.32.33h5.48s.09,0,.12-.03c.12-.05.2-.16.2-.3l.03-22.32v-4.64s.07-2.9.07-2.9Z"/>
      <path d="M293.74,101.96l1.85-4.38c-.42-.2-.76-.32-1.02-.35-6.82-.79-13.75-1.39-20.79-1.79l2.24,5.13,17.73,1.39Z"/>
      <path d="M128.24,97.18l-6.92.78v4.64s6.96-.51,6.96-.51c.26-1.57.24-3.21-.04-4.91Z"/>
      <polygon points="298.4 97.73 296.44 102.2 303.79 102.85 303.77 98.31 298.4 97.73"/>
      <path d="M176.81,99.06l8.85-.34c-3.02-.91-5.97-.79-8.85.34Z"/>
      <polygon points="108.25 99.46 108.13 104.07 115.19 103.36 115.27 98.59 108.25 99.46"/>
      <path d="M137.9,101.21l13.49-.94c-4.22-2.67-9.69-2.29-13.49.94Z"/>
      <polygon points="306.29 98.63 306.26 103.22 311.78 103.79 311.81 99.24 306.29 98.63"/>
      <path d="M314.17,99.5l-.02,4.58,26.5,3.29c.31-1.67.25-2.99-.2-3.96l-26.28-3.91Z"/>
      <path d="M98.12,100.95s-.01,0-.02,0c-.03,0-.04.03-.06.04-.02.02-.05.02-.07.05-.02.02-.01.05-.02.08,0,.03-.02.06-.01.09l.95,3.75c.04.14.17.23.31.22l3.07-.36-.08-4.52-4.08.65Z"/>
      <path d="M343.24,104.07c-.58.85-.58,2.08,0,3.71l4.7.61-.06-3.59-4.63-.72Z"/>
      <path d="M350.4,105.28l.02,3.7,28.09,5.07-.84-2.86c-8.91-2.27-18-4.24-27.27-5.91Z"/>
      <path d="M61.38,107.6c-.63-.02-1.34.16-2.15.54.18.8.17,1.79-.03,2.98.8-.02,1.54-.19,2.22-.49.24-.11.4-.34.4-.61v-1.98c0-.24-.2-.44-.44-.45Z"/>
      <path d="M31.69,114.67c.24.71.58,1.32,1.02,1.83l21.53-4.45-1.12-2.77-21.42,5.39Z"/>
      <path d="M380.28,111.97c.28.94.65,1.85,1.11,2.72l23.62,5.43c.39-.3.78-.61,1.14-.94-6.53-2.08-13.94-4.24-22.22-6.46-1.23-.33-2.45-.58-3.65-.75Z"/>
      <path d="M.09,124.87s0,0,0,0c-.02,0-.03.02-.04.03-.01.01-.03.02-.04.03,0,.02,0,.03,0,.05,0,.02,0,.04,0,.05h0c.02.07.1.11.17.09l26.04-7.13-.53-1.59c-8.64,2.5-17.18,5.32-25.6,8.45Z"/>
      <path d="M408.82,120.06c-.17.08-.39.33-.65.75,4.74,1.53,9.45,2.92,14.12,4.15.26.07.28.06.07-.02-4.53-1.76-9.04-3.39-13.54-4.88Z"/>
    </g>
  </g>
</svg>