<?xml version="1.0" encoding="UTF-8"?>
<svg id="Layer_2" xmlns="http://www.w3.org/2000/svg" version="1.1" viewBox="0 0 450 60.1">
  <!-- Generator: Adobe Illustrator 30.0.0, SVG Export Plug-In . SVG Version: 2.1.1 Build 123)  -->
  <defs>
    <style>
      .st0 {
        fill: #fff;
      }

      .st1 {
        fill: none;
      }
    </style>
  </defs>
  <g id="Layer_1-2">
    <g>
      <path class="st1" d="M142.6,16c0,0,0,.1,0,.2,0,0,0-.1,0-.2Z"/>
      <path class="st1" d="M142.5,15.6c0,0,0,.1,0,.2,0,0,0-.1,0-.2Z"/>
      <path class="st1" d="M142.6,16.3v.2-.2Z"/>
      <path class="st1" d="M136.8,23.8c0,0,0,.1.1.1,0,0-.1,0-.1-.1Z"/>
      <path class="st1" d="M161.6,59.7s0,0,0,0h0s0,0,0,0h0Z"/>
      <path class="st1" d="M142,14.6s0,.1,0,.1c0,0,0-.1,0-.1Z"/>
      <path class="st1" d="M142.2,14.9s0,.1,0,.1c0,0,0-.1,0-.1Z"/>
      <path class="st1" d="M142.4,15.3c0,0,0,.1,0,.2,0,0,0-.1,0-.2Z"/>
      <path class="st1" d="M165.2.1s0,0,0,0c0,0,0,0,0,0Z"/>
      <path class="st1" d="M181.3,0h0c0,0,.1,0,.1,0,0,0,0,0-.1,0Z"/>
      <path class="st1" d="M206.1,59.9s0,0,0,0c0,0,0,0,0,0Z"/>
      <path class="st1" d="M141.8,14.3s0,.1.1.1c0,0,0-.1-.1-.1Z"/>
      <path class="st1" d="M181.5,23.1s0,0,0,0c0,0,0,0,0,0Z"/>
      <path class="st1" d="M165.3,0h0,0Z"/>
      <path class="st1" d="M206,60s0,0-.1,0c0,0,0,0,.1,0Z"/>
      <path class="st1" d="M165.2.2h0s0,0,0,0h0Z"/>
      <path class="st1" d="M165.2.2s0,0,0,0c0,0,0,0,0,0Z"/>
      <path class="st1" d="M141.3,13.8s0,0,.1.1c0,0,0,0-.1-.1Z"/>
      <path class="st1" d="M138.9,12.9h0c0,0,.1,0,.2,0,0,0-.1,0-.2,0Z"/>
      <path class="st1" d="M151.1,29.7s0,0,0,0h0s0,0,0,0h0Z"/>
      <path class="st1" d="M137.1,23.9h0s0,0,0,0c0,0,0,0,0,0Z"/>
      <path class="st1" d="M136.8,23.7s0,0,0,0c0,0,0,0,0,0Z"/>
      <path class="st1" d="M151.1,29.6s0,0,0,0c0,0,0,0,0,0Z"/>
      <path class="st1" d="M120.6,59.8s0,0,0,0c0,0,0,0,0,0Z"/>
      <path class="st1" d="M120.5.4h0s0,0,0-.1c0,0,0,0,0,.1Z"/>
      <path class="st1" d="M151.2,29.8s0,0,0,0c0,0,0,0,0,0Z"/>
      <path class="st1" d="M140.4,13.2c0,0,.1,0,.2,0,0,0-.1,0-.2,0Z"/>
      <path class="st1" d="M141,13.6s.1,0,.1.1c0,0,0,0-.1-.1Z"/>
      <path class="st1" d="M181.7,23.4s0,0,0,0c0,0,0,0,0,0Z"/>
      <path class="st1" d="M140.7,13.4c0,0,.1,0,.2.1,0,0-.1,0-.2-.1Z"/>
      <path class="st1" d="M141.6,14.1s0,0,.1.1c0,0,0-.1-.1-.1Z"/>
      <path class="st1" d="M139.6,13c0,0,.1,0,.2,0,0,0-.1,0-.2,0Z"/>
      <path class="st1" d="M140,13.1c0,0,.1,0,.2,0,0,0-.1,0-.2,0Z"/>
      <path class="st1" d="M139.3,13c0,0,.1,0,.2,0,0,0-.1,0-.2,0Z"/>
      <path class="st1" d="M205.8,0h0s0,0,0,0c0,0,0,0,0,0h0Z"/>
      <path class="st1" d="M286,43.4h0s0,0,0,0c0,0,0,0,0,0h0Z"/>
      <path class="st1" d="M286.3,22c0,0,.1.2.1.3,0-.1,0-.2-.1-.3Z"/>
      <path class="st1" d="M286.1,21.9c.1,0,.2,0,.3.1,0,0-.2-.1-.3-.1Z"/>
      <path class="st1" d="M286.3,38.4s0,0,0,0c0,0,0,0,0,0Z"/>
      <path class="st1" d="M286.4,38.2h0s0,0,0,0Z"/>
      <path class="st1" d="M120.9,60h0c-.1,0-.2,0-.3-.1,0,0,.2.1.3.1Z"/>
      <path class="st1" d="M238.8,14.5c0,0,0-.1.1-.2,0,0-.1.1-.1.2Z"/>
      <path class="st1" d="M286.5,16.2h0c0,0,0,.1,0,.2,0,0,0-.1,0-.2Z"/>
      <path class="st1" d="M284,2.2h0c0,0,.1,0,.2,0,0,0-.1,0-.2,0Z"/>
      <path class="st1" d="M269.9,45.4c0,0-.1,0-.2,0,0,0,.1,0,.2,0h0Z"/>
      <path class="st1" d="M269.6,45.4s0,0,0,0c0,0,0,0,0,0Z"/>
      <path class="st1" d="M269.6,36.8c0,0,0-.1,0-.2,0,0,0,.1,0,.2h0Z"/>
      <path class="st1" d="M286.3,43.6s0,0,0,0c0,0,0,0,0,0Z"/>
      <path class="st1" d="M223.8,14.4s0,0,0,0c0,0,0,0,0,0Z"/>
      <path class="st1" d="M286.3,43.5s0,0,0,0c0,0,0,0,0,0Z"/>
      <path class="st1" d="M286.2,43.4s0,0,0,0c0,0,0,0,0,0Z"/>
      <path class="st1" d="M286.5,16.4s0,0,0,0c0,0,0,0,0,0Z"/>
      <path class="st1" d="M206.1,59.7h0s0,0,0,0Z"/>
      <path class="st1" d="M195.4,29.4h0s0,0,0,0c0,0,0,0,0,0h0Z"/>
      <path class="st1" d="M195.5,29.5s0,0,0,0c0,0,0,0,0,0Z"/>
      <path class="st1" d="M195.4,29.3h0s0,0,0,0Z"/>
      <path class="st1" d="M205.9.1s0,0,0,0c0,0,0,0,0,0Z"/>
      <path class="st1" d="M181.9,23.5s0,0-.1,0c0,0,0,0,0,0h0Z"/>
      <path class="st1" d="M205.9.3s0,0,0,.1c0,0,0,0,0-.1Z"/>
      <path class="st1" d="M223.7,14.3s0,0,.1,0c0,0,0,0-.1,0h0Z"/>
      <path class="st1" d="M205.9.2s0,0,0,0c0,0,0,0,0,0Z"/>
      <path class="st1" d="M240.9,16.6s0,0,0,0c0,0,0,0,0,0h0Z"/>
      <path class="st1" d="M238.8,57.8s0,0,0,.1c0,0,0,0,0-.1Z"/>
      <path class="st1" d="M216.5,14.3c0,0-.1,0-.1,0,0,0,0,0,.1,0Z"/>
      <path class="st1" d="M181.6,23.4s0,0,0,0c0,0,0,0,0,0Z"/>
      <path class="st1" d="M214.5,16.4h0s0,0,0,0c0,0,0,0,0,0Z"/>
      <path class="st1" d="M206.1,59.9s0,0,0,0c0,0,0,0,0,0Z"/>
      <path class="st1" d="M221.9,60.1h0s0,0,0,0c0,0,0,0,0,0Z"/>
      <path class="st1" d="M.1,0S0,.2,0,.2c0,0,0,0,0-.1h0Z"/>
      <path class="st1" d="M40.9,59.7h0s0,0,0,0Z"/>
      <path class="st1" d="M30.3,29.5s0,0,0,0c0,0,0,0,0,0Z"/>
      <path class="st1" d="M63.4,0s0,0,0,0c0,0,0,0,0,0h0Z"/>
      <path class="st1" d="M30.2,29.3h0s0,0,0,0Z"/>
      <path class="st1" d="M16.7,23.5s0,0-.1,0c0,0,0,0,0,0h0Z"/>
      <path class="st1" d="M40.6.2s0,0,0,0c0,0,0,0,0,0Z"/>
      <path class="st1" d="M40.7.3s0,0,0,0c0,0,0,0,0,0Z"/>
      <path class="st1" d="M40.7.4s0,0,0,.1c0,0,0,0,0-.1Z"/>
      <path class="st1" d="M30.2,29.4h0s0,0,0,0c0,0,0,0,0,0h0Z"/>
      <path class="st1" d="M16.4,23.4s0,0,0,0c0,0,0,0,0,0Z"/>
      <path class="st1" d="M44.3.2s0,0,0,0c0,0,0,0,0,0Z"/>
      <path class="st1" d="M44.4,0s0,0,0,0c0,0,0,0,0,0Z"/>
      <path class="st1" d="M44.3.1s0,0,0,0c0,0,0,0,0,0Z"/>
      <path class="st1" d="M269.6,36.6s0,0,0,0c0,0,0,0,0,0Z"/>
      <path class="st1" d="M40.9,59.8s0,0,0,0c0,0,0,0,0,0Z"/>
      <path class="st1" d="M44.3.3h0s0,0,0,0Z"/>
      <path class="st1" d="M40.5.1h0s0,0,0,0c0,0,0,0,0,0h0Z"/>
      <path class="st1" d="M16.5,23.4s0,0,0,0c0,0,0,0,0,0Z"/>
      <path class="st1" d="M16.3,23.1s0,0,0,0c0,0,0,0,0,0Z"/>
      <path class="st1" d="M40.8,59.9s0,0,0,0c0,0,0,0,0,0Z"/>
      <path class="st1" d="M40.8,59.9s0,0,0,0c0,0,0,0,0,0Z"/>
      <path class="st1" d="M92,16h0v-.2.2Z"/>
      <path class="st1" d="M94,13s0,0,.1,0c0,0,0,0-.1,0Z"/>
      <path class="st1" d="M93.7,13.1s0,0,.1,0c0,0,0,0-.1,0Z"/>
      <path class="st1" d="M94.5,12.8h.1-.1Z"/>
      <path class="st1" d="M94.2,12.9s0,0,.1,0c0,0,0,0-.1,0Z"/>
      <path class="st1" d="M93,13.5s0,0,0,0c0,0,0,0,0,0Z"/>
      <path class="st1" d="M93.2,13.4s0,0,0,0c0,0,0,0,0,0Z"/>
      <path class="st1" d="M93.5,13.2s0,0,.1,0c0,0,0,0-.1,0Z"/>
      <path class="st1" d="M92.8,13.8s0,0,0,0c0,0,0,0,0,0Z"/>
      <path class="st1" d="M91.9,59.9c0,0,.1-.1.1-.2h0c0,0,0,.2-.1.2Z"/>
      <path class="st1" d="M92.7,14s0,0,0-.1c0,0,0,0,0,.1Z"/>
      <path class="st1" d="M98.2,33.9s0,0,0,0c0,0,0,0,0,0Z"/>
      <path class="st1" d="M98.3,33.8h0s0,0,0,0c0,0,0,0,0,0h0Z"/>
      <path class="st1" d="M98.2,34s0,0,0,0c0,0,0,0,0,0Z"/>
      <path class="st1" d="M98.1,34.1s0,0,0,0c0,0,0,0,0,0Z"/>
      <path class="st1" d="M63.5.2s0,0,0,0c0,0,0,0,0,0Z"/>
      <path class="st1" d="M98.4,59.9s0,0,0,0c0,0,0,0,0,0Z"/>
      <path class="st1" d="M98.6,60h0c0,0-.1,0-.2,0,0,0,0,0,.2,0Z"/>
      <path class="st1" d="M63.5.2s0,0,0,0c0,0,0,0,0,0Z"/>
      <path class="st1" d="M161.6,59.9s0,0,0,0c0,0,0,0,0,0Z"/>
      <path class="st1" d="M92.5,14.2s0,0,0-.1c0,0,0,0,0,.1Z"/>
      <path class="st1" d="M92.2,14.8s0,0,0-.1c0,0,0,0,0,.1Z"/>
      <path class="st1" d="M92.4,14.5s0,0,0-.1c0,0,0,0,0,.1Z"/>
      <path class="st1" d="M92,15.7s0,0,0-.1c0,0,0,0,0,.1Z"/>
      <path class="st1" d="M92.1,15.1s0,0,0-.1c0,0,0,0,0,.1Z"/>
      <path class="st1" d="M92.1,15.4s0,0,0-.1c0,0,0,0,0,.1Z"/>
      <path class="st1" d="M240.9,16.5s0,0,0,0c0,0,0,0,0,0Z"/>
      <path class="st1" d="M402,0h0,0Z"/>
      <path class="st1" d="M402.2,60s0,0-.1,0c0,0,.1,0,.1,0Z"/>
      <path class="st1" d="M402.3,59.8h0s0,0,0,.1c0,0,0,0,0-.1Z"/>
      <path class="st1" d="M385.2,57.9s0,0,0,0c0,0,0,0,0,0Z"/>
      <path class="st1" d="M402.2.1s0,0,0,0c0,0,0,0,0,0Z"/>
      <path class="st1" d="M425.5,39.6h0s0,0,0,0Z"/>
      <path class="st1" d="M425.5,21.5s0,0,0,0c0,0,0,0,0,0Z"/>
      <path class="st1" d="M425.6,21.6s0,0,0,0c0,0,0,0,0,0Z"/>
      <path class="st1" d="M449.8,60s0,0,0,0c0,0,0,0,0,0Z"/>
      <path class="st1" d="M450,59.8s0,0,0,0c0,0,0,0,0,0Z"/>
      <path class="st1" d="M400,58h-14.7s0,0,0,0c0,0,0,0,0,0h14.7c0,0,.1,0,.1-.2h0c0,0,0,.2-.1.2Z"/>
      <path class="st1" d="M449.9,59.9s0,0,0,0c0,0,0,0,0,0Z"/>
      <path class="st1" d="M339.2,2.2s0,0,0,0c0,0,0,0,0,0Z"/>
      <path class="st1" d="M355.6,58s0,0,0,0c0,0,0,0,0,0Z"/>
      <path class="st1" d="M355.8,58s0,0,0,0c0,0,0,0,0,0Z"/>
      <path class="st1" d="M355.8,57.8s0,0,0,0c0,0,0,0,0,0Z"/>
      <path class="st1" d="M339.1,2.5s0,0,0,0c0,0,0,0,0,0h0Z"/>
      <path class="st1" d="M339.1,2.4s0,0,0,0c0,0,0,0,0,0Z"/>
      <path class="st1" d="M355.9,57.7h0s0,0,0,0c0,0,0,0,0,0Z"/>
      <path class="st1" d="M359,17.2h.1-.1,0Z"/>
      <path class="st1" d="M359.6,17.4s0,0,0,0c0,0,0,0,0,0Z"/>
      <path class="st1" d="M339.1,2.3s0,0,0,0c0,0,0,0,0,0Z"/>
      <path class="st1" d="M355.8,8.9h0,0Z"/>
      <path class="st1" d="M449.1,0h0s0,0,0,0c0,0,0,0,0,0h0Z"/>
      <path class="st1" d="M355.9,8.9h0,0Z"/>
      <path class="st1" d="M355.9,8.9s0,0,0,0c0,0,0,0,0,0Z"/>
      <path class="st1" d="M446.4,58s0,0,0,0c0,0,0,0,0,0Z"/>
      <path class="st1" d="M446.5,57.8h0s0,0,0,0h0Z"/>
      <path class="st1" d="M436.3,29.4s0,0,0,0c0,0,0,0,0,0Z"/>
      <path class="st1" d="M423.7,24s0,0,0,0c0,0,0,0,0,0Z"/>
      <path class="st1" d="M449.2.2s0,0,0,0c0,0,0,0,0,0Z"/>
      <path class="st1" d="M446.2,2.2s0,0,0,0c0,0,0,0,0,0Z"/>
      <path class="st1" d="M446.1,2.2h0s0,0,0,0c0,0,0,0,0,0Z"/>
      <path class="st1" d="M436.3,29.5h0s0,0,0,0h0Z"/>
      <path class="st1" d="M446.2,2.3s0,0,0,0c0,0,0,0,0,0Z"/>
      <path class="st1" d="M436.3,29.6h0s0,0,0,0Z"/>
      <path class="st1" d="M446.4,57.9s0,0,0,0c0,0,0,0,0,0Z"/>
      <path class="st1" d="M450,59.7h0c0,0,0,0,0,0h0Z"/>
      <path class="st1" d="M436.3,29.3s0,0,0,0c0,0,0,0,0,0Z"/>
      <path class="st1" d="M436.3,29.5h0s0,0,0,0Z"/>
      <path class="st1" d="M423.6,23.9s0,0,0,0c0,0,0,0,0,0Z"/>
      <path class="st1" d="M423.9,24h0,0Z"/>
      <path class="st1" d="M446.3,2.4s0,0,0,.1c0,0,0,0,0-.1Z"/>
      <path class="st1" d="M425.7,21.7h0,0Z"/>
      <path class="st1" d="M442.1,29.2h0s0,0,0,0Z"/>
      <path class="st1" d="M442.1,29.2s0,0,0,0h0s0,0,0,0Z"/>
      <path class="st1" d="M423.5,23.8s0,0,0,0c0,0,0,0,0,0Z"/>
      <path class="st1" d="M449.9,59.5s0,0,0,0c0,0,0,0,0,0Z"/>
      <path class="st1" d="M449.3.2s0,0,0,0c0,0,0,0,0,0Z"/>
      <path class="st1" d="M449.3.3s0,0,0,.1c0,0,0,0,0-.1Z"/>
      <path class="st1" d="M442.1,29.1s0,0,0,0c0,0,0,0,0,0Z"/>
      <path class="st1" d="M442.1,29s0,0,0,0c0,0,0,0,0,0Z"/>
      <path class="st1" d="M446.4,58s0,0,0,0c0,0,0,0,0,0Z"/>
      <path class="st1" d="M408.4,2.4h0s0,0,0-.1c0,0,0,0,0,.1Z"/>
      <path class="st1" d="M408.5,2.2s.1,0,.2,0c0,0-.1,0-.2,0Z"/>
      <path class="st1" d="M425.5,39.9c0,0,0-.1,0-.2,0,0,0,.1,0,.2h0Z"/>
      <path class="st1" d="M425.5,21.6s0,0,0,0h0Z"/>
      <path class="st1" d="M358.2,17.4s0,0,0,0c0,0,0,0,0,0Z"/>
      <path class="st1" d="M425.7,39.4s0,0,.1,0c0,0,0,0-.1,0Z"/>
      <path class="st1" d="M290.7,59.7c0,.2.2.3.4.3h0c-.2,0-.3-.1-.4-.3Z"/>
      <path class="st1" d="M330.8,58s0,0,0,0c0,0,0,0,0,0Z"/>
      <path class="st1" d="M330.9,58s0,0,0,0c0,0,0,0,0,0Z"/>
      <path class="st1" d="M330.4,2.2h0s0,0,0,0c0,0,0,0,0,0h0Z"/>
      <path class="st1" d="M309.9,21.6s0,0,0,0h0Z"/>
      <path class="st1" d="M309.8.2c0,0,0-.1-.1-.1,0,0,.1,0,.1.1Z"/>
      <path class="st1" d="M310,21.7h0,0Z"/>
      <path class="st1" d="M330.5,2.2s0,0,0,0c0,0,0,0,0,0Z"/>
      <path class="st1" d="M330.5,2.3s0,0,0,0c0,0,0,0,0,0Z"/>
      <path class="st1" d="M320.6,29.4h0s0,0,0,0Z"/>
      <path class="st1" d="M320.6,29.4h0s0,0,0,0Z"/>
      <path class="st1" d="M320.7,29.3s0,0,0,0c0,0,0,0,0,0Z"/>
      <path class="st1" d="M320.7,29.5h0s0,0,0,0Z"/>
      <path class="st1" d="M330.5,2.4s0,0,0,.1c0,0,0,0,0-.1Z"/>
      <path class="st1" d="M326.5,29s0,0,0,0c0,0,0,0,0,0Z"/>
      <path class="st1" d="M320.7,29.3s0,0,0,0c0,0,0,0,0,0Z"/>
      <path class="st1" d="M326.5,29.2s0,0,0,0h0s0,0,0,0Z"/>
      <path class="st1" d="M334.3,59.9s0,0,0,0c0,0,0,0,0,0Z"/>
      <path class="st1" d="M334.2,60s0,0,0,0c0,0,0,0,0,0Z"/>
      <path class="st1" d="M309.8,21.5s0,0,0,0c0,0,0,0,0,0Z"/>
      <path class="st1" d="M309.9,21.6s0,0,0,0c0,0,0,0,0,0Z"/>
      <path class="st1" d="M326.5,29.2h0s0,0,0,0Z"/>
      <path class="st1" d="M334.3,59.8s0,0,0,0c0,0,0,0,0,0Z"/>
      <path class="st1" d="M334.3,59.5s0,0,0,0c0,0,0,0,0,0Z"/>
      <path class="st1" d="M333.5,0h0s0,0,0,0c0,0,0,0,0,0h0Z"/>
      <path class="st1" d="M330.9,57.9s0,0,0,0h0c0,0,0,0,0-.1h0Z"/>
      <path class="st1" d="M326.5,29.1s0,0,0,0c0,0,0,0,0,0Z"/>
      <path class="st1" d="M333.6.1s0,0,0,0c0,0,0,0,0,0Z"/>
      <path class="st1" d="M333.7.2s0,0,0,0c0,0,0,0,0,0Z"/>
      <path class="st1" d="M333.7.3s0,0,0,.1c0,0,0,0,0-.1Z"/>
      <path class="st1" d="M358,17.8s0,0,0,0c0,0,0,0,0,0Z"/>
      <path class="st1" d="M358.1,17.5s0,0,0,0c0,0,0,0,0,0Z"/>
      <path class="st1" d="M336.1.3s0,0,0,0c0,0,0,0,0,0h0Z"/>
      <path class="st1" d="M358,17.7s0,0,0,0c0,0,0,0,0,0Z"/>
      <path class="st1" d="M358.7,17.2h0,0Z"/>
      <path class="st1" d="M358.4,17.3s0,0,0,0c0,0,0,0,0,0Z"/>
      <path class="st1" d="M358.6,17.2h0s0,0,0,0Z"/>
      <path class="st1" d="M356.9,2.8s0,0,0,0c0,0,0,0,0,0Z"/>
      <path class="st1" d="M359.2,17.2s0,0,0,0c0,0,0,0,0,0Z"/>
      <path class="st1" d="M357.1,2.8h0,0Z"/>
      <path class="st1" d="M356.9,2.7s0,0,0,0c0,0,0,0,0,0Z"/>
      <path class="st1" d="M336.1.2h0s0,0,0,0Z"/>
      <path class="st1" d="M336.2.2s0,0,0,0c0,0,0,0,0,0Z"/>
      <path class="st1" d="M336.2.1s0,0,0,0c0,0,0,0,0,0Z"/>
      <path class="st1" d="M357,2.8h0,0Z"/>
      <path class="st1" d="M359.5,17.3s0,0,0,0c0,0,0,0,0,0Z"/>
      <path class="st1" d="M359.8,17.9s0,0,0,0c0,0,0,0,0,0Z"/>
      <path class="st1" d="M359.8,17.7s0,0,0,0c0,0,0,0,0,0Z"/>
      <path class="st1" d="M334.4,59.7h0c0,0,0,0,0,0h0Z"/>
      <path class="st1" d="M357.9,18.1h0c0,0,0,0,0,0h0Z"/>
      <path class="st1" d="M359.7,17.6s0,0,0,0c0,0,0,0,0,0Z"/>
      <path class="st1" d="M359.4,17.3s0,0,0,0c0,0,0,0,0,0Z"/>
      <path d="M40.9,59.7h0c0,0,0-.1,0-.1-.7-1.5-1.1-2.9-1.1-4.3-.3-6.2,0-13.3,0-16.4-.3-6.2-4-8-9.4-9.3,0,0,0,0,0,0h0s0,0,0,0h0c0-.1,0-.1,0-.1,3.2-1.1,7.2-2.6,8.1-6,.3-1.3.5-2.2.5-2.6v-11.5c0-3.4.4-5.9,1.8-8.6,0,0,0,0,0-.1h0c0,0,0,0,0-.1,0,0,0,0,0,0s0,0,0,0,0,0,0,0c0,0,0,0,0,0,0,0,0,0-.1,0h-16.6c-.1,0-.2,0-.3.2-.6,1.5-1,3.1-1,4.8,0,2.5,0,6.5,0,12,0,2.8-.8,5.7-4,6.2-.6.1-1.2.2-1.8.2h0s0,0,0,0c0,0,0,0,0,0s0,0,0,0c0,0,0,0,0,0,0,0,0,0,0,0,0,0,0,0,0,0,0,0,0,0,0,0s0,0,0-.1V.3c0-.1-.1-.2-.2-.2H.2s0,0,0,0c0,0,0,0-.1.1,0,0,0,0,0,0v59.2c0,.3.2.5.5.5h15.5c.2,0,.3-.1.3-.3v-21.7c0-.1.1-.2.2-.2,1.6,0,4.9-.2,5.8.9.8,1,1,2.5,1,4.1,0,7.4,0,11.3,0,11.5,0,1.9.3,3.7,1.1,5.4.1.2.3.4.6.4h15.7s0,0,0,0h0s0,0,0,0c0,0,0,0,0,0,0,0,0,0,0,0,0,0,0,0,0,0,0,0,0,0,0,0h0Z"/>
      <path d="M72.6,44.4s0,0-.2,0c-3.3,1.2-6.7,1.7-10.2,1.4-.2,0-.3-.2-.3-.3,0-1,0-1.7,0-2,0-19.4,0-31.1,0-35.2,0-2.6.6-5.2,1.7-7.8,0,0,0,0,0,0h0s0,0,0,0c0,0,0,0,0,0,0,0,0,0,0,0,0,0,0,0,0,0s0,0,0,0h-18.9s0,0,0,0h0s0,0,0,0c0,0,0,0,0,0,0,0,0,0,0,0,0,0,0,0,0,0h0c0,.1,0,.1,0,.1.1.2.2.6.3,1.1,1,4.9,1,8.4,1,14.5v43.6c0,.2.2.4.4.4h24.1c.2,0,.3-.1.4-.3.6-3.8,1.3-8.8,2.3-14.9,0-.2,0-.3-.2-.4h0Z"/>
      <path d="M114.6,9.8c0-1.7,0-3.1-.3-4.4C113.8,1.8,110.3,0,106.8,0h-23.2c-3.5,0-6.9,1.7-7.5,5.3-.2,1.3-.3,2.7-.3,4.4,0,8.7,0,25.3,0,49.9,0,.2.1.3.3.3h15.7c0,0,0,0,.1,0,0,0,.1-.1.1-.2v-12.6c0-.1,0-.2.2-.2h5.8c.1,0,.2,0,.2.2v12.6h0c0,0,0,.1,0,.2,0,0,0,0,0,0,0,0,0,0,0,0,0,0,0,0,.2,0h15.7c.2,0,.3-.1.3-.3,0-24.6,0-41.2,0-49.9h0ZM98.3,33.8h0s0,0,0,0c0,0,0,0,0,0,0,0,0,0,0,0,0,0,0,0,0,0,0,0,0,0,0,0,0,0,0,0,0,0,0,0,0,0,0,0,0,0,0,0,0,0h-5.6c-.2,0-.3-.2-.3-.3v-17.8h0v-.3c0,0,0,0,0-.1,0,0,0-.1,0-.2,0,0,0,0,0-.1,0,0,0-.1,0-.2,0,0,0,0,0-.1,0,0,0-.1,0-.2,0,0,0,0,0-.1,0,0,0-.1,0-.1,0,0,0,0,0-.1,0,0,0,0,0-.1,0,0,0,0,0-.1s0,0,0-.1c0,0,0,0,0-.1,0,0,0,0,0-.1,0,0,0,0,0,0,0,0,0,0,.1-.1,0,0,0,0,0,0,0,0,0,0,.1-.1,0,0,0,0,0,0,0,0,0,0,.1,0,0,0,0,0,.1,0s0,0,.1,0c0,0,0,0,.1,0,0,0,0,0,.1,0,0,0,0,0,.1,0,0,0,0,0,.1,0s0,0,.1,0,0,0,.1,0h1c1.5,0,2.8,1.4,2.8,3.2v17.8s0,0,0,0Z"/>
      <path d="M206.1,59.8h0c0,0,0-.1,0-.1-.7-1.5-1.1-2.9-1.1-4.3-.3-6.2,0-13.4,0-16.5-.3-6.2-4-8.1-9.4-9.4,0,0,0,0,0,0h0s0,0,0,0h0c0-.1,0-.1,0-.1,3.2-1.1,7.3-2.6,8.1-6,.3-1.3.5-2.2.5-2.6v-11.6c0-3.4.4-5.9,1.9-8.6,0,0,0,0,0-.1h0c0,0,0,0,0-.1,0,0,0,0,0,0s0,0,0,0,0,0,0,0c0,0,0,0,0,0,0,0,0,0-.1,0h-16.6c-.1,0-.2,0-.3.2-.6,1.5-1,3.1-1,4.8,0,2.5,0,6.5,0,12,0,2.8-.8,5.7-4,6.2-.6.1-1.2.2-1.8.2h0s0,0,0,0c0,0,0,0,0,0,0,0,0,0,0,0,0,0,0,0,0,0,0,0,0,0,0,0,0,0,0,0,0,0,0,0,0,0,0,0s0,0,0-.1V.3h0c0,0,0-.1,0-.2,0,0,0,0-.1,0h-16s0,0,0,0c0,0,0,0,0,0,0,0,0,0,0,0,0,0,0,0,0,0h0c0,0,0,59.4,0,59.4,0,.3.2.5.5.5h15.6c.2,0,.3-.1.3-.3v-21.7c0-.1.1-.2.2-.2,1.6,0,4.9-.2,5.8.9.8,1,1,2.5,1,4.1,0,7.5,0,11.3,0,11.5,0,1.9.3,3.7,1.1,5.4.1.2.3.4.6.4h15.7s0,0,.1,0h0s0,0,0,0c0,0,0,0,0,0,0,0,0,0,0,0,0,0,0,0,0,0,0,0,0,0,0,0h0Z"/>
      <path d="M248.5,0h-33.9c0,0-.1,0-.1.1v16.1h0s0,0,0,0c0,0,0,0,0,0,0,0,0,0,0,0h7.1c0,0,.1,0,.1.1v43.4h0s0,0,0,0c0,0,0,0,0,0,0,0,0,0,0,0h18.8c0,0,.1,0,.1-.1V16.6h0s0,0,0,0c0,0,0,0,0,0,0,0,0,0,0,0h7.4c0,0,.1,0,.1-.1V.2c0,0,0-.1-.1-.1h0ZM246.5,14.1c0,.1,0,.2-.2.2h-7.3s0,0,0,0c0,0-.1.1-.1.2v43.3s0,0,0,.1,0,0-.1,0h-14.5c0,0-.1,0-.1,0s0,0,0-.1V14.5s0,0,0-.1c0,0,0,0,0,0s0,0,0,0c0,0,0,0-.1,0h-7.2c0,0-.1,0-.1,0s0,0,0-.1V2.3s0,0,0-.1c0,0,0,0,.1,0h29.8c.1,0,.2,0,.2.2v11.8h0Z"/>
      <path d="M159.6,52.2c0-6.4,0-9.8,0-10.2,0-3.2,0-5.7-1.5-8.3-1.4-2.4-4.3-3.5-6.9-4,0,0,0,0,0,0,0,0,0,0,0,0,0,0,0,0,0,0h0s0,0,0,0c0,0,0,0,0,0,0,0,0,0,0,0,1.1-.2,2.2-.6,3.4-1.1,5.3-2.3,4.8-9.2,4.8-14.3,0-2.9,0-4.7-.1-5.3-.2-4-2.3-6.6-6.1-7.9-1.7-.5-3.1-.8-4.3-.8h-28.1s0,0-.1,0c0,0-.2,0-.2.2,0,0,0,0,0,.1v59.1h0c0,.1,0,.2.1.3,0,0,0,0,0,0s0,0,0,0c0,0,.2.1.3.1h15.6c.1,0,.2,0,.2-.2v-21.9c0-.2.2-.4.4-.4.9,0,1.9,0,3,.2,2.1.2,2.7,2.5,2.7,4.1,0,4.1,0,8.2,0,12.3,0,2.2.5,4.1,1.4,5.7,0,.1.2.2.3.2h16.9s0,0,0,0h0s0,0,0,0c0,0,0,0,0,0,0,0,0,0,0,0-1.7-2.2-2-4.6-2-7.5h0ZM142.6,16.7v3.6c0,2-1.8,3.7-3.9,3.7h-1.7s0,0,0,0c0,0,0,0,0,0,0,0-.1,0-.1-.1,0,0,0,0,0,0,0,0,0,0,0,0h0s.1-10.5.1-10.5c0-.2.1-.3.3-.3h1.7c0,0,.1,0,.2,0,0,0,.1,0,.2,0,0,0,.1,0,.2,0,0,0,.1,0,.2,0,0,0,.1,0,.2,0s.1,0,.2,0,.1,0,.2,0c0,0,.1,0,.2,0,0,0,.1,0,.2,0,0,0,.1,0,.2,0s.1,0,.2.1c0,0,.1,0,.1,0,0,0,.1,0,.1.1,0,0,.1,0,.1.1,0,0,0,0,.1.1,0,0,0,0,.1.1,0,0,0,0,.1.1,0,0,0,0,.1.1,0,0,0,.1.1.1,0,0,0,0,.1.1,0,0,0,.1,0,.1,0,0,0,.1.1.2,0,0,0,.1,0,.1,0,0,0,.1,0,.2,0,0,0,.1,0,.2s0,.1,0,.2,0,.1,0,.2,0,.1,0,.2,0,.1,0,.2c0,0,0,.1,0,.2v.4h0Z"/>
      <path d="M286.2,0c-9.2,0-17.1,0-23.7,0-1.1,0-2.5.4-4.2,1.1-4.5,1.9-5.8,7.7-5.8,12,.1,9.9,0,20.6,0,32.3,0,2.3,0,4,.4,5.3,1.3,6.1,5.1,9.1,11.5,9.2,7.8,0,14.7,0,20.6.1.4,0,.6,0,.6,0,.6,0,.9-.1.9-.6,0-5,0-10.3,0-15.8h0s0,0,0,0c0,0,0,0,0,0,0,0,0,0,0,0,0,0,0,0,0,0,0,0,0,0,0,0,0,0,0,0,0,0,0,0,0,0,0,0,0,0,0,0,0,0h-14c-.2,0-.3-.2-.3-.3v-4.3c0-.1.1-.2.2-.2h14.1c0,0,.2,0,.2,0,0,0,0,0,0,0,0,0,0-.1,0-.2h0v-16c0-.1,0-.2-.1-.3,0,0-.2-.1-.3-.1h-13.9c-.1,0-.3,0-.4-.2s-.2-.2-.2-.4v-4.6c0-.1.1-.3.3-.3h14.3c0,0,.1,0,.2,0,0,0,0,0,0,0,0,0,0,0,0,0,0,0,0-.1,0-.2V.4c0-.2-.1-.3-.3-.3h0ZM284.4,2.6v11.4c0,.2-.2.4-.4.4h-14.2c-.2,0-.3.1-.3.3v9c0,.2.1.3.3.3h14.2c.1,0,.2.1.2.2v12c0,.2-.1.3-.3.3h-14.2c0,0-.1,0-.2,0,0,0,0,0,0,0s0,0,0,0c0,0,0,.1,0,.2v8.3c0,0,0,.1,0,.2,0,0,0,0,0,0s0,0,0,0c0,0,.1,0,.2,0h14.3c.1,0,.2.1.2.2v11.9c0,.2-.2.4-.4.4-5.5.1-11.5.2-18.1.1-2.7,0-4.6-.3-6-.8-3.8-1.6-5.4-5.3-5.5-9.4-.2-9-.2-19.6-.1-31.6,0-3.7.2-6.9,1.7-10.1.8-1.6,2-2.7,3.7-3.2,1.3-.4,2.4-.6,3.3-.6,4.3,0,11.3,0,21,0h0c0,0,.1,0,.2,0,.1,0,.2.2.2.3h0Z"/>
      <path d="M334.3,59.6s0,0,0,0c-1-1.4-1.7-2.8-2.1-4.2-.2-.8-.3-2.2-.3-4.4,0-7.3,0-11.4,0-12.2,0-4.2-1.6-7.3-5.3-9.4,0,0,0,0,0,0h0s0,0,0,0h0c0,0,0,0,0,0,0,0,0,0,0,0,0,0,0,0,0,0,3.8-2,4.5-5.4,4.4-9.5,0-1.5,0-5,0-10.5,0-1.3.2-2.4.6-3.6.7-1.8,1.4-3.5,2.1-5,0,0,0,0,0-.1h0c0,0,0,0,0,0,0,0,0,0,0,0,0,0,0,0,0,0,0,0,0,0,0,0,0,0,0,0,0,0,0,0,0,0-.1,0h-19.6c-.3,0-.5.2-.6.4-.8,2-1.3,4.3-1.3,6.9,0,3.6,0,7.3,0,11.2,0,1.2-.5,2.8-1.7,3.1h0s0,0,0,0c0,0,0,0,0,0,0,0,0,0,0,0,0,0,0,0,0,0,0,0,0,0,0,0,0,0,0,0,0,0V.3h0s0,0,0-.1c0,0,0-.1-.1-.1,0,0,0,0-.1,0h-18.5c-.2,0-.3.1-.3.3v59.3h0c0,.2.2.4.4.4h18.4c.2,0,.3-.1.3-.3v-19.8c0-.4.3-.7.7-.7h1c.6,0,1,.5,1,1,0,3.3,0,6.6,0,9.8,0,4,0,6.4,1.8,9.3.3.4.8.7,1.3.7h18.6s0,0,0,0c0,0,0,0,0,0,0,0,0,0,0,0,0,0,0,0,0,0s0,0,0,0c0,0,0,0,0,0,0,0,0,0,0,0h0q0-.1,0-.1ZM330.9,58s0,0,0,0h0s0,0,0,0h-14.2c-.4,0-.8-.2-.9-.5-.8-1.5-1.1-2.7-1.1-4.5,0-3.8,0-7.5,0-10.9,0-2,0-4.5-2.5-4.8-1.4-.2-2.8-.2-4.1,0,0,0,0,0,0,0v20.5c0,.1-.1.2-.2.2h-14.5c-.1,0-.3-.1-.3-.3V2.3c0-.1,0-.2.2-.2h14.3c.2,0,.4.2.4.4v21c0,.1.1.2.2.3,4.1.6,5.9-2.2,5.9-5.8V7.4c0-1.8.3-3.2.8-4.9,0-.2.2-.3.4-.3h15.2s0,0,.1,0h0s0,0,0,0c0,0,0,0,0,0,0,0,0,0,0,0s0,0,0,0c0,0,0,0,0,0h0c0,0,0,.1,0,.2-1.3,2.7-1.6,4.7-1.6,8.1,0,5.9,0,9.5,0,11,0,1.3-.4,2.5-1,3.4-1.2,2-4.8,3.4-7.1,4.1,0,0,0,0,0,0h0s0,0,0,0h0c0,.1,0,.1,0,.1h0s0,0,0,0c1.6.3,3.2.9,4.8,1.7,4,1.9,4.3,5.9,4.2,9.9,0,2.3,0,6.3,0,12,0,1.7.4,3.3,1,4.8,0,0,0,0,0,0h0s0,0,0,0Z"/>
      <path d="M374.7,1.2c-2.8-1.5-5-1.1-9.2-1.2-2,0-3.5.1-4.5.4-1.6.5-2.9,1.2-3.8,2.3,0,0,0,0,0,0h-.1s0,0,0,0c0,0,0,0,0,0,0,0,0,0,0,0,0,0,0,0,0,0l-.6-2.3c0-.2-.2-.3-.4-.3h-19.4s0,0-.1,0h0s0,0,0,0c0,0,0,0,0,0,0,0,0,0,0,0s0,0,0,0h0s0,0,0,0,0,0,0,0c.5,1.3,1,2.9,1.6,4.9.7,2.2.8,4.9.8,7.4,0,16.5,0,32.2,0,47.2,0,0,0,.2.2.2h18.9c.1,0,.2-.1.2-.2V18.1h0c0-.1,0-.1,0-.2,0,0,0,0,0,0,0,0,0,0,0,0s0,0,0,0,0,0,0,0c0,0,0,0,0,0s0,0,0,0c0,0,0,0,0,0,0,0,0,0,0,0,0,0,0,0,0,0s0,0,0,0h0s0,0,0,0h.5s0,0,0,0c0,0,0,0,0,0,0,0,0,0,0,0,0,0,0,0,0,0,0,0,0,0,0,0,0,0,0,0,0,0,0,0,0,0,0,0,0,0,0,0,0,0,0,0,0,0,0,0,0,0,0,0,0,0s0,0,0,0c0,0,0,0,0,0s0,0,0,0c0,0,0,0,0,.1v41.8c0,.1.1.2.2.2h18.5c.2,0,.3-.1.3-.3,0-11.7,0-27.3,0-47,0-4-.1-9.3-4.2-11.5h0ZM376.8,58.1h-14.7c-.1,0-.3-.1-.3-.3,0-10.2,0-22.8,0-37.9,0-3-.3-5.1-3.7-4.6-1.7.2-2.2,2.1-2.2,3.6,0,11.4,0,24.3,0,38.8h0s0,0,0,0c0,0,0,0,0,0,0,0,0,0,0,0,0,0,0,0,0,0,0,0,0,0,0,0,0,0,0,0,0,0,0,0,0,0,0,0,0,0,0,0,0,0h-14.4c-.2,0-.4-.2-.4-.4,0-17.2,0-31.5,0-42.9,0-3,0-5.1-.2-6.2-.3-2.2-.8-4.2-1.4-6.1,0,0,0,0,0,0h0s0,0,0,0c0,0,0,0,0,0,0,0,0,0,0,0s0,0,0,0,0,0,0,0c0,0,0,0,0,0h0s0,0,0,0h14.6c.3,0,.5.2.6.4.2.6.4,1.2.6,1.9.4,1.3.2,3.2.5,4.4,0,0,0,0,0,0h.1s0,0,0,0c.9-3.7,3.7-6.7,7.7-6.7,1.5,0,3.8,0,6.7,0,5.4,0,6.6,4.8,6.6,9.2,0,23.8,0,39.3,0,46.5,0,0,0,.2-.1.2h0Z"/>
      <path d="M402.2.1s0,0-.1,0h-18.8c-.1,0-.2,0-.2.2v59.5c0,.1.1.2.2.2h18.8s.1,0,.1,0c0,0,0,0,0,0,0,0,0,0,0-.1V.3h0s0,0,0-.1c0,0,0,0,0,0h0ZM400.2,57.9h0c0,0,0,.2-.1.2h-14.7s0,0,0,0c0,0,0,0,0,0,0,0,0,0,0,0V2.3c0,0,0-.2.1-.2h14.7c0,0,.1,0,.1.2v55.6Z"/>
      <path d="M450,59.6s0,0,0,0c-1-1.4-1.7-2.8-2.1-4.2-.2-.7-.3-2.2-.3-4.4,0-7.3,0-11.4,0-12.2,0-4.2-1.6-7.3-5.3-9.4,0,0,0,0,0,0h0s0,0,0,0h0c0,0,0,0,0,0,0,0,0,0,0,0,0,0,0,0,0,0,3.8-2,4.5-5.4,4.4-9.5,0-1.5,0-4.9,0-10.5,0-1.3.2-2.4.6-3.6.7-1.8,1.3-3.5,2-5,0,0,0,0,0-.1h0c0,0,0,0,0,0,0,0,0,0,0,0,0,0,0,0,0,0,0,0,0,0,0,0,0,0,0,0,0,0,0,0,0,0-.1,0h-19.6c-.3,0-.5.2-.6.4-.8,2-1.3,4.3-1.3,6.9,0,3.6,0,7.3,0,11.2,0,1.2-.5,2.8-1.7,3.1h0s0,0,0,0c0,0,0,0,0,0,0,0,0,0,0,0,0,0,0,0,0,0,0,0,0,0,0,0,0,0,0,0,0,0V.4c0-.2-.1-.3-.3-.3h-18.5c-.2,0-.3.1-.3.3v59.3h0c0,0,0,.2.1.2s.1,0,.2,0h18.4c.2,0,.3-.2.3-.3v-19.8h0c0,0,0-.1,0-.2,0,0,0,0,0,0h0c0,0,0-.2.1-.2,0,0,0,0,.1,0,.1,0,.2,0,.3,0h1c.6,0,1,.5,1,1,0,3.3,0,6.6,0,9.8,0,4,0,6.4,1.8,9.3.3.4.8.7,1.3.7h18.5s0,0,.1,0c0,0,0,0,0,0,0,0,0,0,0,0,0,0,0,0,0,0,0,0,0,0,0,0s0,0,0,0c0,0,0,0,0,0,0,0,0,0,0,0h0c0-.1,0,0,0,0ZM446.4,58s0,0,0,0c0,0,0,0,0,0h0s0,0,0,0h-14.5c-.1,0-.3,0-.4-.2-.8-1.4-1.2-3.2-1.3-5.3,0-3.5,0-7.4-.1-11.5,0-1.9-.5-3.6-2.9-3.7-1,0-2.2,0-3.4,0-.1,0-.3.1-.3.3v20.2c0,.2-.2.4-.4.4h-14.5c-.1,0-.2,0-.2-.2V2.4h0s0,0,0-.1,0,0,0,0c0,0,.1,0,.2,0h14.5c.2,0,.3.2.3.3v21.3s0,0,0,0c0,0,0,0,0,0,0,0,0,0,0,0,0,0,0,0,0,0,0,0,0,0,0,0s0,0,0,0c0,0,0,0,0,0,0,0,0,0,0,0,1.2-.1,2.3-.1,3.4-.8,1.6-.9,2.2-3.1,2.2-4.9,0-2.9,0-6.8,0-11.7,0-1.5.3-2.9.8-4.2,0-.2.3-.4.5-.4h15.2s0,0,.1,0h0s0,0,0,0c0,0,0,0,0,0s0,0,0,0c0,0,0,0,0,0,0,0,0,0,0,0h0c0,0,0,.1,0,.1-1.4,2.5-1.7,4.9-1.7,8,0,6,0,9.5,0,10.8,0,1.7-.5,3.1-1.4,4.3-1.4,1.9-4.4,3.1-6.8,3.8,0,0,0,0,0,0,0,0,0,0,0,0,0,0,0,0,0,0h0c0,.1,0,.1,0,.1h0s0,0,0,0c4.7.8,8.8,3,8.9,8.3.1,6.2.1,11,0,14.6,0,1.9.3,3.6,1.1,5.3,0,0,0,0,0,0h0c0,0,0,0,0,.1,0,0,0,0,0,0h0Z"/>
      <path class="st0" d="M246.3,2.1h-29.8c0,0-.1,0-.1,0s0,0,0,.1v11.8c0,0,0,.1,0,.1s0,0,.1,0h7.2s0,0,.1,0c0,0,0,0,0,0s0,0,0,0c0,0,0,0,0,.1v43.3s0,0,0,.1,0,0,.1,0h14.5c0,0,.1,0,.1,0s0,0,0-.1V14.5c0,0,0-.1.1-.2,0,0,0,0,0,0h7.3c.1,0,.2,0,.2-.2V2.3c0-.1,0-.2-.2-.2h0Z"/>
      <path class="st0" d="M400,2.1h-14.7c0,0-.1,0-.1.2v55.6s0,0,0,0c0,0,0,0,0,0,0,0,0,0,0,0h14.7c0,0,.1,0,.1-.2V2.3c0,0,0-.2-.1-.1Z"/>
      <path class="st0" d="M446.5,57.8h0c0,0,0-.1,0-.1-.8-1.7-1.1-3.4-1.1-5.3,0-3.6,0-8.4,0-14.6-.1-5.3-4.2-7.4-8.9-8.3,0,0,0,0,0,0h0s0,0,0,0h0c0-.1,0-.1,0-.2,0,0,0,0,0,0,0,0,0,0,0,0,2.4-.8,5.4-2,6.8-3.8.9-1.1,1.3-2.5,1.4-4.3,0-1.2,0-4.8,0-10.8,0-3.1.3-5.5,1.7-8,0,0,0,0,0-.1h0c0,0,0,0,0,0,0,0,0,0,0,0,0,0,0,0,0,0s0,0,0,0c0,0,0,0,0,0,0,0,0,0-.1,0h-15.2c-.2,0-.5.2-.5.4-.5,1.3-.8,2.7-.8,4.2,0,4.9,0,8.7,0,11.7,0,1.8-.7,4-2.2,4.9-1,.6-2.1.6-3.4.8h0s0,0,0,0c0,0,0,0,0,0,0,0,0,0,0,0,0,0,0,0,0,0,0,0,0,0,0,0s0,0,0,0c0,0,0,0,0,0V2.4c0-.2-.1-.3-.3-.3h-14.5c0,0-.1,0-.2,0,0,0,0,0,0,0s0,0,0,.1v55.5c0,0,0,.2.2.2h14.5c.2,0,.4-.2.4-.4v-20.2c0-.2.1-.3.3-.3,1.2,0,2.3,0,3.4,0,2.3.1,2.9,1.8,2.9,3.7,0,4.2,0,8,.1,11.5,0,2.1.5,3.8,1.3,5.3,0,.1.2.2.4.2h14.5s0,0,0,0h0s0,0,0,0c0,0,0,0,0,0,0,0,0,0,0,0s0,0,0,0h0s0,0,0,0Z"/>
      <path class="st0" d="M284.3,2.2c0,0-.1,0-.2,0-9.7,0-16.6,0-21,0-.9,0-1.9.2-3.3.6-1.7.5-3,1.6-3.7,3.2-1.5,3.2-1.7,6.5-1.7,10.2-.1,12.1,0,22.6.1,31.6,0,4.1,1.7,7.9,5.5,9.4,1.3.5,3.3.8,6,.8,6.6,0,12.6,0,18.1-.1.2,0,.4-.2.4-.4v-11.9c0-.1-.1-.2-.2-.2h-14.3c0,0-.1,0-.2,0,0,0,0,0,0,0s0,0,0,0c0,0,0-.1,0-.2v-8.3h0c0,0,0-.1,0-.2,0,0,0,0,0,0s0,0,0,0c0,0,.1,0,.2,0h14.2c.1,0,.3-.1.3-.3v-12c0-.1-.1-.2-.2-.2h-14.2c-.2,0-.3-.1-.3-.3v-9c0-.2.1-.3.3-.3h14.2c.2,0,.4-.2.4-.4V2.6h0c0-.1,0-.2-.2-.3h0Z"/>
      <path class="st0" d="M329.8,53.1c0-5.7,0-9.7,0-12,0-4-.2-7.9-4.2-9.9-1.6-.8-3.2-1.3-4.8-1.7,0,0,0,0,0,0h0s0,0,0,0h0c0,0,0-.1,0-.1,0,0,0,0,0,0,0,0,0,0,0,0,2.3-.7,5.9-2.1,7.1-4.1.6-1,.9-2.1,1-3.4,0-1.5,0-5.2,0-11,0-3.4.3-5.4,1.6-8.1,0,0,0,0,0-.1h0c0,0,0,0,0-.1,0,0,0,0,0,0,0,0,0,0,0,0,0,0,0,0,0,0,0,0,0,0,0,0,0,0,0,0-.1,0h-15.2c-.2,0-.4.1-.4.3-.5,1.7-.7,3.1-.8,4.9v10.7c0,3.6-1.8,6.4-5.9,5.8-.1,0-.2-.1-.2-.3V2.6c0-.2-.2-.4-.4-.4h-14.3c-.1,0-.2,0-.2.2v55.4c0,.2.1.3.3.3h14.5c.1,0,.2-.1.2-.2v-20.5s0,0,0,0c1.4-.1,2.8-.1,4.1,0,2.5.3,2.5,2.8,2.5,4.8,0,3.5,0,7.1,0,10.9s.2,3,1.1,4.5c.2.3.5.5.9.5h14.2s0,0,0,0h0s0,0,0,0h0s0,0,0,0c-.7-1.5-1-3.1-1-4.8h0Z"/>
      <path class="st0" d="M376.9,11.4c0-4.5-1.2-9.2-6.6-9.2-2.9,0-5.1,0-6.7,0-4,0-6.8,3-7.7,6.7,0,0,0,0,0,0h-.1s0,0,0,0c-.3-1.2-.1-3-.5-4.4-.2-.7-.4-1.3-.6-1.9-.1-.3-.4-.4-.6-.4h-14.6s0,0,0,0h0s0,0,0,0c0,0,0,0,0,0s0,0,0,0c0,0,0,0,0,0,0,0,0,0,0,0,0,0,0,0,0,0,0,0,0,0,0,0,.6,1.8,1.1,3.9,1.4,6,.2,1.1.2,3.2.2,6.2,0,11.4,0,25.6,0,42.9,0,.2.2.4.4.4h14.4s0,0,0,0c0,0,0,0,0,0,0,0,0,0,0,0,0,0,0,0,0,0,0,0,0,0,0,0s0,0,0,0c0,0,0,0,0,0,0,0,0,0,0,0,0-14.5,0-27.5,0-38.8,0-1.5.5-3.4,2.2-3.6,3.4-.5,3.7,1.6,3.7,4.6,0,15.1,0,27.7,0,37.9,0,.2.1.3.3.3h14.7c0,0,.1,0,.1-.2,0-7.3,0-22.8,0-46.5h0Z"/>
    </g>
  </g>
</svg>