<?xml version="1.0" encoding="UTF-8"?>
<svg id="Layer_2" data-name="Layer 2" xmlns="http://www.w3.org/2000/svg" viewBox="0 0 453.58 38.58">
  <g id="Layer_1-2" data-name="Layer 1">
    <g>
      <path d="M216.01,37.86s-.04-.04-.05-.06c.02.02.03.04.05.06Z"/>
      <path d="M216.28,38.05s-.05-.03-.07-.04c.02.01.05.03.07.04Z"/>
      <path d="M216.14,37.97s-.04-.03-.06-.05c.02.02.04.04.06.05Z"/>
      <path d="M216.44,38.11s-.05-.02-.08-.02c.03,0,.05.02.08.02Z"/>
      <path d="M216.59,38.13s.03,0,.04,0c-.04,0-.07,0-.11-.01.02,0,.04,0,.07,0Z"/>
      <path d="M215.79,37.42s0-.06,0-.09c0,.03,0,.06,0,.09Z"/>
      <path d="M179.17,38.13c-.12,0-.24-.03-.35-.07.11.05.23.07.35.07Z"/>
      <path d="M215.83,37.59s-.02-.05-.03-.08c0,.03.01.05.03.08Z"/>
      <path d="M215.91,37.73s-.03-.05-.04-.07c.01.02.02.05.04.07Z"/>
      <path d="M77.42,7.15s0,0,0,0c0-.02,0-.03,0-.04,0,.01,0,.02,0,.04Z"/>
      <path d="M220.46,37.9c-.06.05-.12.09-.18.12.07-.03.13-.07.18-.12Z"/>
      <path d="M178.54,37.86c-.12-.12-.21-.28-.25-.46.04.18.12.33.25.46Z"/>
      <path d="M102.55,15.21c-.05.02-.11.03-.16.05.05-.02.11-.03.16-.05Z"/>
      <path d="M102.21,15.31c-.05.01-.1.02-.16.03.05-.01.1-.02.16-.03Z"/>
      <path d="M101.48,15.43c-.06,0-.12,0-.18,0,.06,0,.12,0,.18,0Z"/>
      <path d="M77.54,6.96s.03,0,.04,0c-.01,0-.03,0-.04,0Z"/>
      <path d="M77.48,7.01s.02-.02.03-.02c-.01,0-.02.01-.03.02Z"/>
      <path d="M77.43,7.08s.01-.02.02-.03c0,.01-.02.02-.02.03Z"/>
      <path d="M101.85,15.38c-.05,0-.11.01-.16.02.05,0,.11-.01.16-.02Z"/>
      <path d="M214.44,17.54c-.05.04-.11.08-.16.12.05-.04.11-.08.16-.12Z"/>
      <path d="M213.51,18.16c-.08.04-.16.08-.25.12.08-.04.17-.08.25-.12Z"/>
      <path d="M214,17.87c-.05.04-.11.07-.17.1.05-.03.11-.06.17-.1Z"/>
      <path d="M214.85,17.18c-.05.05-.11.1-.17.15.06-.05.12-.1.17-.15Z"/>
      <path d="M211.86,18.8c-.1.02-.2.04-.3.06.1-.02.2-.04.3-.06Z"/>
      <path d="M215.21,16.79c-.04.05-.09.1-.14.15.05-.05.1-.1.14-.15Z"/>
      <path d="M211.26,18.93c-.11.02-.22.03-.34.04.11-.01.23-.02.34-.04Z"/>
      <path d="M210.63,19.01c-.1,0-.21,0-.31.01.1,0,.21,0,.31-.01Z"/>
      <path d="M212.44,18.63c-.09.03-.19.06-.28.08.09-.03.19-.05.28-.08Z"/>
      <path d="M216.28,13.97h0c0,.08,0,.15-.01.22,0-.08.01-.15.01-.22Z"/>
      <path d="M215.85,21.83s-.06-.03-.07-.06c.02.03.04.05.07.06Z"/>
      <path d="M216.25,14.49c0,.08-.03.15-.04.23.01-.08.03-.15.04-.23Z"/>
      <path d="M215.53,16.38c-.04.06-.08.11-.12.16.04-.05.08-.11.12-.16Z"/>
      <path d="M215.77,21.75s0-.04,0-.06c0,.01,0,.02,0,.04,0,0,0,.01.01.02Z"/>
      <path d="M215.77,21.63s0-.01.01-.02c0,0,0,.01-.01.02Z"/>
      <path d="M216.15,14.99c-.02.09-.06.18-.09.27.03-.09.06-.18.09-.27Z"/>
      <path d="M215.79,15.93c-.04.07-.08.13-.12.2.04-.07.08-.13.12-.2Z"/>
      <path d="M216,15.47c-.03.08-.07.16-.11.24.04-.08.08-.16.11-.24Z"/>
      <path d="M212.99,18.41c-.1.04-.2.08-.3.12.1-.04.2-.07.3-.12Z"/>
      <path d="M46.69,6.77s0,0,0,0c0,0,.02-.01.03-.01,0,0-.01,0-.02,0Z"/>
      <path d="M37.18,24.01s0,0,0,0c-.01,0-.02-.01-.03-.02,0,0,.01.01.02.02Z"/>
      <path d="M37.08,23.9s0-.03,0-.04c0,.01,0,.03,0,.04Z"/>
      <path d="M37.12,23.97s-.01-.02-.02-.03c0,.01.01.02.02.03Z"/>
      <path d="M37.07,23.82s0-.06.02-.09c-.02.03-.02.06-.02.09Z"/>
      <path d="M56.41,23.97s.01-.02.02-.03c0,.01-.01.02-.02.03Z"/>
      <path d="M56.44,23.87s0,0,0,0c0,.01,0,.02,0,.03,0,0,0-.02,0-.03Z"/>
      <path d="M46.89,6.78s.06.04.07.07c-.02-.03-.04-.06-.07-.07Z"/>
      <path d="M46.83,6.75s.03,0,.04.01c-.01,0-.03,0-.04-.01Z"/>
      <path d="M46.75,6.75s.03,0,.04,0c-.01,0-.03,0-.04,0Z"/>
      <path d="M24.66,31.09s0-.03,0-.04c0,.01,0,.03,0,.04Z"/>
      <path d="M56.33,24.05s-.06.02-.09.02c.03,0,.06,0,.09-.02Z"/>
      <path d="M24.55,30.93s.02.01.03.02c0,0-.01-.01-.02-.02,0,0,0,0-.01,0Z"/>
      <path d="M7.46,24.06s-.07-.01-.09-.04c.02.02.05.04.09.04h0Z"/>
      <path d="M56.39,24s-.02.02-.03.03c.01,0,.02-.02.03-.03Z"/>
      <path d="M24.66,31.13s0,.07-.03.1c.02-.03.03-.07.03-.1Z"/>
      <path d="M24.61,30.98s.02.02.02.03c0-.01-.01-.02-.02-.03Z"/>
      <path d="M103.97,14.39s-.08.07-.12.1c.04-.03.08-.07.12-.1Z"/>
      <path d="M104.37,13.93s-.05.06-.08.1c.02-.03.05-.06.08-.1Z"/>
      <path d="M102.88,15.09c-.05.02-.11.04-.16.06.05-.02.11-.04.16-.06Z"/>
      <path d="M104.65,13.41s-.04.09-.06.14c.02-.05.05-.09.06-.14Z"/>
      <path d="M104.53,13.68s-.05.08-.08.13c.03-.04.05-.08.08-.13Z"/>
      <path d="M77.58,22.35s-.04,0-.05.01c.02,0,.04,0,.05-.01Z"/>
      <path d="M103.18,14.95s-.09.04-.13.06c.04-.02.09-.04.13-.06Z"/>
      <path d="M103.73,14.59s-.09.06-.14.1c.05-.03.09-.06.14-.1Z"/>
      <path d="M103.47,14.78s-.08.05-.12.07c.04-.02.08-.05.12-.07Z"/>
      <path d="M104.19,14.17s-.06.06-.09.09c.03-.03.06-.06.09-.09Z"/>
      <path d="M77.36,22.62s0-.04,0-.06c0,.02,0,.03,0,.05,0,0,0,0,0,0Z"/>
      <path d="M110.05,18.03s0-.04.01-.06c0,.02-.01.04-.01.06Z"/>
      <path d="M110.12,18.16s-.04-.05-.05-.07c0,.01,0,.03.01.04.01.01.02.02.03.03Z"/>
      <path d="M77.41,22.47s-.02.03-.03.04c0-.02.02-.03.03-.04Z"/>
      <path d="M104.8,12.85s-.02.09-.03.14c0-.05.02-.09.03-.14Z"/>
      <path d="M77.44,22.43s.03-.02.04-.03c-.01.01-.03.02-.04.03Z"/>
      <path d="M104.74,13.14s-.03.09-.04.14c.01-.05.03-.09.04-.14Z"/>
      <path d="M104.82,12.56h0s0,.09,0,.13c0-.04,0-.09,0-.13Z"/>
      <path d="M311.96,14.91h0c0,.08,0,.15-.01.23,0-.08.01-.15.01-.23Z"/>
      <path d="M401.27,16.94s.02.06.03.09c0-.03-.02-.06-.03-.09Z"/>
      <path d="M371.53,20.75c-.09,0-.18.04-.25.08.08-.04.16-.07.25-.08Z"/>
      <path d="M280.41,5.58h0s0-.01,0-.02c0,0,0,.01,0,.02Z"/>
      <path d="M401.18,16.77s.03.05.05.08c-.02-.03-.03-.06-.05-.08Z"/>
      <path d="M371.07,21.03c-.06.09-.1.2-.1.32,0-.12.04-.22.1-.32Z"/>
      <path d="M411.79,5.09s-.04.01-.06.02c.02,0,.04-.01.06-.02Z"/>
      <path d="M411.93,5.07s-.05,0-.08,0c.03,0,.05,0,.08,0Z"/>
      <path d="M401.06,16.63s.04.05.06.07c-.02-.02-.04-.05-.06-.07Z"/>
      <path d="M412.27,5.12s-.09-.04-.14-.05c.05.01.09.03.14.05Z"/>
      <path d="M320.83,37.77c.05.07.11.13.18.17-.07-.05-.13-.11-.18-.17Z"/>
      <path d="M325.63,24.69c0-.16.05-.32.14-.44-.09.13-.14.28-.14.44h0Z"/>
      <path d="M411.66,5.14s-.04.02-.06.03c.02-.01.04-.02.06-.03Z"/>
      <path d="M321.58,38.13h0c-.17,0-.33-.05-.47-.12.14.08.3.12.47.12Z"/>
      <path d="M280.65,5.01s.02-.01.02-.02c0,0-.02.01-.02.02Z"/>
      <path d="M400.36,16.34s0,0,0,0c.04,0,.07,0,.11.01-.03,0-.07-.01-.1-.01Z"/>
      <path d="M400.74,16.42s.06.03.08.04c-.03-.01-.05-.03-.08-.04Z"/>
      <path d="M400.91,16.51s.05.04.07.06c-.02-.02-.05-.04-.07-.06Z"/>
      <path d="M400.55,16.36s.06.02.09.03c-.03,0-.06-.02-.09-.03Z"/>
      <path d="M401.33,17.13s0,.07.01.1c0-.03,0-.07-.01-.1Z"/>
      <path d="M411.35,5.48s.02-.03.03-.05c0,.01-.02.03-.02.04,0,0,0,0,0,0Z"/>
      <path d="M411.45,5.31s-.03.03-.04.05c.01-.02.03-.03.04-.05Z"/>
      <path d="M448.36,33.3s-.04.03-.05.04c.02-.01.04-.03.05-.04Z"/>
      <path d="M411.5,5.26s.03-.03.05-.04c-.02.01-.04.03-.05.04Z"/>
      <path d="M411.99,5.06s.07,0,.11.01c-.04,0-.07-.01-.11-.01Z"/>
      <path d="M184.17,19.12h0s-.01,0-.02,0c0,0,.01,0,.02,0Z"/>
      <path d="M448.51,33.08s-.02.03-.03.05c0-.01.02-.03.02-.04,0,0,0,0,0,0Z"/>
      <path d="M447.87,33.5s-.07,0-.11-.01c.04,0,.07.01.11.01Z"/>
      <path d="M411.26,37.5c-.02.11-.07.21-.12.3.06-.09.1-.19.12-.3Z"/>
      <path d="M447.93,33.49s.05,0,.08,0c-.03,0-.05,0-.08,0Z"/>
      <path d="M447.59,33.43s.09.04.14.05c-.05-.01-.09-.03-.14-.05Z"/>
      <path d="M448.55,32.98s0-.02,0-.03c0,.01,0,.02,0,.03Z"/>
      <path d="M411.31,5.58s0,.02,0,.03c0-.01,0-.02,0-.03Z"/>
      <path d="M448.4,33.25s.03-.03.04-.05c-.01.02-.03.03-.04.05Z"/>
      <path d="M448.07,33.47s.04-.01.06-.02c-.02,0-.04.01-.06.02Z"/>
      <path d="M448.2,33.42s.04-.02.06-.03c-.02.01-.04.02-.06.03Z"/>
      <path d="M311.05,17.47c-.06.08-.13.16-.2.23.07-.08.14-.15.2-.23Z"/>
      <path d="M280.4,37.21h0s0,.01,0,.02c0,0,0-.01,0-.02Z"/>
      <path d="M310.74,17.83c-.06.06-.12.12-.19.18.06-.06.13-.12.19-.18Z"/>
      <path d="M280.34,37.51c-.05.13-.12.25-.21.35.1-.1.17-.22.21-.35Z"/>
      <path d="M310.02,18.45c-.06.05-.13.09-.2.13.07-.04.14-.08.2-.13Z"/>
      <path d="M309.61,18.71c-.07.04-.15.08-.22.11.07-.04.15-.07.22-.11Z"/>
      <path d="M310.4,18.15s-.09.07-.14.11c.05-.04.1-.07.14-.11Z"/>
      <path d="M311.31,17.1c-.05.08-.11.16-.16.23.06-.08.11-.15.16-.23Z"/>
      <path d="M311.93,15.38c0,.08-.03.16-.04.24.01-.08.03-.16.04-.24Z"/>
      <path d="M311.85,15.83c-.02.08-.05.16-.07.23.02-.08.05-.15.07-.23Z"/>
      <path d="M309.18,18.94c-.06.03-.12.05-.18.07.06-.03.12-.05.18-.07Z"/>
      <path d="M275.37,1.01h0c0-.12.03-.23.09-.33-.05.1-.09.21-.09.33Z"/>
      <path d="M279.78,38.07c-.09.03-.19.05-.29.05.1,0,.2-.02.29-.05Z"/>
      <path d="M311.72,16.27c-.03.08-.07.16-.1.25.04-.08.07-.16.1-.25Z"/>
      <path d="M311.54,16.7c-.05.09-.1.18-.15.27.05-.09.11-.18.15-.27Z"/>
      <path d="M280.45,18.94c-.04-.1-.06-.21-.06-.32,0,.11.02.22.06.32Z"/>
      <path d="M307.19,19.47c-.09,0-.18,0-.27.01.09,0,.18,0,.27-.01Z"/>
      <path d="M281.2,19.44h0c-.23,0-.43-.09-.57-.24.15.15.35.24.57.24Z"/>
      <path d="M183.35,5.35c.03-.07.07-.14.12-.2-.05.06-.09.13-.12.2Z"/>
      <path d="M183.84,19.06c-.07-.03-.14-.07-.2-.12.06.05.13.09.2.12Z"/>
      <path d="M183.63,4.99s.06-.04.08-.05c-.03.02-.06.03-.08.05Z"/>
      <path d="M280.63,19.2c-.07-.07-.13-.16-.17-.26.04.1.1.19.17.26Z"/>
      <path d="M183.28,5.67h0c0-.12.02-.23.06-.33-.04.1-.07.21-.06.33Z"/>
      <path d="M307.72,19.4c-.1.02-.2.03-.3.04.1-.01.2-.02.3-.04Z"/>
      <path d="M275.57.53s.1-.08.15-.11c-.06.03-.11.07-.15.11Z"/>
      <path d="M308.22,19.29c-.09.02-.18.04-.27.06.09-.02.18-.04.27-.06Z"/>
      <path d="M308.71,19.13c-.06.02-.13.04-.19.06.06-.02.13-.04.19-.06Z"/>
      <path d="M183.49,18.78s-.04-.06-.05-.08c.02.03.03.06.05.08Z"/>
      <path d="M51.99,1.41c-.43-.75-1.01-1.17-1.76-1.27-.76-.1-3.04-.12-6.85-.05-.12,0-.24.02-.35.06-.79.28-1.29.62-1.52,1.02-4.03,7.09-8.28,14.64-12.75,22.67-.07.13-.21.21-.35.21H7.46s-.07-.01-.09-.04-.04-.06-.04-.09c0-.44,0-7.6.01-21.49,0-1.56-.76-2.36-2.29-2.39-1.82-.03-3.05.01-3.71.13-.15.03-.3.1-.42.2C.31.87,0,1.56,0,2.43,0,11.45,0,19.53,0,26.66c0,4.15.43,4.25,4.77,4.24,2.67,0,9.23,0,19.68,0,.03,0,.07.01.1.03,0,0,0,0,.01,0,0,0,.01.01.02.02.01,0,.02.02.03.03,0,.01.02.02.02.03,0,.01.01.02.02.04,0,.01,0,.03,0,.04,0,.01,0,.02,0,.04,0,.03,0,.07-.03.1-1.2,2-2.07,3.55-2.6,4.65-.42.88-.27,1.63.46,2.26.15.12.33.2.52.21,2.1.18,5.47.68,6.65-1.29,1.11-1.85,2.18-3.79,3.2-5.8.11-.23.35-.37.6-.37h26.39c.3,0,.58.17.71.43,1.4,2.65,2.5,4.62,3.32,5.89,1.08,1.7,4.08,1.35,5.96,1.16,1.71-.18,2.01-1.52,1.25-2.89C62.05,19.26,55.68,7.9,51.99,1.41ZM56.39,24s-.02.02-.03.03c0,0-.01.01-.02.02,0,0,0,0,0,0-.03.01-.06.02-.09.02l-18.96-.04s-.06-.01-.09-.02c0,0,0,0,0,0,0,0-.01-.01-.02-.02-.01,0-.02-.02-.03-.03,0-.01-.01-.02-.02-.03,0-.01-.01-.02-.02-.03,0-.01,0-.03,0-.04,0,0,0-.02,0-.03,0,0,0,0,0,0,0-.03,0-.06.02-.09l9.51-16.89s.04-.06.07-.07c0,0,0,0,0,0,0,0,.01,0,.02,0,.01,0,.03,0,.04-.01.01,0,.03,0,.04,0,.01,0,.03,0,.04,0,.01,0,.03,0,.04.01,0,0,.01,0,.02,0,0,0,0,0,0,0,.03.02.06.04.07.07l9.45,16.92s.02.06.02.09c0,0,0,0,0,0,0,0,0,.02,0,.03,0,.01,0,.03,0,.04,0,.01-.01.02-.02.03,0,.01-.01.02-.02.03Z"/>
      <path d="M110.12,18.16s-.02-.02-.03-.03c-.01-.01,0-.03-.01-.04,0-.02-.02-.04-.02-.06,0-.02,0-.04.01-.06,0-.03.01-.06.04-.08,2.34-2.02,2.45-6.47,2.11-9.58-.58-5.31-4.68-7.78-9.71-8.04-8.39-.43-17.77-.24-30.21-.21-2.39,0-2.21,1.96-2.22,4.12-.02,4.64-.02,10.42.02,17.35,0,.53.2,1.12.58,1.77,1.49,2.54,3,5.13,4.55,7.76.26.44.78.64,1.26.48.52-.17.8-.57.83-1.23.1-1.85.12-4.42.05-7.71,0,0,0,0,0,0,0-.02,0-.03,0-.05,0-.02,0-.04,0-.05,0-.02.02-.03.03-.04,0-.01.02-.03.03-.04.01-.01.03-.02.04-.03.01-.01.03-.02.04-.03.02,0,.04,0,.05-.01.02,0,.04-.01.06-.01,5.92-.06,13.72-.02,23.4.1,1.3.02,2.39.13,3.28.35.78.19,1.4.79,1.61,1.57.4,1.47.45,3.12.17,4.96-.37,2.4-5.34,2.35-7.18,2.38-5.22.08-9.26.09-12.1.04-1.24-.02-2.04.12-2.41.43-1.34,1.1-2.92,2.42-4.75,3.98-.5.43-.75.85-.76,1.27,0,.6.48,1.08,1.08,1.09,8.06.1,15.13.08,21.19-.08,2.2-.06,4.23-.32,6.09-.8,3.72-.94,5.59-3.16,6.22-7.08.41-2.53.35-5.07-.17-7.62-.42-2.05-1.48-3.65-3.18-4.78ZM104.82,12.56s0,.09,0,.13c0,.05,0,.11,0,.16,0,.05-.02.09-.03.14,0,.05-.02.1-.03.15-.01.05-.03.09-.04.14-.02.05-.03.09-.05.14-.02.05-.04.09-.06.14-.02.04-.04.09-.06.13-.02.04-.05.08-.08.13-.03.04-.05.09-.08.13-.02.03-.05.06-.08.1-.04.05-.07.1-.11.14-.03.03-.06.06-.09.09-.04.04-.08.09-.13.13-.04.03-.08.07-.12.1-.04.03-.08.07-.12.1-.04.03-.09.06-.14.1-.04.03-.08.06-.13.09-.04.03-.08.05-.12.07-.05.03-.11.07-.16.1-.04.02-.09.04-.13.06-.06.03-.12.06-.18.08-.05.02-.11.04-.16.06-.06.02-.11.04-.17.06-.05.02-.11.03-.16.05-.06.02-.12.04-.18.05-.05.01-.1.02-.16.03-.07.01-.13.03-.2.04-.05,0-.11.01-.16.02-.07,0-.14.02-.21.03-.06,0-.12,0-.18,0-.07,0-.13,0-.2,0h0l-23.44.08c-.11,0-.21-.09-.21-.21l-.03-8.16s0,0,0,0c0-.01,0-.03,0-.04,0-.01,0-.03,0-.04,0-.01.01-.02.02-.03,0-.01.01-.02.02-.03,0,0,.02-.02.03-.02.01,0,.02-.02.03-.02.01,0,.03,0,.04,0,.01,0,.02,0,.04,0,0,0,0,0,0,0l23.44-.08c2.06,0,3.73,1.27,3.74,2.86v2.83s0,0,0,0Z"/>
      <path d="M172.99,18.99h-23.02c-.12,0-.24.03-.35.07-.11.05-.2.11-.29.19-.12.12-.21.28-.25.46-.01.06-.02.12-.02.18v2.67c0,.47.38.85.86.85h18.35c.19,0,.34.15.34.34.01,1.98-.12,3.85-.4,5.62-.56,3.69-4.68,4-7.61,4.12-3.13.13-6.9.18-11.32.15-5.25-.03-8.83-.18-10.76-.44-3.45-.46-4.9-1.54-5.24-5.13-.48-5.13-.57-10.34-.26-15.65.19-3.37.65-6.42,4.54-6.99,6.68-.98,13.43-.77,20.34-.54,2.71.09,5.01.31,6.89.64,3.13.56,2.98,3.19,3.48,6.02.06.34.35.59.7.59h3.96c.19,0,.34-.14.35-.33.18-3.08-.53-6.6-2.98-8.63-2.7-2.24-5.72-2.45-9.52-2.63-5.89-.29-11.27-.38-16.12-.27-4.14.09-9.71.13-13.18,2.48-2.8,1.89-3.2,6.63-3.46,9.68-.46,5.39-.35,11.05.35,17,.59,4.95,3.32,7.66,8.18,8.14,5.28.52,11.89.71,19.83.56,2.86-.05,4.87-.14,6.03-.25,4.38-.43,8.74-1.11,10.17-5.65,1.18-3.74,1.07-9.26,1.02-12.63,0-.34-.28-.62-.62-.61Z"/>
      <path d="M207.79.39c-8-.06-17.65-.06-28.95-.02-.31,0-.57.26-.57.57v36.28c0,.06,0,.12.02.18.04.18.12.33.25.46.08.08.18.15.29.19.11.05.23.07.35.07h3.3c.45,0,.81-.36.81-.82v-12.99c0-.4.32-.73.72-.73,9.67-.1,18.15-.06,25.43.1,3.63.08,6.02,1.22,6.2,5.16.17,3.83.22,6.62.14,8.37,0,.01,0,.03,0,.04,0,.02,0,.04,0,.07,0,.03,0,.06,0,.09,0,.03.01.05.02.08,0,.03.01.05.03.08.01.03.02.05.04.08.01.02.02.05.04.07.02.02.03.04.05.07.02.02.03.04.05.06.02.02.04.04.06.05.02.02.04.04.06.05.02.02.05.03.07.04.02.01.05.03.07.04.03.01.05.02.08.03.03,0,.05.02.08.02.03,0,.06,0,.09.01.04,0,.07.01.11.01h3.22c.15,0,.3-.04.43-.11.07-.03.13-.07.18-.12.07-.06.13-.12.18-.19.1-.15.16-.33.16-.53-.01-2.86-.04-5.86-.1-9.02-.06-3.36-1.68-5.47-4.85-6.33-.03,0-.06-.03-.07-.06,0,0,0-.01-.01-.02,0,0,0-.01-.01-.02,0-.01,0-.02,0-.04,0-.02,0-.04,0-.06,0,0,0-.01.01-.02.02-.03.04-.05.08-.06,2.77-.52,4.47-1.97,5.08-4.36.61-2.33.59-5.43.38-8.14-.63-8.09-6.86-8.62-13.53-8.67ZM216.28,13.97c0,.08,0,.15-.01.22,0,.1,0,.19-.02.29,0,.08-.03.15-.04.23-.02.09-.03.18-.05.27-.02.09-.06.18-.09.27-.02.07-.04.14-.07.21-.03.08-.07.16-.11.24-.03.07-.06.15-.1.22-.04.07-.08.13-.12.2-.05.08-.09.17-.15.24-.04.06-.08.11-.12.16-.06.09-.12.17-.19.26-.04.05-.09.1-.14.15-.07.08-.14.16-.22.24-.05.05-.11.1-.17.15-.08.07-.15.14-.24.21-.05.04-.11.08-.16.12-.09.07-.19.14-.29.21-.05.04-.11.07-.17.1-.1.07-.21.13-.32.19-.08.04-.16.08-.25.12-.09.04-.18.09-.27.13-.1.04-.2.08-.3.12-.08.03-.17.07-.25.1-.09.03-.19.06-.28.08-.1.03-.19.06-.3.09-.1.02-.2.04-.3.06-.1.02-.2.05-.31.06-.11.02-.22.03-.34.04-.1.01-.19.03-.29.04-.1,0-.21,0-.31.01-.11,0-.22.01-.33.01h0l-25.82.09h0s-.01,0-.02,0c-.11,0-.22-.02-.31-.06-.07-.03-.14-.07-.2-.12-.06-.05-.11-.1-.16-.16-.02-.03-.04-.06-.05-.08-.07-.12-.11-.26-.11-.41h0s-.04-12.61-.04-12.61h0c0-.12.02-.23.06-.33.03-.07.07-.14.12-.2.05-.06.1-.11.16-.16.03-.02.06-.04.08-.05.12-.07.26-.11.41-.11h0l25.82-.09c3.48-.01,6.32,2.23,6.33,5.02v4.22s.01,0,.01,0Z"/>
      <path d="M269.17.3h-3.15c-.52,0-.94.42-.94.95.06,14.53.05,23.01-.02,25.45-.1,3.7-.85,6.2-4.77,6.54-4.42.38-8.44.49-12.27.49-3.83.01-7.85-.08-12.27-.45-3.92-.32-4.68-2.82-4.8-6.52-.08-2.44-.11-10.92-.11-25.45,0-.52-.42-.94-.94-.94h-3.15c-.5.01-.91.42-.92.93.02,10.69-.06,15.99.14,24.02.11,4.07.5,6.75,1.18,8.02,1.45,2.71,4.03,4.19,7.73,4.45,4.38.31,8.76.46,13.15.46,4.39,0,8.77-.18,13.15-.51,3.7-.28,6.27-1.77,7.71-4.49.68-1.28,1.06-3.95,1.15-8.02.17-8.03.07-13.33.05-24.02,0-.51-.41-.92-.92-.92Z"/>
      <path d="M312.11,1.36c-2.55-.69-5.4-1.04-8.57-1.04-14.52.03-23.68.03-27.49,0h0c-.12,0-.23.03-.33.09-.06.03-.11.07-.15.11-.04.04-.08.1-.11.15-.05.1-.09.21-.09.33v36.16c0,.53.43.96.97.96h3.14s.01,0,.02,0c.1,0,.2-.02.29-.05.13-.05.25-.12.35-.21.1-.1.17-.22.21-.35.03-.09.05-.19.05-.29,0,0,0-.01,0-.02v-12.52c0-.44.36-.79.79-.79,7.08.03,14.7.02,22.86,0,3.34,0,5.61-.19,6.82-.54,3.56-1.01,5.56-3.41,6-7.2.54-4.71.91-13.26-4.76-14.8ZM311.96,14.91h0c0,.08,0,.15-.01.23,0,.08,0,.16-.01.24,0,.08-.03.16-.04.24-.01.07-.02.14-.04.21-.02.08-.05.16-.07.23-.02.07-.04.14-.06.21-.03.08-.07.16-.1.25-.03.06-.05.12-.07.18-.05.09-.1.18-.15.27-.03.04-.05.09-.07.13-.05.08-.11.16-.16.23-.03.05-.07.1-.1.14-.06.08-.13.16-.2.23-.04.04-.07.08-.1.12-.06.06-.12.12-.19.18-.05.05-.1.1-.16.15-.04.04-.09.07-.14.11-.08.06-.15.13-.24.19-.06.05-.13.09-.2.13-.07.04-.14.09-.21.13-.07.04-.15.08-.22.11-.07.04-.14.08-.22.11-.06.03-.12.05-.18.07-.09.04-.19.08-.29.12-.06.02-.13.04-.19.06-.1.03-.2.07-.3.09-.09.02-.18.04-.27.06-.08.02-.16.04-.24.05-.1.02-.2.03-.3.04-.08,0-.15.02-.23.03-.09,0-.18,0-.27.01-.09,0-.18.01-.27.01h0l-25.45-.05h0c-.23,0-.43-.09-.57-.24-.07-.07-.13-.16-.17-.26s-.06-.21-.06-.32l.02-13.04h0s0-.01,0-.02c0-.22.1-.41.24-.56,0,0,.02-.01.02-.02.15-.13.34-.22.56-.22h0l25.45.04c2.93,0,5.29,2.07,5.29,4.6v5.49Z"/>
      <path d="M357.34,1.36c-2.55-.69-5.4-1.04-8.57-1.04-14.52.03-23.68.03-27.49.01-.38,0-.68.3-.68.67v36.15s0,0,0,0c0,.23.08.44.22.6.05.07.11.13.18.17.03.02.07.04.1.06.14.08.3.12.47.12h3.14c.51,0,.92-.42.92-.93v-12.52s0,0,0,0c0-.16.05-.32.14-.44.03-.04.06-.08.1-.12.14-.14.34-.23.56-.23,7.08.03,14.7.02,22.85,0,3.34,0,5.62-.19,6.83-.54,3.56-1.01,5.56-3.41,5.99-7.2.54-4.71.92-13.26-4.76-14.79ZM357.19,14.93c0,2.5-2.4,4.53-5.36,4.53h-25.48c-.39,0-.71-.32-.71-.71V5.51c0-.39.32-.71.71-.71h25.48c2.96,0,5.36,2.03,5.36,4.53v5.61Z"/>
      <path d="M401.75,33.72h-30.24c-.3,0-.54-.24-.54-.53v-11.85c0-.12.04-.22.1-.32.05-.08.12-.15.21-.2.08-.04.16-.07.25-.08.02,0,.03,0,.05,0h28.78c.54,0,.98-.44.98-.98v-2.43h0s0-.07-.01-.1c0-.03,0-.07-.01-.1,0-.03-.02-.06-.03-.09,0-.03-.02-.06-.03-.09-.01-.03-.03-.06-.05-.09-.02-.03-.03-.06-.05-.08-.02-.03-.04-.05-.06-.07-.02-.02-.04-.05-.06-.07-.02-.02-.05-.04-.07-.06-.02-.02-.05-.04-.07-.06-.03-.02-.06-.03-.09-.05-.03-.01-.05-.03-.08-.04-.03-.01-.06-.02-.09-.03-.03,0-.06-.02-.09-.03-.03,0-.06,0-.1,0-.04,0-.07-.01-.11-.01-10.84,0-19.92,0-27.24,0-.86,0-1.32,0-1.39-.02-.48-.06-.72-.41-.73-1.06-.05-2.87-.05-6.16,0-9.85,0-.37.31-.68.68-.67h30.18c.45,0,.82-.37.82-.82V1.18c0-.46-.37-.84-.83-.84h-35.43c-.24,0-.44.2-.44.44v36.57c0,.43.35.77.77.77h35.02c.55,0,1-.45,1-1v-2.4c0-.56-.45-1.01-1.01-1.01Z"/>
      <path d="M452.73.39h-3.32c-.46,0-.83.37-.83.83l-.02,31.58s0,.1-.01.14c0,.01,0,.02,0,.03,0,.04-.02.07-.03.1,0,0,0,0,0,0,0,.01-.02.03-.02.04-.01.02-.02.05-.04.07-.01.02-.03.03-.04.05-.01.02-.03.03-.04.05-.02.02-.04.03-.05.04-.02.01-.03.03-.05.04-.02.01-.04.02-.06.03-.02.01-.04.02-.06.03-.02,0-.04.01-.06.02-.02,0-.04.01-.06.02-.03,0-.05,0-.08,0-.02,0-.04,0-.05,0-.04,0-.07,0-.11-.01-.01,0-.02,0-.03,0-.05-.01-.09-.02-.14-.05-.11-.05-.24-.15-.41-.32-2.95-2.81-8.02-8.08-15.51-15.57-8.26-8.26-13.55-13.65-15.86-16.17-.58-.62-1.23-.94-1.95-.96-2.13-.06-4.45-.06-6.95,0-.35,0-.63.29-.63.64v36.27c0,.47.38.84.85.84h3.32c.29,0,.54-.15.69-.37.06-.09.1-.19.12-.3.01-.05.02-.11.02-.17V5.75s.02-.1.03-.14c0-.01,0-.02,0-.03,0-.04.02-.07.03-.1,0,0,0,0,0,0,0-.01.02-.03.02-.04.01-.02.03-.05.04-.07.01-.02.03-.03.04-.05.01-.02.03-.03.04-.05.02-.02.03-.03.05-.04.02-.01.03-.03.05-.04.02-.01.04-.02.06-.03.02-.01.04-.02.06-.03.02,0,.04-.01.06-.02.02,0,.04-.01.06-.02.03,0,.05,0,.08,0,.02,0,.04,0,.05,0,.04,0,.07,0,.11.01.01,0,.02,0,.03,0,.05.01.09.02.14.05.11.05.24.15.42.31,2.95,2.81,8.02,8.08,15.5,15.57,8.26,8.26,13.55,13.65,15.87,16.17.58.63,1.22.95,1.94.97,2.13.06,4.45.06,6.95,0,.35,0,.63-.29.63-.64V1.23c0-.47-.38-.85-.85-.85Z"/>
      <path d="M123.39,29.84c-.32-.13-.67-.21-1.03-.21h-2.78c-.37,0-.71.07-1.03.2-.95.4-1.62,1.34-1.62,2.44v2.78c0,1.46,1.18,2.65,2.64,2.65h2.78c1.46,0,2.65-1.18,2.65-2.64v-2.78c0-1.1-.66-2.04-1.61-2.44Z"/>
    </g>
  </g>
</svg>