<?xml version="1.0" encoding="UTF-8"?>
<svg id="Layer_2" data-name="Layer 2" xmlns="http://www.w3.org/2000/svg" viewBox="0 0 240.16 173.91">
  <g id="Layer_1-2" data-name="Layer 1">
    <g>
      <path d="M17.64,0H.82C.48,0,.19.21.06.5c-.04.1-.06.21-.06.32v170.85c0,.46.37.82.82.82h16.81c.46,0,.82-.37.82-.82V.82c0-.11-.02-.22-.06-.32-.13-.3-.42-.5-.76-.5Z"/>
      <path d="M171.43,172.21s0-.04,0-.06c0-.05-.01-.1-.03-.15l-23.46-49.08c-.24-.5-.18-1.08.14-1.52l22.35-30.38s.05-.1.05-.15c0,0,0,0,0-.02,0,0,0,0,0-.02,0-.02,0-.04-.01-.05,0-.02,0-.03-.02-.05,0-.01-.02-.03-.03-.04-.01-.01-.02-.03-.04-.04,0,0-.02-.01-.03-.02-.04-.03-.09-.05-.15-.05h-20.26c-.44,0-.84.21-1.08.57l-20.58,29.94s-.05.05-.08.07c0,0-.02,0-.03.01-.02,0-.05.02-.07.02,0,0,0,0-.01,0-.01,0-.02,0-.03,0-.02,0-.03,0-.05,0-.02,0-.03-.01-.05-.02-.01,0-.03-.01-.04-.02-.02-.02-.03-.04-.05-.06,0,0-.01-.02-.02-.02-.02-.03-.03-.07-.03-.1V.92h0c0-.18-.1-.34-.25-.42-.08-.05-.17-.08-.27-.08h-16.31c-.15,0-.27.12-.27.27v171.19c0,.26.2.47.45.48,5.1.31,10.53.32,16.28.04.21,0,.38-.19.38-.4-.03-11.28-.02-19.28.02-24,0-.87.31-1.69.91-2.48,1.31-1.72,3.28-4.28,5.91-7.68.03-.05.08-.08.13-.1,0,0,0,0,.01-.01.02,0,.03,0,.05,0,.02,0,.05-.01.07-.02.02,0,.05,0,.07,0,.02,0,.05,0,.07.01.02,0,.05.02.07.03.02.01.04.02.05.03.04.04.08.08.1.13l15.11,33.92c.19.43.62.71,1.09.71h19.55c.05,0,.11-.01.15-.03,0,0,0,0,0,0,.02,0,.03-.02.04-.03.02-.02.05-.03.07-.05.02-.02.03-.04.04-.06.01-.02.03-.04.04-.06.01-.03.01-.06.02-.08Z"/>
      <path d="M208.43,86.55c-14.49.35-23.31,9.21-27.65,22.3-1.98,5.97-3.14,13.61-3.11,20.74.02,4.72.08,7.55.2,8.47,1.15,8.85,2.96,17.07,8.05,24.38,4.59,6.59,12.06,10.56,20.4,11.11,10.33.69,19.4-2.24,25.91-10.5,3.64-4.62,5.97-9.87,6.98-15.75,0-.02,0-.04,0-.06,0-.02,0-.03,0-.05,0-.03,0-.05-.01-.08,0-.02-.02-.04-.03-.07-.01-.02-.02-.04-.04-.06-.02-.02-.03-.03-.05-.05-.02-.02-.04-.03-.06-.04-.02-.01-.05-.02-.07-.03-.03,0-.07-.02-.1-.02h-16.3c-.51,0-.97.31-1.16.77-1.91,4.65-5.72,8.44-10.89,8.72-11.7.64-15.55-10.38-15.6-19.95,0,0,0,0,0,0,0-.04.02-.08.02-.11,0-.04,0-.08.02-.12.01-.04.04-.06.06-.1.02-.03.04-.07.06-.1.03-.03.06-.04.09-.06.03-.02.06-.05.1-.06.04-.02.08-.02.12-.02.04,0,.08-.02.12-.02h44.45s.03-.01.04-.02c.02,0,.04,0,.06-.02.01-.01.02-.04.02-.06,0-.01.02-.02.02-.04.39-9.27-.75-18.18-3.43-26.72-4.18-13.32-13.21-22.76-28.22-22.38ZM222.19,121.52h0s0,.06-.02.09c-.01.03-.03.05-.05.07-.04.04-.1.07-.16.07h0l-26.07-.09h0s-.06,0-.09-.02c-.03-.01-.05-.03-.07-.05-.04-.04-.07-.1-.07-.16h0v-.21s0,0,0,0c0-.11,0-.21,0-.31,0-.19,0-.37.01-.56,0-.09.01-.18.02-.27.01-.2.02-.4.04-.59,0-.11.02-.21.03-.32.02-.18.03-.35.05-.53.01-.11.03-.23.05-.34.02-.17.04-.33.07-.49.02-.12.04-.24.06-.36.03-.15.05-.31.08-.46.03-.13.06-.26.09-.39.03-.14.06-.28.09-.41.03-.13.07-.26.1-.39.03-.13.07-.27.1-.4.04-.14.08-.27.12-.41.04-.12.07-.24.11-.36.05-.15.1-.29.15-.44.04-.1.07-.21.11-.31.06-.16.12-.32.19-.48.03-.08.06-.17.1-.25.06-.15.13-.29.19-.43.04-.09.08-.19.12-.28.06-.13.12-.25.19-.38.05-.1.1-.21.15-.31.07-.14.15-.27.22-.41.05-.08.09-.17.14-.26.07-.13.15-.26.23-.38.05-.09.1-.17.15-.26.07-.12.15-.23.23-.35.06-.09.12-.18.18-.27.07-.1.15-.2.22-.3.07-.1.14-.19.21-.29.08-.11.16-.21.25-.31.07-.08.13-.17.2-.25.08-.09.16-.18.24-.27.08-.09.15-.18.23-.26.09-.1.19-.19.28-.29.07-.07.13-.14.2-.21.09-.09.18-.17.27-.25.08-.07.16-.15.24-.22.08-.07.16-.13.24-.2.09-.08.19-.16.29-.24.09-.07.18-.14.27-.21.09-.07.18-.14.27-.2.09-.06.18-.12.27-.18.09-.06.19-.13.28-.19.09-.05.17-.1.26-.15.1-.06.21-.13.31-.18.08-.04.16-.08.24-.13.11-.06.23-.12.34-.18.09-.04.18-.08.28-.12.11-.05.21-.1.32-.14.11-.04.21-.08.32-.12.1-.04.19-.07.29-.11.1-.03.2-.06.3-.09.11-.03.21-.07.32-.1.1-.03.19-.04.29-.07.11-.03.23-.06.34-.08.11-.02.23-.04.35-.06.1-.02.2-.04.3-.05.1-.01.21-.02.31-.03.11-.01.23-.03.34-.03.09,0,.18,0,.27,0,.13,0,.26-.01.39-.01,0,0,0,0,0,0h.79c7.1.03,12.83,7.65,12.8,17.03v.21Z"/>
      <path d="M94.73,171.97s.03-.09.03-.15c-.04-1.17-.28-2.4-1.04-3.31-1.51-1.82-2.35-3.96-2.51-6.43-.12-1.85-.37-3.17-.36-4.96.1-13.66.12-28.47.06-44.45,0-3.09-.25-5.85-.73-8.28-1.32-6.73-5.26-11.52-11.81-14.38-3.46-1.51-6.8-2.41-10-2.68-6.03-.52-11.43-.68-17.18,1.47-11.73,4.38-15.34,14.82-16.28,26.3,0,.02,0,.03,0,.05,0,.03.01.05.02.08,0,.04,0,.07.02.1.01.03.03.06.05.09.02.03.03.06.06.08.02.03.05.04.08.06.03.02.05.04.08.06.03.02.07.02.1.03.04.01.08.02.12.02h15.46c.34,0,.63-.23.71-.56,1.48-6.43,3.73-11.16,10.45-12.43,6.21-1.18,12.98,3.47,11.95,10.14-.38,2.47-1.56,4.3-3.53,5.49-1.86,1.13-3.55,1.86-5.09,2.2-7.11,1.54-11.08,2.42-11.93,2.63-8,1.98-15.03,6.14-18.31,13.94-2.24,5.32-2.62,11.02-2.06,16.89.77,8.03,4.9,15.79,12.76,18.57,4.53,1.61,9.19,1.78,13.98.53,5.94-1.56,10.36-6.02,14.13-10.75.03-.03.06-.06.1-.08,0,0,0,0,0,0,.01,0,.03,0,.04-.01.02,0,.04-.02.07-.02.02,0,.04,0,.06,0,.02,0,.04,0,.06,0,.02,0,.04.02.06.03.01,0,.03.01.04.02.03.03.06.06.08.1.13.26.19.58.18.94-.08,3.07.3,5.98,1.13,8.73.09.3.37.5.68.5h17.59s.01,0,.02,0c.05,0,.09-.02.13-.03.05-.01.09-.01.14-.03.04-.02.08-.05.11-.08.04-.03.08-.05.11-.08.03-.03.05-.07.08-.11.02-.04.06-.07.07-.11.02-.04.02-.09.03-.14ZM73.8,139.45c.01,2.27-.29,4.86-.91,7.78-1.17,5.47-5.85,9.39-11.21,10.83-6.07,1.63-10.72-1.64-11.35-7.92-.53-5.36.6-9.73,5.44-12.27,1.9-1,3.62-1.66,5.15-1.98,3.18-.66,6.29-1.03,8.66-2.05.93-.4,2.2-1.03,3.79-1.88.06-.03.12-.04.19-.04,0,0,.01,0,.02,0,.02,0,.03,0,.04.01.03,0,.05.01.08.02.02,0,.04.02.06.03.02.01.04.03.06.05.02.02.03.04.05.06,0,.01.02.02.03.03,0,0,0,.01,0,.02.03.06.04.12.04.19-.12,1.72-.16,4.09-.14,7.12Z"/>
    </g>
  </g>
</svg>