<?xml version="1.0" encoding="UTF-8"?>
<svg id="Layer_2" data-name="Layer 2" xmlns="http://www.w3.org/2000/svg" viewBox="0 0 321.49 189.84">
  <g id="Layer_1-2" data-name="Layer 1">
    <g>
      <path d="M154.07,154c0,.05-.04.1-.1.1H.1c-.05,0-.1-.04-.1-.1h0V.13C0,.07.04.03.1.03h153.88c.05,0,.1.04.1.1v153.88ZM70.01,126.64c-.01.2.09.3.31.3,8.1-.04,12.64-.03,13.61.03.12,0,.22-.08.23-.2,0,0,0,0,0-.01,0-.01,0-.04-.01-.07-.02-.12.06-.24.19-.26,0,0,.01,0,.02,0,.21,0,.4-.07.57-.17.12-.07.19-.2.19-.33,0-.94.18-1.87.51-2.78.02-.05.05-.1.09-.13.04-.04.06-.07.07-.09.28-1.13.45-2.09.52-2.89,0-.12.08-.23.19-.28.02,0,.03-.01.03-.01.13-.08.21-.21.22-.36l.2-1.69c0-.08.03-.15.06-.23l1.08-2.63c.02-.05.03-.11.03-.16-.03-1.08.56-1.73.72-2.76.17-1.09.32-1.82.45-2.2.47-1.37.68-2.24.66-2.59-.01-.11.04-.22.13-.28.34-.24.16-.7.29-1.06.45-1.36.57-2.14,1.05-3.49.2-.56.3-1.05.31-1.47,0-.12.06-.24.15-.32.45-.38.29-1.37.42-1.93.22-.95.46-1.83.72-2.63.18-.56.2-1.24.36-1.61.62-1.44.92-3.03,1.49-4.61.49-1.37.53-2.41.75-3.8.02-.11.07-.22.15-.3.27-.28.44-.63.5-1.04.21-1.42.55-2.62,1.01-3.6.05-.11.08-.23.09-.35.05-.72.21-1.38.48-2,.04-.1.08-.19.11-.29.32-1.24.5-1.9.55-1.98.31-.52.11-1.2.49-1.72.08-.11.12-.24.13-.38.03-.74.09-1.23.18-1.47.43-1.22.82-2.39,1.15-3.51.07-.24.1-.4.08-.45-.05-.2-.01-.35.12-.43.17-.11.27-.31.29-.6.05-.72.4-2.02,1.05-3.92.06-.19.18-.77.35-1.75.03-.15.12-.27.26-.33,0,0,.02,0,.04-.01.15-.05.25-.19.25-.35-.02-.95.1-1.81.37-2.58.02-.06.08-.12.16-.18.08-.06.14-.14.15-.24l.37-2.82c0-.06.05-.11.11-.13l.09-.03c.09-.08.16-.2.18-.32l.39-2.37c.02-.15.16-.26.32-.25,0,0,.04,0,.1,0,.12.01.24-.04.31-.14.09-.12.17-.17.26-.16.1.01.18.09.19.19.16,1.42.3,2.57.22,4.05-.14,2.81.21,5.19.29,7.67,0,.02,0,.05.02.07.01.02.03.04.05.06.05.07.08.16.09.25.29,3.45.42,6.71.4,9.79,0,.21.08.5.25.87.05.12.09.25.1.37.29,4.16.42,7.92.39,11.29,0,.37.1.66.31.86.07.07.12.16.12.26.14,2.39.26,5.08.33,8.07.01.57.11,1.41.28,2.5.09.57-.04,1.53.21,1.94.08.13.12.28.13.43l.38,10.7c0,.12.06.23.15.31l.57.48c.07.06.07.16.02.22,0,0,0,0-.01.01l-.42.39c-.09.09-.14.22-.13.34.48,4.14.73,8.37.74,12.67,0,.16.11.29.26.33.2.05.31.17.33.35.03.22.17.33.43.33,1.93-.03,5.33-.06,10.2-.08.38,0,.75.15,1.1.11.91-.09,2.03-.09,3.37,0,.5.04.85-.11,1.05-.43.08-.13.12-.29.11-.44l-.98-12.55s0-.04-.01-.05l-.27-.56s-.02-.07-.02-.1c-.03-1.6-.07-3.18-.12-4.74-.02-.57-.11-1.09-.28-1.56-.03-.08-.05-.18-.05-.27l-.34-5.74c0-.06-.03-.13-.06-.19-.03-.05-.05-.09-.06-.1-.13-.25-.21-.53-.22-.81-.21-4.03-.37-6.6-.47-7.71,0-.11-.07-.24-.17-.41-.06-.1-.1-.21-.11-.32-.31-3.17-.27-6.17-.75-9.51-.22-1.56-.37-3.7-.45-6.4,0-.17-.09-.4-.25-.68,0-.02-.02-.04-.02-.06l-.69-10.14c0-.09-.04-.18-.1-.25h0c-.11-.15-.18-.32-.2-.51-.24-2.81-.38-5.45-.41-7.91,0-.07-.08-.26-.25-.56-.06-.11-.1-.23-.1-.36l-.56-7.56s0-.07-.02-.1c-.23-.74-.35-1.42-.37-2.06-.09-2.89-.25-5.11-.48-6.67-.08-.51-.1-.91-.09-1.21.02-.42-.04-.82-.19-1.19-.04-.11-.07-.22-.07-.33-.02-1.01-.08-2.7-.17-5.09-.02-.37-.07-.72-.17-1.06-.1-.34-.14-.71-.11-1.1.03-.5-.34-.93-.84-.96-.02,0-.04,0-.06,0h-21.39c-.1,0-.18.08-.18.17l-.1,1.37c0,.1-.06.2-.14.27-.6.46-.52,1.16-.57,1.9,0,.06-.01.12-.03.18l-1.44,4.65s-.03.07-.05.1c-.17.26-.25.43-.26.53-.12,1.5-.34,2.62-.66,3.35-.36.85-.54,1.56-.53,2.13,0,.1-.03.2-.08.29l-.18.3c-.06.09-.1.19-.12.3l-.6,2.65s-.03.07-.05.1c-.03.03-.06.05-.07.07-.06.05-.1.13-.11.2l-.6,2.82c-.01.06-.06.1-.11.11-.05,0-.08.02-.1.03-.05.03-.09.08-.1.14l-1.42,6.19c-.01.06-.04.11-.09.15l-.17.14c-.12.08-.19.21-.19.34,0,1.17-.29,2.34-.85,3.51-.05.11-.09.22-.1.34-.1.73-.19,1.23-.27,1.51-.22.73-.34,1.15-.37,1.27-.93,3.94-1.88,7.45-2.86,10.5-.36,1.13-.75,2.6-1.18,4.42-.42,1.78-1.23,4.88-2.42,9.28-.1.36-.23.75-.4,1.18-.17.44-.28.99-.34,1.67-.06.66-.28,1.43-.67,2.3-.15.33-.24.95-.28,1.85,0,.14-.1.27-.24.31,0,0-.02,0-.02,0-.14.06-.23.2-.23.36,0,.92-.14,1.77-.45,2.57-.03.07-.08.13-.15.18-.17.11-.23.29-.19.53.01.06-.03.12-.09.13l-.6.13c-.05.01-.11-.02-.12-.07-.3-1.1-.43-2.14-.41-3.14,0-.41-.09-.65-.3-.7-.1-.03-.16-.11-.17-.21-.05-1.02-.3-2.05-.75-3.12-.06-.14-.11-.29-.14-.44-.25-1.31-.72-2.93-1.38-4.85-.37-1.07-.61-1.93-.71-2.58-.1-.61-.22-1.5-.38-2.65-.02-.14-.06-.28-.13-.4-.38-.72-.63-1.47-.75-2.27-.02-.11-.05-.22-.1-.31-.22-.41-.34-.7-.37-.85-.21-1.46-.3-2.22-.29-2.27,0-.03,0-.07-.02-.1l-.61-1.16c-.05-.09-.06-.19-.05-.29.04-.22-.18-1.14-.64-2.78-.99-3.5-2.03-7.3-3.12-11.42-.23-.89-.27-1.82-.4-2.41-.03-.12-.1-.23-.2-.31-.17-.13-.26-.25-.28-.36-.17-1.15-.47-2.32-.9-3.51-.12-.32-.22-1.08-.3-2.28,0-.12-.08-.23-.18-.29l-.21-.12c-.08-.04-.13-.12-.15-.2-.16-.67-.21-1.59-.49-2.34-.49-1.29-.51-2.77-1.03-4.1-.12-.31-.3-.92-.51-1.81-.03-.12-.08-.24-.14-.35-.56-1-.67-2.2-.93-3.09-.44-1.47-.88-3.34-1.33-5.59-.01-.07-.04-.13-.07-.19-.4-.66.01-1.42-.67-2.04-.06-.05-.1-.12-.11-.19l-.33-1.59c-.01-.06-.06-.1-.12-.1l-21.62-.05c-.17,0-.31.14-.31.31,0,0,0,.02,0,.03,0,.08-.03.14-.11.18-.16.08-.26.26-.23.44.07.51.03,1-.11,1.49-.03.12-.05.23-.06.35-.13,3.22-.22,4.98-.27,5.28-.07.44-.18.69-.35.74-.08.03-.13.1-.13.18l-.24,6.06c0,.06-.01.12-.04.17l-.16.39s-.02.09-.02.14c.05,1.13-.02,2.08-.23,2.84-.04.14-.06.28-.07.42-.09,1.51-.21,3.33-.37,5.47-.06.77-.19,1.39-.4,1.86-.05.11-.07.22-.08.34-.06,3.21-.14,5.64-.25,7.27-.03.44-.26.92-.1,1.24.06.12.07.25.03.37-.45,1.47-.63,3.05-.54,4.75,0,.2-.06.44-.2.75-.06.12-.08.25-.07.38.05.69.02,1.37-.1,2.05-.18,1.07-.27,1.76-.27,2.06,0,1.22-.3,1.91-.29,3.14,0,.06-.1,1.69-.3,4.88,0,.09-.05.17-.12.22-.03.03-.07.05-.1.05-.03.01-.06.04-.06.08l-1.33,18.58c0,.12-.04.23-.1.34-.19.34-.29.72-.29,1.15,0,.95-.08,2.67-.21,5.17,0,.12-.06.24-.15.32,0,0-.04.02-.08.05-.09.06-.15.17-.16.28l-.5,8.93c0,.1-.03.19-.08.27-.08.13-.12.25-.13.35-.1.94-.38,3.99-.82,9.15-.07.82.35,1.22,1.26,1.19,4.92-.12,9.83-.13,14.73-.01.17,0,.32-.12.33-.28,0-.02,0-.04,0-.05-.02-.09.03-.17.14-.24.11-.07.17-.18.18-.31.03-.35.05-.87.05-1.58,0-.06.04-.14.12-.24.07-.1.12-.21.12-.33.13-3.22.3-6.38.52-9.5.02-.26,0-.84-.08-1.74,0-.07-.04-.13-.08-.18-.14-.15-.14-.31-.02-.48.34-.49.03-1.17.44-1.73.08-.1.12-.23.13-.36.23-2.83.35-5.66.36-8.52,0-.49.09-.92.25-1.29.05-.11.07-.24.05-.36-.05-.4,0-1.03.15-1.88.39-2.27.21-4.72.33-7.14.1-1.94.21-3.64.33-5.11,0-.05.02-.1.06-.14.06-.07.1-.13.1-.2.18-4.44.35-7.93.49-10.46,0-.07.05-.12.11-.14.16-.05.24-.15.25-.3.04-.91.06-2.05.05-3.42,0-1.01.05-2.14.14-3.41.12-1.49.18-3.18.19-5.07,0-.25.08-.46.22-.62.07-.08.11-.17.12-.27.21-1.92.27-3.69.16-5.32-.08-1.27.02-2.65.22-3.66.04-.23.26-.37.49-.31.18.05.31.2.34.38.03.18.13.36.3.52.08.08.14.18.16.29l1.08,5.12s0,.01.01.02c.52.82.74,1.72.64,2.71-.01.13.07.26.19.31.14.05.23.1.27.14.08.08.14.18.15.3l.25,1.71s.01.05.02.08c.58,1.52.92,2.87,1.03,4.05,0,.01.05.11.16.29.07.12.11.22.13.29.21,1.08.55,2.16,1.04,3.23.02.04.03.07.04.11l5.75,21.97c.03.11.09.21.17.28l.05.05s.05.06.06.1l8.68,31.85c.03.11.11.19.22.23.07.03.16.05.27.04.11,0,.19.08.19.19,0,0,0,.01,0,.02Z"/>
      <path d="M320.96,153.89c0,.13-.1.23-.23.23h-153.39c-.13,0-.23-.1-.23-.23h0V.23c0-.13.1-.23.23-.23h153.39c.13,0,.23.1.23.23h0v153.66ZM225.5,55.27s-.06.02-.07.02c-.13.06-.21.18-.21.33-.02,1-.31,1.99-.87,2.97-.06.1-.1.21-.11.32-.13.81-.38,1.75-.75,2.8-.32.92-1.71,5.12-4.16,12.59-.04.13-.12.24-.22.32-.42.35-.6.87-.54,1.58.04.43-.13.99-.5,1.68-.01.02-.02.05-.03.07l-5.07,15.78s-.04.09-.06.12c-.59.92-.71,2.35-1.06,3.39-1.77,5.21-2.86,8.47-3.26,9.8-.13.43-.49,1.43-1.07,3-.52,1.41-.89,2.76-1.11,4.05-.01.08-.11.26-.29.52-.1.15-.17.31-.21.49-.98,4.06-2.66,7.77-3.15,9.51-.17.59-.22,1.15-.15,1.68.04.36.35.63.71.63h15.41c.1,0,.19-.08.2-.18,0-.01,0-.05,0-.1,0-.08.06-.15.13-.18l.66-.19c.11-.03.18-.13.19-.24.03-.52.08-.9.15-1.13.36-1.23.76-2.43,1.2-3.61.04-.11.07-.23.07-.34.04-.74.18-1.18.42-1.3.05-.02.08-.07.08-.12l.22-1.85s.02-.09.03-.14l1.13-2.75s.01-.04.01-.06l.13-1.2c.01-.12.09-.23.2-.29l.13-.06c.13-.06.22-.2.21-.35-.06-.94.17-1.8.7-2.57.09-.13.15-.27.19-.42.24-.91.35-1.77.35-2.59,0-.28.12-.43.35-.45.11,0,.2-.1.19-.22,0-.2.35-1.7,1.07-4.49.16-.64.59-.69.85-1.24.04-.09.14-.15.23-.14l1.87.19s.09.02.12.05c.37.32.76.35,1.17.08.15-.1.32-.15.52-.15,8,0,16.42,0,25.26,0,.09,0,.18.03.25.09.43.34.78.33,1.05-.03.07-.1.19-.15.3-.14.73.05,1.31.01,1.73-.11.12-.03.24.04.27.15,0,0,0,.02,0,.03.02.15.14.28.35.38.12.06.2.16.24.28l2.96,10c.03.1.08.2.14.29.19.29.29.5.3.63.07.96.19,1.68.37,2.17.48,1.33.74,2.13.77,2.41.01.13.05.26.11.37.3.57.5,1.25.6,2.04.01.09.09.21.23.36.05.05.08.11.11.18l1.81,6.12c.03.11.11.19.22.22.35.1.71.26,1.07.51.11.07.23.11.36.11,7.13-.01,12.3-.01,15.51,0,.2,0,.31-.1.34-.31.02-.18-.06-.35-.25-.51-.09-.07-.14-.18-.15-.29-.05-.62-.25-1.35-.6-2.17-.05-.11-.08-.23-.11-.35-.12-.59-.33-1.12-.65-1.58-.12-.17-.23-.75-.33-1.72-.01-.13-.09-.23-.21-.28l-.11-.04c-.14-.06-.23-.19-.22-.34.01-.61-.28-1.72-.89-3.33-.36-.96-1.24-3.63-2.64-8-.31-.99-.58-1.78-.8-2.39-.34-.93-.57-1.74-.71-2.43-.03-.13-.07-.25-.14-.37-.3-.52-.48-1.21-.54-2.04,0-.03,0-.05-.02-.08l-1.4-3.99c-.04-.11-.09-.21-.16-.3l-.2-.26c-.05-.07-.09-.14-.1-.22-.14-.62-.12-1.4-.47-1.91-.3-.44-.24-1.2-.45-1.75-.11-.27-.77-2.32-.78-2.32-.13-.01-.23-.13-.21-.26,0,0,0-.01,0-.02.04-.24-.01-.43-.16-.58-.1-.1-.16-.25-.15-.39.04-.52-.08-.94-.37-1.25-.15-.17-.25-.37-.3-.59-.12-.57-.2-1.16-.48-1.91-.54-1.43-.91-2.52-1.1-3.27-.04-.16-.17-.42-.38-.77-.15-.25-.25-.53-.3-.83-.1-.62-.41-1.66-.9-3.12-.46-1.35-1.7-5.14-3.71-11.36-.64-1.98-1.08-3.8-1.83-5.62-.23-.57-.29-1.97-.92-2.54-.1-.09-.17-.21-.21-.35-.49-1.93-.81-3.15-.96-3.66-.18-.61-.35-1.1-.5-1.48-.41-1.05-.73-2.01-.94-2.86,0-.03-.02-.05-.04-.07-.03-.02-.05-.04-.05-.05-.06-.06-.11-.14-.12-.23-.2-1.12-.6-2.35-1.19-3.68-.05-.1-.08-.22-.1-.33-.16-.94-.28-2.05-.52-2.15-.09-.04-.16-.12-.18-.22-.09-.46-.54-1.81-1.34-4.05-.19-.52-.36-.88-.54-1.08-.1-.11-.15-.26-.16-.41-.02-.51-.16-1.14-.41-1.87-.8-2.28-1.25-3.53-1.35-3.75-.1-.21-.17-.52-.21-.92-.05-.44-.18-.72-.39-.83-.11-.06-.15-.19-.1-.3.1-.2.12-.55.07-1.06-.01-.13-.12-.23-.25-.23-.18,0-.26-.11-.24-.32.01-.1-.06-.19-.16-.2,0,0-.01,0-.02,0h-17.89c-.12,0-.22.1-.22.22,0,.19-.1.27-.29.25-.15-.02-.3.06-.37.2-.25.49-.34.87-.28,1.16.02.1-.02.2-.1.26-.26.21-.4.55-.41,1.03,0,.12-.02.24-.06.35-1.74,5.1-3.11,9.28-4.1,12.55-.34,1.13-.62,1.89-.81,2.28-.02.04-.04.08-.05.12l-.74,2.75s-.01.03-.02.04c-.36.56-.6,1.25-.72,2.06-.03.21-.1.42-.18.62-.62,1.37-1.04,2.65-1.25,3.84-.02.11-.1.2-.21.22Z"/>
      <path d="M234.31,77.27c.37-1.08.56-1.8.56-2.17,0-.12.05-.24.14-.32.23-.22.35-.63.34-1.22,0-.14.04-.27.13-.37.14-.17.19-.37.16-.58-.02-.11.04-.22.14-.28.12-.07.18-.15.2-.24.16-.88.42-1.68.81-2.41.02-.03.03-.07.04-.11l.42-2.55c.02-.1.07-.18.16-.23.19-.11.31-.26.34-.43.15-.68.33-1.53.54-2.55.03-.12.1-.23.21-.3,0,0,.05-.03.12-.06.05-.03.08-.07.08-.12l.1-1.34s.03-.08.06-.11c.22-.14.38-.57.48-1.28.06-.45.39-1.45.99-3.01.02-.06.04-.11.05-.17.33-1.34.53-2.07.59-2.17.07-.12.12-.25.14-.39.09-.93.3-1.78.64-2.53.28-.63.46-1.25.54-1.86.04-.36.38-.7.29-1.06-.04-.16.02-.33.16-.42,0,0,.05-.02.13-.06.07-.03.12-.09.14-.16l.71-3.1c.02-.1.13-.17.23-.14.06.01.12.06.14.13.38,1.13.68,1.91.92,2.37.09.17.22.93.39,2.31.01.12.07.23.16.31.03.03.05.04.05.05.06.05.11.12.13.19l.55,1.9c.02.06.04.11.07.16.32.59.54,1.26.66,2.03.02.14.08.27.18.37.02.02.03.04.04.05.07.09.12.19.16.3l1.36,4.62c.02.06.03.11.03.17,0,.62.09,1.11.29,1.45,0,.01.02.03.02.05l1.11,3.79c.02.07.06.12.12.16.09.05.15.13.18.22.21.66.32,1.31.34,1.95,0,.12.09.23.22.26.06.01.09.02.1.03.11.05.18.16.2.28.07.65.13,1.05.17,1.18.42,1.2.8,2.44,1.13,3.73.07.27.09.48.07.64-.02.13.02.25.11.35.36.39.27,1.19.58,1.79.12.23.22.52.32.87.24.89.6,1.84,1.07,2.87.05.1.07.21.08.32.02.37.1.73.26,1.11.17.39.47,1.53.92,3.4.02.11.07.21.13.31.21.34.3.66.27.97-.02.29-.31.52-.64.51-6.63-.07-12.66-.08-18.07-.03-3.42.03-5.37.02-5.84-.04-.15-.02-.25-.15-.24-.29l.05-.78c0-.1.05-.2.12-.27.68-.67.46-1.71.78-2.38.27-.57.45-1.05.54-1.45.32-1.42.72-2.81,1.19-4.19Z"/>
      <path d="M87.88,180.16c-.14,0-.25-.11-.25-.25v-2.34c0-.14.12-.26.26-.26h7.23c.12,0,.22.1.22.23v9.69c0,.33-.16.64-.42.84-1.61,1.19-3.17,1.78-5.2,1.75-.68,0-1.48-.01-2.39-.01s-1.66-.54-2.23-.82c-2.67-1.31-3.89-5.09-4.2-7.9-.32-2.86-.16-5.94,1.03-8.69,1.49-3.49,5.28-4.95,8.9-4.02,2.66.68,4.58,3.42,4.58,6.04,0,.29-.23.52-.52.52h-2.69c-.21,0-.39-.17-.39-.39,0-.03,0-.06.01-.09.11-.49.06-1.01-.15-1.57-.42-1.14-1.26-1.77-2.52-1.9-2.21-.22-3.64.74-4.28,2.88-.92,3.04-.97,6.18-.15,9.4.33,1.29,1.24,3.46,2.81,3.65,1.06.13,2.09.14,3.09.01.32-.04.79-.27,1.41-.68.07-.04.11-.12.11-.2v-5.75c0-.09-.07-.16-.16-.16h-4.12Z"/>
      <path d="M321.23,174.95h-2.86c-.13,0-.25-.1-.26-.23-.33-2.72-.89-3.77-3.84-3.71-4.68.08-4.14,8.72-3.63,11.47.2,1.05.78,3.03,1.82,3.88,1.32,1.08,3.91.75,5.41.22.19-.07.32-.25.32-.45v-5.59c0-.2-.16-.36-.36-.36h-3.88c-.17,0-.3-.14-.3-.3v-2.21c0-.2.16-.36.36-.36h7.34c.07,0,.13.06.13.13v10.36c0,.13-.07.24-.18.29l-3.16,1.48c-.21.1-.44.16-.67.18-2.07.16-3.61.14-4.59-.05-.86-.16-1.78-.66-2.77-1.48-2.14-1.78-3.09-5.82-3.2-8.4-.04-.86-.08-2.6.05-3.42.68-4.27,2.52-7.92,7.3-8.27,2.56-.19,4.65.74,6.25,2.79.85,1.09,1.16,2.39.92,3.88-.01.09-.09.15-.18.15Z"/>
      <path d="M.14,168.42h2.92c.06,0,.12.05.12.12v18.11c0,.06.05.12.12.12h6.87c.06,0,.12.05.12.12h0v2.71c0,.06-.05.12-.12.12H.14c-.06,0-.12-.05-.12-.12H.03v-21.05c0-.06.05-.12.12-.12h0Z"/>
      <path d="M182.38,168.45c2.07,0,4.13-.02,6.18-.04.07,0,.12.05.12.12,0,0,0,0,0,0v2.64c0,.08-.07.15-.15.15h-4.26c-.17,0-.31.14-.31.31h0s-.05,17.89-.05,17.89c0,.09-.07.17-.16.18-.08,0-.56.01-1.44.01-.87,0-1.35,0-1.44-.02-.09-.01-.16-.09-.16-.18l.05-17.89c0-.17-.14-.31-.31-.31l-4.26-.03c-.08,0-.15-.07-.15-.15,0,0,0,0,0,0l.02-2.64c0-.07.05-.12.12-.12,0,0,0,0,0,0,2.05.03,4.11.05,6.18.08Z"/>
      <rect x="43.91" y="168.44" width="3.19" height="21.26" rx=".27" ry=".27"/>
      <path d="M135.78,177.29c1.37,0,2.44.01,3.19.04.17,0,.32-.13.32-.3,0,0,0,0,0-.01v-8.42c0-.07.06-.14.14-.14h2.99s.05.02.05.05v20.94c0,.13-.11.24-.24.24h-2.66c-.16,0-.29-.13-.29-.29h0v-9.03c0-.12-.1-.22-.22-.22-2.04,0-3.14,0-3.28,0h-3.29c-.12,0-.22.1-.22.22h0s0,9.03,0,9.03c0,.16-.13.29-.29.29h-2.66c-.13,0-.24-.11-.24-.24h0v-20.94s.04-.05.07-.05h2.99c.07,0,.14.06.14.14v8.42c0,.17.13.31.3.31,0,0,0,0,.01,0,.76-.03,1.82-.04,3.19-.04Z"/>
      <rect x="222.35" y="168.46" width="3.17" height="21.22" rx=".27" ry=".27"/>
      <path d="M259.37,168.47h3.16c.12,0,.23.07.29.18,1.57,2.95,2.91,6.34,4.51,9.43.64,1.23,1.28,2.67,1.94,4.31.04.11.16.23.34.36.16.11.38.07.49-.08.04-.06.06-.13.06-.2v-13.92c0-.06.05-.1.1-.1h2.82c.05,0,.1.04.1.1h0v20.94c0,.13-.1.23-.23.23h-3.14c-.13,0-.25-.07-.3-.19l-6.45-13.72c-.11-.23-.38-.32-.6-.22-.16.08-.26.23-.26.41v13.59c0,.08-.06.14-.14.14h-2.8c-.07,0-.13-.06-.13-.13h0v-20.87c0-.14.11-.25.25-.25h0Z"/>
    </g>
  </g>
</svg>