<?xml version="1.0" encoding="UTF-8"?>
<svg id="Layer_2" data-name="Layer 2" xmlns="http://www.w3.org/2000/svg" viewBox="0 0 450 81.95">
  <g id="Layer_1-2" data-name="Layer 1">
    <g>
      <path d="M107.83,16.11C104.81,6.11,96.41.03,85.93.02c-30.23-.02-51.17-.01-62.84.01-4.89,0-9.3,1.4-13.25,4.17-2.16,1.51-4.02,3.51-5.58,5.98C1.42,14.67,0,19.82,0,25.62v56.09c0,.13.1.23.23.23h11.97c.14,0,.25-.11.25-.25.02-29.24.01-46.29-.01-51.17,0-1.8.06-2.92.21-3.33,1.31-3.73,4.58-3.42,7.9-3.42,12.35,0,19.38,0,21.07-.01,2.7-.03,5.44.34,6.44,3.17.25.7.31,1.95.31,2.56.02,31.26.02,48.68,0,52.28,0,0,0,0,0,0,0,.1.08.18.18.18h12.32c.15,0,.27-.12.27-.27.01-27.07,0-44.76-.01-53.08,0-2.92,2.05-4.73,4.9-4.78,1.77-.03,10.26-.04,25.47-.04,1.93,0,3.41.65,4.45,1.96,1.21,1.53,1.12,3.38,1.11,5.61,0,17.55,0,34.34,0,50.35,0,.14.12.26.26.26h11.88c.17,0,.31-.14.31-.31.02-33.37.02-51.12,0-53.26-.04-4.57-.61-8.66-1.69-12.26Z"/>
      <rect x="117.24" y=".01" width="12.47" height="81.92" rx=".25" ry=".25"/>
      <path d="M235.74,21.76c-.25-2.08-.62-3.89-1.1-5.42-1.3-4.17-3.56-7.74-6.78-10.72C223.59,1.66,217.95.02,212.15.02c-23.11,0-47.92,0-74.44,0-.16,0-.3.13-.3.3v81.36c0,.12.09.21.2.22.75.06,1.83.06,3.22,0,2.79-.1,6.49-.26,10.09-.27,35.07-.02,55.92,0,62.55.02,1.51,0,2.77-.08,3.78-.27,6.41-1.17,11.68-4.86,14.88-10.5,1.05-1.86,1.84-3.56,2.37-5.1,1.18-3.44,1.76-7.16,1.76-11.16,0-15.63,0-23.92-.01-24.86-.03-2.75-.21-5.42-.52-8.01ZM223.79,54.34c-.17,3.68-4.35,4.16-7.11,4.16-38.94.01-59.51.01-61.72,0-3.57-.02-5.71-1.91-5.66-5.56,0-.12,0-4.05,0-11.79,0-7.74,0-11.67,0-11.79-.05-3.65,2.08-5.54,5.65-5.57,2.21-.01,22.78-.02,61.72-.02,2.76,0,6.94.47,7.11,4.15.04.86.05,1.75.04,2.67-.01.9-.02,4.42-.02,10.54,0,6.12,0,9.63.02,10.54.01.92,0,1.81-.04,2.67Z"/>
      <path d="M340.99,17.89c-.81-3.63-2.55-7.07-4.58-9.68-3.29-4.25-8.33-7.07-13.86-7.86-1.48-.21-2.78-.32-3.92-.32-17.84-.03-34.78-.03-50.83,0-2.1,0-3.93.17-5.49.49-4.5.93-8.31,2.99-11.44,6.19-2.58,2.63-4.68,6.61-5.63,10.15-.91,3.38-1.41,6.75-1.51,10.09-.04,1.32-.06,2.91-.06,4.8-.01,12.95,0,29.61.02,49.99,0,.11.09.2.2.2h12.34c.12,0,.22-.1.22-.22,0-18.22,0-28.17,0-29.83,0-2.07.43-3.58,2.49-4.48,2.02-.9,4.05-.77,6.56-.77,35.86-.03,54.52-.04,55.98-.01,3.09.06,6.25-.28,7.74,3.04.47,1.05.55,2.67.55,3.86,0,18.67,0,28.08,0,28.25,0,0,0,0,0,0,0,.1.08.17.17.17h12.01c.16,0,.28-.13.28-.28,0-25.47,0-43.35.01-53.66,0-2.98-.42-6.35-1.25-10.11ZM329.56,30.79h0c0,2.68-2.17,4.85-4.85,4.85h-63.45c-2.68,0-4.85-2.17-4.85-4.85v-2.17c0-2.68,2.17-4.85,4.85-4.85h63.45c2.68,0,4.85,2.17,4.85,4.85v2.17Z"/>
      <path d="M449.98,35.84h0c0-.11-.09-.21-.2-.21-47.36,0-74.7,0-82.01,0-1.98,0-3.45-.76-4.4-2.27-.89-1.41-.7-2.99-.71-4.55-.04-3.3,2.38-5.03,5.48-5.03,46.57-.02,73.18-.01,79.84,0,.72,0,1.25-.04,1.58-.14.14-.04.23-.17.22-.31-.35-4.56-1.73-8.87-4.15-12.95-3.32-5.59-8.98-9.07-15.32-10-3.17-.46-7.14-.08-10.07-.08-5.64,0-14.55,0-26.72,0-2.88,0-6.09-.06-9.65-.2-3.29-.12-6.51-.15-9.65-.09-2.67.06-4.75.25-6.23.59-10.7,2.43-17.14,11.64-17.83,22.25-.14,2.15-.21,3.44-.21,3.86,0,7.27,0,13.73.01,19.38,0,.11.09.21.21.21,45.68,0,71.26-.01,76.74-.04,1.94,0,3.12-.01,3.55-.01,1.72,0,3.55.52,4.44,2.06,1.46,2.54,1.49,5.05.1,7.54-.65,1.16-1.61,1.84-2.89,2.04-1.29.2-2.75.3-4.38.3-46.05-.03-71.91-.03-77.59-.01,0,0,0,0,0,0-.03,0-.05.03-.05.06.46,6.08,2.59,12.39,6.68,16.76,4.08,4.35,9.63,6.69,15.67,6.65,4.3-.03,17-.04,38.11-.03,3.82,0,7.29.21,10.79.29,2.36.05,5.23-.06,8.61-.35,4.44-.38,9.11-2.83,12.39-5.8,2.21-1.99,3.94-5.04,5-7.76,1.69-4.37,2.68-9.22,2.67-14.06-.02-5.69-.03-11.73-.02-18.12Z"/>
    </g>
  </g>
</svg>