<?xml version="1.0" encoding="UTF-8"?>
<svg id="Layer_2" data-name="Layer 2" xmlns="http://www.w3.org/2000/svg" viewBox="0 0 419.44 183.03">
  <g id="Layer_1-2" data-name="Layer 1">
    <g>
      <path d="M104.76,98.29s-.03-.01-.04-.02c.01,0,.02.01.04.02Z"/>
      <path d="M21.17,133.46s-.02.01-.03.02c0,0,.02-.01.03-.02Z"/>
      <path d="M104.86,98.31s-.04,0-.05,0c0,0,0,0,0,0,.02,0,.03,0,.05,0Z"/>
      <path d="M21.2,133.44s.02,0,.03,0c-.01,0-.02,0-.03,0Z"/>
      <path d="M21.11,133.52s0-.01.01-.02c0,0,0,0,0,0,0,0,0,0,0,.01Z"/>
      <path d="M104.98,98.29s-.06.02-.09.03c.03,0,.06-.01.09-.03Z"/>
      <path d="M364.66,148.84s.04.02.07.02c-.03,0-.05-.02-.08-.03,0,0,0,0,0,.01Z"/>
      <path d="M364.62,148.79s-.02-.03-.02-.04c0,.02,0,.03.02.04Z"/>
      <path d="M32.45,43.37s-.01.02-.02.03c0,0,.01-.02.02-.03Z"/>
      <path d="M32.51,43.17s0,.03,0,.05c0-.02,0-.03,0-.05Z"/>
      <path d="M32.47,43.06s.02.03.03.05c0,0,0-.01,0-.02,0-.01-.02-.02-.02-.03Z"/>
      <path d="M32.37,42.97s.05.04.07.06c-.02-.03-.05-.05-.07-.06Z"/>
      <polygon points=".22 .04 .21 .05 .22 .04 .22 .04"/>
      <path d="M.18.1s0,0,0-.01c0,0,0,0,0,.01Z"/>
      <path d="M.33,0s0,0,0,0c0,0,0,0,0,0Z"/>
      <path d="M21.35,133.47s-.06-.03-.09-.03c.03,0,.06,0,.09.03Z"/>
      <path d="M32.48,43.32s.01-.03.02-.05c0,.02,0,.04-.02.05Z"/>
      <path d="M158.16,91.97s-.06.07-.1.09c.04-.02.07-.06.1-.09Z"/>
      <path d="M158.2,91.86s-.01.04-.02.06c0-.02.02-.04.02-.06Z"/>
      <path d="M158.17,91.65s0,0,0,0c0,.01.02.03.02.05,0-.01,0-.03-.01-.04Z"/>
      <path d="M158.2,91.75s0,.04,0,.06c0-.02,0-.04,0-.06Z"/>
      <path d="M104.66,98.2s.02.03.03.04c-.01-.01-.02-.02-.03-.04Z"/>
      <path d="M104.64,98.15s0-.02-.01-.03c0,.01,0,.02.01.03Z"/>
      <path d="M345.85,31.29s.02.01.03.02c-.01,0-.02-.01-.03-.02Z"/>
      <path d="M204.11,119.04s.03-.02.04-.02c-.02,0-.03.01-.04.02Z"/>
      <path d="M187.91,154.79s-.04-.01-.05-.02c.02,0,.03.02.05.02Z"/>
      <path d="M187.8,154.73s-.03-.03-.04-.04c.01.02.03.03.04.04Z"/>
      <path d="M187.73,154.64s-.02-.04-.02-.06c0,.02.01.04.02.06Z"/>
      <path d="M345.78,31.28s0,0,0,0c.01,0,.02,0,.03,0,0,0-.02,0-.03,0Z"/>
      <path d="M345.91,31.33s.02.02.03.03c0-.01-.02-.02-.03-.03Z"/>
      <path d="M352.43,62.85s0,.06.02.09c-.01-.03-.02-.06-.02-.1,0,0,0,0,0,0Z"/>
      <path d="M345.98,31.48s0-.06-.02-.09c.01.03.02.06.02.09Z"/>
      <path d="M204.04,119.15s.01-.06.03-.08c0,0,0,0,0,0-.02.02-.02.05-.02.07Z"/>
      <path d="M386.6,99.77s-.04.05-.07.07c0,0,0,0,0,0,.03-.01.05-.04.06-.06Z"/>
      <path d="M352.54,62.65s.03-.03.05-.03c-.02,0-.04.02-.05.03Z"/>
      <path d="M352.48,62.71s.02-.03.03-.04c-.01.01-.02.03-.03.04Z"/>
      <path d="M188,154.81s.03,0,.05,0c-.03,0-.06,0-.09,0,.01,0,.02,0,.04,0Z"/>
      <path d="M352.44,62.79s0-.03,0-.04c0,.01,0,.02,0,.04Z"/>
      <path d="M386.48,99.84s-.03,0-.05,0c.02,0,.03,0,.05,0Z"/>
      <path d="M20.86,171.17c.14-.08.22-.23.22-.38v-37.19s.01-.06.03-.09c0,0,0,0,0-.01,0,0,0,0,0,0,0,0,.02-.02.03-.02,0,0,.02-.01.03-.02,0,0,.02,0,.03-.01.01,0,.02,0,.03,0,0,0,.02,0,.02,0,.03,0,.06,0,.09.03,3.13,2.22,6.45,4.12,9.96,5.71.89.4,2.37,1.01,4.44,1.82,2.72,1.07,6.29,1.78,8.6,2.32,1.26.3,2.61.51,4.05.63,4.56.4,9.37.25,13.97-.83,3.17-.75,5.01-1.2,5.51-1.35,9.41-2.9,17.65-7.78,27.37-13.4,15.61-9.02,34.3-19.83,56.09-32.41,3.75-2.17,6-3.47,6.73-3.9.04-.02.07-.06.1-.09,0,0,0,0,0,0,0-.01,0-.03.01-.04,0-.02.02-.04.02-.06,0-.02,0-.04,0-.06,0-.02,0-.04,0-.06,0-.02-.01-.04-.02-.06,0-.02-.01-.03-.02-.05-.02-.04-.05-.07-.1-.1-1.02-.63-2.08-1.42-2.92-1.89-2.04-1.14-6.29-3.58-12.73-7.34-2.28-1.33-3.85-2.21-4.73-2.65-.15-.08-.34-.07-.49.02l-32.21,18.6s-.06.02-.09.03c-.01,0-.02,0-.03,0-.02,0-.03,0-.05,0,0,0,0,0,0,0-.02,0-.03-.01-.05-.02-.01,0-.03-.01-.04-.02-.01,0-.02-.02-.03-.03-.01-.01-.02-.02-.03-.04,0-.02-.01-.03-.02-.05,0-.01,0-.02-.01-.03,0-.03,0-.06,0-.09.22-1.06.34-2.11.39-3.15.23-5.81-.66-11.37-1.68-16.71-.31-1.64-1-3.12-1.46-4.63-.38-1.25-.81-2.39-1.27-3.42-3.03-6.75-7.35-12.61-12.96-17.56-3.25-2.88-6.52-5.25-10.48-7.87-1.59-1.05-3.01-1.94-4.27-2.68-6.43-3.76-13.65-7.94-21.63-12.56C19.01,10.84,2.88,1.52,2.86,1.49c-.06-.08-.46-.27-1.18-.59C1.2.7.79.42.44.05c-.03-.03-.06-.04-.1-.05,0,0,0,0,0,0,0,0,0,0,0,0-.04,0-.07.02-.1.04,0,0,0,0,0,0-.01.01-.02.02-.03.04,0,0,0,0,0,.01,0,.02-.01.04-.01.06v23.74c0,.3.16.57.42.72l31.79,18.35s.05.04.07.06c0,0,.01.02.02.03,0,.01.02.02.02.03,0,0,0,.01,0,.02,0,.02,0,.04.01.05,0,.02,0,.03,0,.05,0,.02,0,.03,0,.05,0,.02,0,.04-.02.05,0,.02-.02.04-.03.05,0,0-.01.02-.02.03-.02.02-.05.04-.08.06-11.17,5.11-20.88,13.65-26.4,24.77-.49.99-.83,1.74-1.01,2.26-.7,2.06-1.61,3.6-2.08,5.83-.51,2.48-1.62,5.57-1.94,8.78-.39,3.92-.7,7.84-.92,11.77v86.15c.75-.28,1.54-.66,2.37-1.14,8.48-4.93,14.64-8.5,18.49-10.72ZM52.83,60.49c17.2,0,31.14,13.94,31.14,31.14s-13.94,31.14-31.14,31.14-31.14-13.94-31.14-31.14,13.94-31.14,31.14-31.14Z"/>
      <path d="M345.96,31.38s-.01-.01-.02-.02c0-.01-.02-.02-.03-.03,0,0-.02-.02-.03-.02-.01,0-.02-.01-.03-.02-.01,0-.03,0-.04,0-.01,0-.02,0-.03,0-.03,0-.06,0-.09.02l-15.77,9.11c-.06.04-.1.1-.1.18v80.6c0,.11.09.21.21.21h15.77c.11,0,.21-.09.21-.21V31.48s0-.06-.02-.09c0,0,0,0,0,0Z"/>
      <path d="M249.51,79.95c-3.39-8.02-9.09-13.75-17.08-17.18-1.88-.81-3.38-1.07-5.6-1.65-4.3-1.12-8.66-1.2-13.08-.26-1.08.23-2.86.69-5.33,1.38-.55.15-1.08.37-1.59.64-1.47.8-2.94,1.35-4.31,2.22-6.53,4.17-11.39,10.53-13.42,18.12-.73,2.73-1.41,5.32-1.41,8.42,0,12.04,0,33,0,62.86,0,.02,0,.03,0,.05,0,.01,0,.02.01.03,0,.02.01.04.02.06,0,.02.02.03.03.05.01.02.03.03.04.04.02.01.03.02.05.03.02,0,.03.02.05.02.02,0,.04,0,.06.01.03,0,.06,0,.09,0,.44-.07.89-.23,1.24-.49,1.1-.83,2.13-1.45,3.08-1.88,1.05-.47,1.73-1.16,2.73-1.67.76-.38,1.46-.76,2.1-1.15,2.66-1.63,4.85-2.89,6.57-3.77.16-.08.26-.25.26-.43v-26.27s0-.05.02-.07c0,0,0,0,0,0,.01-.01.03-.02.04-.02.01,0,.03-.02.04-.02.03,0,.06,0,.08.02l2.29,1.59s.1.06.15.08c3.27,1.38,5.11,2.11,5.53,2.2,1.72.36,4.08.64,7.09.84.88.06,2.05.01,3.53-.14,2.38-.25,4.87-.37,7.06-1.24,1.6-.64,3.21-1.17,4.51-1.82,4.26-2.14,7.85-5.07,10.75-8.77.57-.73.91-1.18,1.01-1.35.78-1.37,1.53-2.16,2.15-3.62.34-.79.81-1.78,1.41-2.95.18-.34.31-.7.4-1.08.81-3.23,1.31-5.46,1.5-6.69.67-4.35.07-8.32-.96-12.61-.3-1.28-.68-2.45-1.14-3.54ZM232.52,101.67c-2.74,4.06-7.86,6.18-12.72,6.18-4.86,0-9.99-2.11-12.73-6.17-1.95-2.89-2.95-6-2.98-9.35-.03-3.5.87-6.65,2.72-9.45,2.78-4.21,7.44-6.52,12.98-6.52,5.54,0,10.2,2.29,12.98,6.51,1.85,2.8,2.76,5.95,2.73,9.45-.03,3.34-1.02,6.46-2.97,9.35Z"/>
      <path d="M299.46,61.8c-3.29-.89-5.95-1.54-9.24-1.59-3.29-.05-5.97.52-9.29,1.31-6.15,1.47-11.89,5.32-15.85,10.04-7.32,8.7-9.26,20.62-5.54,31.33,2.54,7.33,7.46,13.07,14.78,17.23.44.25,1.2.59,2.28,1.01,2.19.86,4.11,1.74,6.52,2.04,2.22.28,4.24.57,6.13.6,1.88.03,3.91-.2,6.14-.42,2.42-.23,4.37-1.05,6.58-1.85,1.09-.39,1.86-.7,2.31-.94,7.44-3.93,12.53-9.53,15.3-16.77,4.04-10.59,2.46-22.57-4.58-31.48-3.82-4.83-9.44-8.86-15.54-10.52ZM304.72,97.09c-.37,1.51-1.78,4.09-2.78,5.3-3.9,4.72-10.44,6.33-16.34,4.95-4.87-1.14-8.68-4.37-10.36-9.1-.68-1.9-1.28-3.98-1.3-5.99-.02-2,.54-4.1,1.17-6.01,1.58-4.76,5.32-8.07,10.17-9.31,5.87-1.51,12.44-.03,16.44,4.61,1.02,1.2,2.48,3.74,2.89,5.24.42,1.55.64,3.27.66,5.15.02,1.88-.16,3.6-.55,5.16Z"/>
      <path d="M401.94,63.03l-.94,2.74s-.03.09-.05.13c-.75,1.43-1.34,2.76-1.75,4.01-.51,1.52-1.38,2.8-1.82,4.19-.37,1.2-.8,2.25-1.28,3.16-.86,1.63-1.23,3.34-2.11,5.01-.88,1.64-1.25,3.3-2.26,5.36-.34.69-.73,1.72-1.18,3.11,0,.01-.01.02-.02.03l-3.92,8.98s-.04.05-.06.06c0,0,0,0,0,0-.02,0-.03,0-.05,0-.02,0-.03,0-.05,0-.03-.01-.06-.03-.07-.07l-16.3-36.91c-.07-.16-.23-.26-.4-.26h-16.97s-.06,0-.09.02c0,0,0,0,0,0-.02,0-.04.02-.05.03-.01,0-.02.01-.03.02-.01.01-.02.03-.03.04,0,.01-.02.03-.03.04,0,.01,0,.02,0,.04,0,.02-.01.04-.01.06,0,.03,0,.06.02.1l1.18,3.08s.03.06.04.08c.77,1.36,1.35,2.64,1.76,3.83.44,1.3,1.2,2.42,1.67,3.6.41,1.05.8,1.96,1.16,2.72.76,1.62,1.47,3.18,2.12,4.66,1.92,4.36,3.87,8.87,5.86,13.55.52,1.24,1.17,2.17,1.52,3.34.08.28.45,1.13,1.09,2.53,1.39,3.02,3.21,7.15,5.46,12.37.84,1.94,1.74,3.49,2.32,5.45.03.08.06.16.1.24l.75,1.29c.16.28.15.63-.03.9-1.01,1.5-1.33,3.2-2.21,4.72-.43.74-.9,1.82-1.39,3.24-.1.28-.23.55-.38.81-1.05,1.75-1.52,3.53-2.53,5.46-.45.87-.89,1.88-1.31,3.04-.47,1.26-1.16,2.16-1.62,3.41-.49,1.33-.95,2.35-1.38,3.07-.86,1.42-1.02,2.95-1.98,4.32-.01.02-.02.04-.02.07,0,0,0,0,0,.01,0,.02,0,.03.02.04,0,.01.01.03.03.04.02.02.05.03.08.03h16.87c.33,0,.62-.22.71-.55.54-1.98,1.69-3.73,2.34-5.58.36-1.03.73-1.87,1.1-2.52.8-1.4,1.04-2.8,1.82-4.22.5-.91.96-1.97,1.38-3.16.55-1.57,1.45-2.86,1.95-4.4.23-.71.55-1.46.97-2.26,1.02-1.91,1.52-3.94,2.59-5.8.14-.24.25-.5.34-.76.67-2.09,1.66-3.58,2.42-5.68.33-.91.88-2.1,1.67-3.58.09-.16.15-.34.19-.52.16-.72.74-2.03,1.72-3.93.53-1.03.85-2.43,1.44-3.49.59-1.06,1.08-2.2,1.48-3.41.31-.96,1.16-2.23,1.44-3.02.56-1.64,1.21-3.12,1.94-4.45.15-.27.26-.56.34-.85.57-2.08,1.67-3.65,2.52-5.96.57-1.57,1.51-3.09,2.07-4.77.48-1.44,1.42-2.89,1.88-4.17.75-2.05,1.57-3.3,2.23-5.18.26-.73.62-1.58,1.07-2.54.77-1.61,1.51-3.25,2.24-4.92v-.49l-16.91-.05c-.27,0-.51.17-.6.42Z"/>
    </g>
  </g>
</svg>