<?xml version="1.0" encoding="UTF-8"?>
<svg id="Layer_2" data-name="Layer 2" xmlns="http://www.w3.org/2000/svg" viewBox="0 0 436.47 92.12">
  <g id="Layer_1-2" data-name="Layer 1">
    <g>
      <path d="M326.77,0c-25.31,0-45.82,20.55-45.82,45.89s20.51,45.89,45.82,45.89h0c25.31,0,45.82-20.55,45.82-45.89h0C372.59,20.55,352.08,0,326.77,0ZM326.93,75.54c-16.34.09-29.66-13.12-29.75-29.49-.09-16.37,13.09-29.71,29.44-29.8,16.34-.09,29.66,13.12,29.75,29.49s-13.09,29.71-29.44,29.8Z"/>
      <path d="M277.51,1.64c-6.83-.51-11.86,2.24-15.11,8.24-.81,1.5-1.22,3.21-1.21,5.13.01,10.08.02,24.91,0,44.5,0,.03-.01.05-.04.07-.04.02-.09.01-.11-.02-22.13-32.26-34.65-50.52-37.56-54.79-.71-1.05-1.29-1.71-1.76-2.01-4.26-2.71-10.63-3.27-14.73.21-1.67,1.42-3.81,4.27-3.82,6.48-.05,16.01-.08,32.7-.08,50.06,0,.02-.01.04-.03.06-.03.02-.08.02-.1-.02-10.48-14.79-19.01-26.9-25.58-36.33-1.91-2.73-4.72-6.89-8.44-12.47-4.13-6.19-10.14-11.9-18.14-8.91-4.09,1.53-5.65,5.23-5.65,9.35,0,9.44,0,36.04,0,79.78,0,.11.08.2.19.21,4.63.51,8.57-.78,11.83-3.87,1.79-1.7,3.09-3.64,3.9-5.81.4-1.08.59-2.89.58-5.43-.03-6.83-.04-21.88-.02-45.14,0-.03.01-.06.04-.07.04-.03.1-.02.13.02,24.33,33.24,38.25,52.25,41.75,57.04,1.03,1.42,2.62,2.61,4.75,3.58,1.73.79,3.49.62,5.17.55,4.56-.19,5.98-4.19,5.98-8.12,0-28.59,0-46.26,0-53.01,0-.02.01-.04.03-.06.03-.02.08-.02.1.02,19.58,26.92,32.68,44.94,39.29,54.05,1.43,1.97,2.63,3.34,3.61,4.11,1.5,1.19,3.09,2.1,4.75,2.72.3.11.6.17.91.18,2.02.06,3.28.04,3.76-.08,3.83-.91,5.75-3.37,5.75-7.38,0-27.27.01-54.83,0-82.69,0-.09-.07-.17-.16-.17Z"/>
      <path d="M73.11,16.14V1.85c0-.13-.1-.23-.23-.23H.28c-.16,0-.28.13-.28.28v14.12c0,.15.12.27.27.27h27.48c.15,0,.27.12.27.27v74.48s0,.02,0,.02c.01.1.11.17.21.16,9.69-1.24,17.14-7.11,17.15-17.55.02-26.63.02-45.66,0-57.09,0-.16.13-.3.3-.3h27.27c.09,0,.15-.07.15-.15Z"/>
      <path d="M106.37,1.65c-.28-.02-3.16-.04-8.64-.04s-8.36.01-8.64.04c-.16,0-.31.09-.37.25l-34.48,89.17s0,.04,0,.05c0,.08.07.14.15.14.66-.02,2.76,0,6.3.03,2.08.02,3.81-.21,5.19-.69,4.78-1.69,7.76-5.9,9.63-10.41,1.91-4.6,3.04-7.95,4.87-11.35.05-.08.13-.13.23-.14.26,0,5.97-.01,17.14-.01s16.87,0,17.14.01c.09,0,.18.06.22.14,1.83,3.39,2.97,6.75,4.87,11.35,1.87,4.52,4.85,8.72,9.63,10.41,1.37.49,3.1.72,5.19.69,3.55-.04,5.65-.05,6.3-.03.02,0,.04,0,.05,0,.08-.03.11-.11.09-.19L106.74,1.89c-.06-.15-.21-.25-.37-.25ZM107.75,52.21c0,.09-.07.16-.15.16h-19.72s-.04,0-.06-.01c-.08-.03-.12-.12-.08-.2l9.86-23.4s.04-.06.08-.08c.08-.04.17,0,.2.08l9.86,23.4s.01.04.01.06Z"/>
      <path d="M436.3,1.61h-19.07c-.16,0-.32.08-.4.22l-19.49,31.09s-.02.03-.04.04c-.06.04-.13.02-.16-.04l-19.29-31.11c-.08-.12-.21-.19-.35-.19h-19.22s-.04,0-.06.02c-.05.03-.06.09-.03.14l30.81,47.83c.07.11.11.25.11.38v41.07s0,.02,0,.02c.02.1.11.18.22.16,4.61-.7,9.03-2.71,12.1-6.24,3.28-3.77,3.98-8.15,3.97-13.71-.02-9.69-.03-16.73-.03-21.11,0-.29.08-.57.24-.81L436.44,1.87s.03-.06.03-.09c0-.09-.07-.17-.17-.17Z"/>
      <path d="M419.1,74.99c-4.47,0-8.09,3.62-8.09,8.09s3.62,8.09,8.09,8.09c4.47,0,8.09-3.62,8.09-8.09s-3.62-8.09-8.09-8.09ZM419.07,89.8c-3.7,0-6.69-3-6.69-6.69h0c0-3.7,3-6.69,6.69-6.69s6.69,3,6.69,6.69-3,6.69-6.69,6.69Z"/>
      <path d="M421.06,83.38c2.82-.57,2.17-4.21-.46-4.64-.88-.15-2.46-.19-4.75-.12-.15,0-.27.13-.27.28v8.48c0,.11.09.2.2.2h1.95c.1,0,.19-.08.19-.19v-2.5c0-.23.18-.41.41-.41h1.11c.6,0,1.08.48,1.08,1.08v1.81c0,.12.1.21.21.21h1.9c.08,0,.15-.06.15-.15,0-1.74.17-3.16-1.72-3.92-.02,0-.03-.03-.04-.05-.01-.04.01-.08.05-.09ZM420.53,81.74c-.02.62-.66,1.1-1.44,1.08l-1.06-.03s0,0,0,0c-.08,0-.14-.07-.14-.15l.06-2.32s0,0,0,0c0-.08.07-.14.15-.14l1.07.03c.78.02,1.39.54,1.38,1.16v.36Z"/>
    </g>
  </g>
</svg>