<?xml version="1.0" encoding="UTF-8"?>
<svg id="Layer_2" data-name="Layer 2" xmlns="http://www.w3.org/2000/svg" viewBox="0 0 399.36 58.89">
  <g id="Layer_1-2" data-name="Layer 1">
    <g>
      <path d="M132.68,1.5c0-.81.06-1.49-.9-1.49-6.34,0-10.34,0-12.01,0-.47,0-.74.24-.74.73,0,1.23,0,19.96,0,56.2,0,.6.52.83,1.02.83.06,0,3.82,0,11.28,0,.83,0,1.35-.06,1.34-.99,0-10.57,0-28.99,0-55.27Z"/>
      <path d="M234.61,44.78c-.6,0-2.15,0-4.66,0-.63,0-1.06-.24-1.29-.72-.11-.23-.17-.6-.17-1.1,0-4.97,0-9.48,0-13.55,0-.56.12-.95.54-1.25.15-.11.48-.16,1-.15,1.35.01,2.69.01,4.03,0,.54,0,.81-.25.81-.75,0-2.37,0-5.82,0-10.34,0-.7-.04-1.11-.81-1.15-.13,0-1.46,0-3.97,0-.92,0-1.54-.06-1.54-1.11,0-7.53,0-11.64,0-12.33,0-.71-.76-.6-1.14-.33-3.22,2.27-7.05,4.91-11.47,7.95-.36.25-.58.43-.64.53-.14.23-.22.5-.23.8-.02.45-.02,1.56-.01,3.35,0,.77-.38,1.15-1.16,1.13-.06,0-.57,0-1.52,0-.31,0-.54.04-.68.11-.59.32-.51.8-.51,1.55,0,4.47,0,7.74,0,9.81,0,.51.26.77.79.77.2,0,.71,0,1.53-.01.95-.01,1.55.1,1.55,1.16,0,1.1,0,8.65,0,22.64,0,.63.04,1.1.11,1.41.8,3.35,5.05,4.47,7.99,4.47,4.07,0,6.87,0,8.39,0,.05,0,.1,0,.15-.02.39-.1.72-.31.97-.64.15-.19.28-.58.41-1.17.82-3.92,1.53-7.22,2.13-9.9.14-.61.21-1.18-.59-1.18Z"/>
      <path d="M23.26,15.83c-2.92,0-4.63,0-5.13,0-1.01,0-1.11-.56-1.11-1.48,0-6.42,0-10.38,0-11.87,0-.79-.7-.74-1.16-.41-4.18,2.94-8.02,5.6-11.51,7.97-.34.23-.54.41-.62.55-.13.24-.2.51-.21.8-.02.73-.02,1.84,0,3.35,0,.71-.35,1.07-1.05,1.07-.59,0-.99,0-1.2,0-.45-.01-.74.03-.87.11-.26.18-.39.43-.4.75-.01,1.47-.01,4.96,0,10.45,0,.65.26.86.92.86.62,0,1.07,0,1.36,0,1.25-.02,1.17.77,1.17,1.83,0,4.16,0,11.21,0,21.16,0,1.3.05,2.14.16,2.52.85,3.16,4.35,4.17,7.22,4.17,5.29,0,8.12,0,8.49,0,.48,0,.83-.04,1.04-.15.45-.24.76-.55.92-.91.18-.43.36-1.02.53-1.79.63-2.75,1.28-5.72,1.94-8.91.13-.6.17-1.14-.6-1.14-2.28,0-3.59,0-3.95,0-.74.02-1.23-.04-1.47-.18-.47-.27-.7-.72-.7-1.35,0-9.08,0-13.75,0-13.99,0-.53.2-.9.58-1.13.17-.1.45-.15.82-.14.47,0,2.12,0,4.93,0,.73,0,.79-.49.79-1.13,0-2.75,0-5.94,0-9.58,0-.81.07-1.47-.89-1.47Z"/>
      <path d="M351.64,3.02s.02.03.02.05c0,2.06,0,4.92,0,8.59,0,.84.34,1.05,1.13,1.05,4.24,0,8.39,0,12.46,0,.81,0,1.05-.34,1.05-1.17,0-3.26,0-5.98,0-8.18,0-.52-.05-.98-.49-1.23-.15-.08-.49-.13-1.03-.13-3.87,0-7.79,0-11.76,0-.46,0-.77.05-.93.15-.29.18-.45.44-.49.78,0,.02,0,.04.02.06l.03.03Z"/>
      <path d="M285.38,14.84c-12.17,0-22.03,9.86-22.03,22.03s9.86,22.03,22.03,22.03h0c12.17,0,22.03-9.86,22.03-22.03h0c0-12.17-9.86-22.03-22.03-22.03ZM285.38,44.99c-4.49,0-8.13-3.64-8.13-8.13s3.64-8.13,8.13-8.13,8.13,3.64,8.13,8.13-3.64,8.13-8.13,8.13Z"/>
      <path d="M58.18,44.38c-1.31.22-2.66.37-4.07.45-4.63.25-9.3-1.9-9.98-6.97-.58-4.37,1.85-7.87,6.12-8.85.88-.2,1.5-.31,1.87-.32,1.91-.06,3.82.15,5.72.65.42.11.85.15.85-.4,0-3.27,0-7.07,0-11.38,0-.37,0-.6-.03-.69-.11-.53-.63-.73-1.11-.87-1.51-.46-3.16-.63-4.75-.7-.87-.04-1.65-.06-2.32-.05-4.4.05-8.97,1.66-12.55,4.21-3.88,2.77-6.48,6.44-7.79,11.02-.48,1.66-.78,3.5-.9,5.51-.19,2.93.2,5.73,1.16,8.39,2.03,5.66,6.28,10.2,11.8,12.53,3.79,1.6,8.11,2.08,12.2,1.45.71-.11,4.35-.76,4.35-1.64,0-3.41,0-7.25,0-11.52,0-.43.03-.92-.57-.81Z"/>
      <path d="M106.98,17.84c-3.4-1.96-7.31-2.75-11.27-2.58-7.54.32-14.61,4.82-18.12,11.44-2.26,4.28-3.01,8.84-2.23,13.67.59,3.67,2.19,7.28,4.46,10.11,4.01,4.99,9.76,7.91,16.21,8.11,3.22.1,6.57-.35,9.65-1.22,1.55-.44,3.06-1.01,4.52-1.73.75-.37,1.25-.9,1.5-1.6.11-.32.17-.86.17-1.63-.01-2.53-.01-5.18,0-7.95,0-.26-.09-.49-.26-.68-.03-.03-.06-.05-.1-.05-.2-.04-.34-.04-.41,0-2.86,1.3-5.83,2.46-8.93,2.92-1.15.17-2.37.22-3.66.14-1.64-.09-3.13-.54-4.48-1.35-.75-.45-.48-1.32.22-1.65,7.32-3.46,14.33-6.84,21.04-10.14.56-.28.92-.42.96-1.02.02-.2.02-.37,0-.51-.68-5.92-4.07-11.3-9.25-14.28ZM102.22,29.36c-.11.11-.28.22-.5.33-5.89,2.96-9.68,4.86-11.37,5.69-.65.32-1.2-.39-1.19-.95.03-1.46.48-2.82,1.36-4.08.89-1.28,2.18-2.43,3.62-3.04,2.66-1.13,5.95-.98,8.05,1.15.24.25.29.66.04.9Z"/>
      <path d="M167.47,17.84c-3.4-1.96-7.31-2.75-11.27-2.58-7.54.32-14.61,4.82-18.12,11.44-2.26,4.28-3.01,8.84-2.23,13.67.59,3.67,2.19,7.28,4.46,10.11,4.01,4.99,9.76,7.91,16.21,8.11,3.22.1,6.57-.35,9.65-1.22,1.55-.44,3.06-1.01,4.52-1.73.75-.37,1.25-.9,1.5-1.6.11-.32.17-.86.17-1.63-.01-2.53-.01-5.18,0-7.95,0-.26-.09-.49-.26-.68-.03-.03-.06-.05-.1-.05-.2-.04-.34-.04-.41,0-2.86,1.3-5.83,2.46-8.93,2.92-1.15.17-2.37.22-3.66.14-1.64-.09-3.13-.54-4.48-1.35-.75-.45-.48-1.32.22-1.65,7.32-3.46,14.33-6.84,21.04-10.14.56-.28.92-.42.96-1.02.02-.2.02-.37,0-.51-.68-5.92-4.07-11.3-9.25-14.28ZM162.65,29.37c-.11.11-.28.22-.5.33-5.89,2.96-9.68,4.86-11.38,5.7-.65.32-1.21-.39-1.2-.96.03-1.46.48-2.82,1.36-4.08.89-1.28,2.18-2.44,3.62-3.05,2.66-1.13,5.95-.98,8.06,1.15.24.25.29.66.04.91Z"/>
      <path d="M207.49,44.38c-1.31.22-2.66.37-4.07.45-4.63.25-9.3-1.9-9.97-6.97-.58-4.37,1.85-7.87,6.12-8.85.88-.2,1.5-.31,1.87-.32,1.91-.06,3.82.15,5.72.65.42.11.85.15.85-.4,0-3.27,0-7.07,0-11.38,0-.37,0-.6-.03-.69-.11-.53-.63-.73-1.11-.87-1.51-.46-3.16-.63-4.74-.7-.87-.04-1.65-.06-2.32-.05-4.4.05-8.97,1.66-12.55,4.21-3.88,2.77-6.48,6.44-7.79,11.02-.48,1.66-.78,3.5-.91,5.51-.19,2.93.2,5.73,1.16,8.39,2.04,5.66,6.28,10.2,11.81,12.53,3.79,1.6,8.11,2.08,12.2,1.45.71-.11,4.35-.76,4.35-1.64,0-3.41,0-7.25,0-11.52,0-.43.03-.92-.57-.81Z"/>
      <path d="M346.42,23.93c-.85-3.73-3.07-6.3-6.65-7.71-1.23-.49-2.49-.78-3.78-.9-1.65-.14-3.32-.11-4.99.1-2.82.36-5.06,1.68-6.98,3.69,0,0-.01,0-.02,0-.01,0-.03-.01-.03-.03,0-1.17,0-1.92,0-2.25,0-.43-.08-.77-.44-.99-.11-.07-.38-.1-.83-.1-2.01,0-5.93,0-11.77,0-.34,0-.56.03-.65.09-.33.22-.35.61-.35,1v40.1c0,.78.43.86,1.13.86,4.88,0,8.86,0,11.94,0,.27,0,.47-.03.59-.08.52-.22.44-.71.44-1.32,0-12.7,0-19.93,0-21.7,0-2.19.62-4.99,3.05-5.62.72-.19,1.49-.21,2.29-.07,2.94.51,3.24,3.43,3.24,5.83,0,13.24,0,20.41,0,21.51,0,.84-.12,1.45.88,1.45,5.01,0,9.12,0,12.34,0,.04,0,.07,0,.11-.02.28-.1.5-.27.65-.51.09-.14.13-.43.13-.86,0-17.81,0-27.59,0-29.36,0-1.2-.11-2.25-.31-3.14Z"/>
      <path d="M399.36,45.19c0-.43.03-.92-.57-.81-1.31.22-2.66.37-4.07.45-4.63.25-9.3-1.9-9.98-6.97-.58-4.37,1.85-7.87,6.12-8.85.88-.2,1.5-.31,1.87-.32,1.91-.06,3.82.15,5.72.65.42.11.85.15.85-.4,0-3.27,0-7.07,0-11.38,0-.37,0-.6-.03-.69-.11-.53-.63-.73-1.11-.87-1.51-.46-3.16-.62-4.75-.7-.87-.04-1.65-.06-2.32-.05-4.4.05-8.97,1.66-12.54,4.21-3.88,2.77-6.48,6.45-7.79,11.02-.48,1.66-.78,3.5-.9,5.51-.19,2.93.2,5.73,1.16,8.39,2.04,5.66,6.28,10.2,11.81,12.53,3.79,1.6,8.11,2.08,12.2,1.45.71-.11,4.35-.76,4.35-1.64,0-3.41,0-7.25,0-11.52Z"/>
      <path d="M263.5,28.41l.92-12.57s-.02-.07-.06-.08c-.47-.08-1.04-.13-1.71-.12-3.28,0-6.35,1.01-8.86,3.04-.01.01-.03.02-.05.02h-.29s-.06-.02-.07-.06c0-.27,0-.87,0-1.79,0-.62-.29-.93-.87-.93-2.95-.01-6.8-.01-11.55-.01-.52,0-.86.04-1.02.12-.3.15-.46.43-.46.86,0,1.12,0,14.47,0,40.05,0,.63.31.95.94.95,7.47,0,11.45,0,11.93,0,.35,0,.87-.06.98-.43.04-.13.06-.3.05-.49,0-2.36,0-9.38,0-21.09,0-3.23,2.08-5.47,5.01-6.52,1.54-.55,3.22-.85,5.03-.88.04,0,.07-.03.07-.07Z"/>
      <path d="M365.22,15.77c-2.93,0-6.98,0-12.18,0-.47,0-.8.06-.99.17-.31.19-.46.5-.46.94v40.1c0,.87.78.84,1.44.84,4.02,0,8.09,0,12.21,0,.39,0,.66-.08.86-.39.1-.16.1-.33.17-.48.02-.04.03-.07.03-.11,0-26,0-39.18,0-39.56.01-.85-.13-1.5-1.07-1.5Z"/>
    </g>
  </g>
</svg>