<?xml version="1.0" encoding="UTF-8"?>
<svg id="Layer_2" data-name="Layer 2" xmlns="http://www.w3.org/2000/svg" viewBox="0 0 450 56.11">
  <g id="Layer_1-2" data-name="Layer 1">
    <g>
      <path d="M264.64,46.42c-11.63.02-21.36.02-29.17,0-1.89,0-3.48.26-3.62-2.22-.11-2.08-.15-4.58-.12-7.51.01-1.2.01-13.38,0-36.53,0-.08-.07-.15-.15-.15h-9.41c-.2,0-.37.16-.37.37-.02,25.81-.03,42.41-.01,49.8,0,2.83.44,5.95,3.99,5.93,8.57-.02,21.55-.03,38.95,0,.2,0,.37-.16.37-.36v-8.86c0-.25-.21-.46-.46-.46Z"/>
      <path d="M93.2,46.42s0-.05-.02-.07c0-.02-.03-.04-.04-.06-.01-.02-.02-.04-.04-.06s-.04-.03-.06-.04c-.02-.01-.04-.03-.06-.04-.02,0-.05,0-.07-.01-.02,0-.05-.01-.07-.01-6.71.05-15.38.07-26,.05-3.63,0-6.32.3-7.42-3.22-3.46-11.12-3.17-22.1.9-32.95.08-.21.28-.35.51-.35h32.02s.1,0,.14-.03c.04-.02.08-.04.11-.08s.06-.07.08-.11c.02-.04.03-.09.03-.14V.24c0-.11-.09-.2-.19-.2H.36C.16.04,0,.2,0,.39v7.58c0,.29.24.53.53.53h21.41c.08,0,.14.03.19.08.05.05.08.11.08.19v46.84c0,.27.22.49.49.49h8.25c.18,0,.32-.14.32-.32V8.75c0-.16.13-.29.28-.29h18.13s.05,0,.07.01c0,0,0,0,.01,0,.02,0,.03.02.05.03.01,0,.03.02.04.03.01.01.02.02.03.04,0,.01.02.03.03.04,0,.01,0,.03.01.04,0,.02,0,.03.01.05,0,.03,0,.06,0,.09-1.37,4.27-2.28,8.67-2.72,13.2-.55,5.65-.16,12.15,1.17,19.49.97,5.33,2.26,12.58,8.03,14.33.61.19,3.21.28,7.78.28,15.69,0,25.2,0,28.55-.04.26,0,.47-.21.47-.47v-9.09s0,0,0,0c0-.02-.01-.05-.02-.07Z"/>
      <path d="M159.73.02h-9.14c-.21,0-.38.17-.38.38v22.04c0,.2-.16.36-.37.37-2.07.02-7.31.02-15.71.02-8.4,0-13.64-.01-15.72-.03-.2,0-.37-.17-.37-.37V.38c.01-.21-.16-.38-.37-.38h-9.14c-.23,0-.41.18-.41.4l-.03,55.19h0c0,.26.21.47.47.47h8.98c.26,0,.48-.21.48-.48v-22.94c.02-.12.11-.22.24-.22.5,0,5.79,0,15.86,0,10.08,0,15.37,0,15.87,0,.12,0,.22.1.22.22v22.94c0,.27.21.48.48.48h8.98c.26,0,.47-.21.47-.47V.43c0-.23-.18-.41-.41-.41Z"/>
      <path d="M216.99,46.45c-24.99-.02-37.68-.02-38.07,0-1.64.1-2.45-.8-2.43-2.7.03-3.31.01-6.86-.04-10.64,0,0,0,0,0,0,0-.03,0-.05.01-.07,0-.03,0-.05.02-.08,0-.02.03-.04.04-.06.01-.02.02-.04.04-.06.02-.02.04-.03.06-.04.02-.01.04-.03.06-.04.02,0,.05-.01.07-.02.03,0,.05-.02.08-.02h33.19c.22,0,.39-.18.39-.4v-9.21c0-.17-.14-.31-.31-.31h-33.35c-.15,0-.27-.12-.27-.27v-12.58c0-.16.13-.3.3-.3h40.23c.21,0,.38-.17.38-.38V.32c0-.17-.14-.3-.3-.3h-50.28c-.06,0-.12.02-.16.07-.04.04-.07.1-.07.16-.04,24.89-.03,42.04.02,51.46.01,2.26.83,3.66,2.45,4.18.45.14,2.18.22,5.2.22,25.23-.01,39.5-.02,42.8-.02.05,0,.1,0,.14-.03.08-.04.15-.1.19-.19.02-.04.03-.09.03-.14v-8.84c0-.24-.19-.43-.42-.43Z"/>
      <path d="M278.48,0h-9.63c-.18,0-.33.15-.33.33v55.41c0,.06.02.12.06.17.04.06.09.11.15.14.04.02.08.03.13.03h9.63c.09,0,.18-.04.24-.1s.1-.14.1-.24V.33c0-.18-.15-.33-.33-.33Z"/>
      <path d="M334.72,46.34c-.1-.1-.25-.16-.4-.16h-35.12c-.27,0-.55-.05-.8-.16-1.67-.68-2.76-1.93-3.28-3.75-3.11-10.97-2.73-21.75,1.14-32.34.06-.16.21-.27.38-.27h37.82c.24,0,.43-.19.43-.43V.43c0-.21-.17-.38-.38-.4-.01,0-.02,0-.03,0h-45.35c-.14,0-.26.08-.32.21-2.59,6.37-4.38,12.9-5.37,19.61-.77,5.19-.69,11.01.23,17.47.85,5.95,1.83,15.99,8.35,18.38.78.28,3.65.42,8.62.42,17.54-.02,28.83-.03,33.87-.02.21,0,.37-.17.37-.38v-8.97h0s0-.02,0-.04c0-.14-.06-.27-.16-.36Z"/>
      <path d="M386,.03c-7.63-.02-14.86-.03-21.67-.03s-14.04,0-21.67.02c-.19,0-.35.12-.42.29-3.85,10.32-6.5,20.53-5.62,31.65.47,5.95,1.45,11.53,2.96,16.76.8,2.77,2.84,5.72,5.68,6.83.81.31,2.27.49,4.37.53h29.4c2.1-.03,3.56-.21,4.37-.52,2.84-1.11,4.88-4.06,5.68-6.83,1.51-5.23,2.5-10.81,2.96-16.76.87-11.12-1.77-21.33-5.62-31.65-.07-.17-.24-.29-.42-.29ZM381.01,38.15c-.66,3.3-1.35,8.11-5.82,8.02-.04,0-3.66,0-10.88,0-7.21,0-10.84,0-10.88,0-4.47.08-5.15-4.73-5.82-8.02-1.89-9.43-1.2-18.74,2.07-27.95.12-.32.41-.53.75-.53,3.12,0,7.75-.01,13.88-.01s10.76,0,13.88.01c.33,0,.63.21.75.53,3.27,9.2,3.95,18.52,2.06,27.95Z"/>
      <path d="M449.8,0h-9.52c-.11,0-.2.09-.2.2v40.32s-.02.09-.06.13c0,0,0,.01-.01.02,0,0,0,0,0,.01-.02.01-.04.01-.06.02-.03,0-.05.02-.08.02,0,0-.01,0-.02,0-.05,0-.09-.03-.12-.07L408.73.1c-.04-.05-.1-.08-.16-.08h-11.23c-.11,0-.2.09-.2.2v55.67c0,.11.09.2.2.2h9.86c.11,0,.2-.09.2-.2V15.18s.02-.09.06-.13c0,0,0-.01.01-.02,0,0,0,0,0-.01.02-.01.04-.01.07-.02.03,0,.05-.02.08-.02,0,0,.01,0,.02,0,.05,0,.09.03.12.07l31.28,40.95c.04.05.1.08.16.08h10.58c.11,0,.2-.09.2-.2V.21c0-.11-.09-.2-.2-.2Z"/>
    </g>
  </g>
</svg>