<?xml version="1.0" encoding="UTF-8"?>
<svg id="Layer_2" data-name="Layer 2" xmlns="http://www.w3.org/2000/svg" viewBox="0 0 434.58 67">
  <g id="Layer_1-2" data-name="Layer 1">
    <g>
      <path d="M53.54,6.44C48.79,2.59,42.34-.17,36.24.03c-1.32.04-1.71,1.13-1.84,2.3-.03.24.11.47.34.56.81.32,1.96.67,3.44,1.06,3.96,1.04,7.92,3.16,10.86,5.6,5.29,4.42,8.92,11.15,8.88,18.22,0,1.08-.02,1.98-.05,2.67-.31,8.86-5.91,19.37-15.7,20.47-2.7.3-5.42.09-8.17-.65-.81-.22-1.29-.17-2.04.06-4.97,1.53-11.02.89-15.02-2.48-5.3-4.46-8.19-10.23-8.67-17.31-.38-5.68.72-11.08,3.76-15.78,3.27-5.05,8.36-8.45,14.09-10.39,1.43-.48,3.15-.96,5.17-1.43.29-.07.47-.34.42-.64-.1-.56-.35-1.11-.75-1.65C30.42-.12,28.8-.03,28.01.05c-5.81.59-10.94,2.7-15.39,6.32C6.98,10.99,3.14,16.71,1.12,23.56.31,26.29-.06,29,0,31.67c.15,6.08.95,11.5,3.51,16.94,4.78,10.16,14.49,16.66,25.51,18.11,8.62,1.14,18.09-1.24,24.85-6.81,2.91-2.4,5.23-5.05,6.95-7.97,5.8-9.84,7.05-22.46,2.43-32.9-2.18-4.91-5.41-9.11-9.71-12.59ZM57.47,46.96c-.32.72-.62,1.29-.9,1.71-.65.97-1.79,2.67-2.74,3.57-1.5,1.43-2.77,2.99-4.59,4.32-4.99,3.65-10.68,5.35-17.08,5.12-7.2-.26-14-2.99-18.75-8.2-.96-1.05-1.64-1.63-2.33-2.6-1.07-1.53-1.99-2.96-2.74-4.29-.01-.02-.01-.04,0-.07,0,0,0-.01,0-.02,0,0,0-.02,0-.02,0,0,.01,0,.02-.01,0,0,0-.01.01-.02,0,0,.02,0,.02,0,0,0,.01,0,.02,0,.02,0,.04,0,.06.02.28.2.5.42.66.65,3.07,4.34,8.77,8.06,14.11,8.89,3.14.49,6.2.37,9.17-.37.38-.09.78-.11,1.17-.03,4.88.89,10.03.73,14.52-1.34,3.03-1.39,5.67-3.31,7.94-5.76.27-.3.51-.58.71-.85.39-.53.59-.79.61-.8.02,0,.05,0,.06,0,0,0,0,0,0,0,.01,0,.01.02.02.02,0,0,.02.01.02.02,0,0,0,0,0,0,0,.02,0,.04,0,.06Z"/>
      <path d="M434.37,10.18h-9.12c-.08,0-.14.03-.19.08-.05.05-.08.12-.08.19v12.14s-.02.1-.05.13c0,0,0,0,0,0,0,0-.01,0-.02.01-.01,0-.02.02-.04.03-.01,0-.03,0-.05,0,0,0-.02,0-.02,0-.05,0-.09-.02-.13-.05-3.08-3.08-7.74-4.1-12.07-3.64-3.58.38-6.8,1.1-9.35,3.7-2.33,2.37-3.36,5.97-3.9,9.5-.92,5.92-.54,12.75,2.68,17.74,1.64,2.53,4.11,4.24,7.43,5.14,1.62.44,4.12.93,6.01.63,1.54-.24,3.33-.28,4.75-.63,1.57-.39,3.12-.99,4.64-1.79.04-.02.08-.03.12-.03,0,0,0,0,0,0,.01,0,.03,0,.04,0,.02,0,.04,0,.06.01.02,0,.03.02.05.03.02,0,.03.02.05.03.02.01.03.03.04.05,0,.01.02.03.03.04.02.04.03.08.03.12v.95c0,.2.17.37.37.37h8.75c.08,0,.15-.05.18-.12,0-.02.02-.05.02-.07V10.38c0-.11-.09-.21-.21-.21ZM424.85,44.69c-.46,3.14-2.3,6.23-5.62,6.73-3.6.55-8.13.56-9.93-3.27-.64-1.37-1.02-2.6-1.14-3.69-.4-3.62-.47-7.48-.2-11.59.04-.66.22-1.63.52-2.89,1.29-5.37,7.18-6.48,11.7-5.01.42.14.77.31,1.05.53,2.8,2.12,3.57,5.06,3.89,8.42.34,3.62.25,7.2-.27,10.76Z"/>
      <path d="M195.59,23.11c-1.46-1.15-3.32-2-5.57-2.54-4.92-1.2-11.32-1.13-15.34,2.33-.02.02-.05.03-.07.03,0,0,0,0,0,0-.01,0-.02-.01-.04-.02-.01,0-.03,0-.04-.02-.02-.02-.03-.04-.03-.07v-12.07c0-.23-.18-.41-.4-.41h-8.89c-.11,0-.2.09-.2.21v44.35c0,.09.07.16.16.16h8.9c.18,0,.32-.14.32-.32v-1.07s0-.04.01-.05c0,0,0,0,0,0,0,0,0,0,.01-.01,0,0,0-.01.02-.02,0,0,.01,0,.02-.01,0,0,.01,0,.02-.01,0,0,.02,0,.03,0,0,0,.01,0,.02,0,.02,0,.04,0,.05.01,7.18,3.65,18.68,3.98,23.45-4,2.64-4.42,2.72-9.55,2.54-14.72-.18-5.08-1.21-8.77-4.97-11.72ZM191.13,38.24c-.04,4.84.08,12.26-6.17,13.47-5.37,1.03-9.39-1.29-10.27-6.71-.36-2.21-.53-4.51-.51-6.88.02-2.38.22-4.67.62-6.87.96-5.4,5.01-7.67,10.37-6.55,6.23,1.3,6,8.72,5.96,13.56Z"/>
      <path d="M102.79,15.43v-4.8s0,0,0,0c0-.01,0-.03,0-.04,0-.01,0-.03,0-.04,0-.01-.02-.02-.02-.03,0-.01-.01-.02-.02-.03,0,0-.02-.01-.03-.02-.01,0-.02-.02-.03-.02-.01,0-.03,0-.04,0-.01,0-.03,0-.04,0-.25,0-6.37-.01-18.35,0-11.99,0-18.1.01-18.35.02,0,0,0,0,0,0-.01,0-.02,0-.04,0-.01,0-.03,0-.04,0-.01,0-.02.01-.03.02-.01,0-.02.01-.03.02,0,0-.02.02-.02.03,0,.01-.02.02-.02.03,0,.01,0,.03,0,.04,0,.01,0,.03,0,.04v4.8c.01.24.21.44.45.44h12.59s0-.01,0-.01c.04,0,.07.01.1.04,0,0,.01,0,.02.01.03.03.04.06.05.1,0,0,0,0,0,.01l.03,38.79s0,0,0,0c0,0,0,.02,0,.02,0,0,0,.02,0,.02,0,0,0,.01.01.02,0,0,0,.01.01.02,0,0,.01,0,.02.01,0,0,.01.01.02.01,0,0,.02,0,.02,0,0,0,.02,0,.03,0,.34,0,2.09,0,5.23,0,3.15,0,4.89,0,5.23-.01.07,0,.12-.06.12-.13V16.03c0-.09.08-.16.17-.16h12.59c.24,0,.44-.2.44-.44Z"/>
      <path d="M308.94,19.21c-5.21-1.11-10.25-1.18-15.23.18-4.77,1.3-8.13,5.16-9.3,9.88-.78,3.14-1.04,6.64-.79,10.5.41,6.37,2.1,11.87,8.11,14.45,1.8.77,4.25,1.22,7.35,1.36,4.29.18,9.17-.06,12.89-1.94,4.18-2.11,6.09-6.06,6.81-10.59.63-3.95.64-7.9.04-11.84-.9-5.89-3.65-10.69-9.88-12.02ZM309.35,42.32c-.18,3.96-.93,7.96-5.51,8.8-2.04.37-3.99.34-5.86-.1-3.85-.91-4.57-4-4.74-7.58-.13-2.7-.2-4.8-.21-6.31,0-.93.05-2.65.17-5.15.19-3.96.93-7.96,5.51-8.8,2.04-.37,3.99-.34,5.86.1,3.85.91,4.57,4,4.74,7.58.13,2.7.2,4.8.21,6.31,0,.93-.05,2.65-.17,5.15Z"/>
      <path d="M162.4,22.17s0-.03,0-.04c0-.02-.02-.04-.04-.06,0,0,0,0,0,0-.02-.02-.04-.04-.07-.05-.25-.1-.54-.33-.87-.67-.33-.34-.75-.67-1.28-.97-3.61-2.09-7.48-2.46-11.6-1.09-1,.33-1.79.63-2.39.9-.1.05-.23.04-.33-.01l-.4-.23c-.1-.05-.21-.08-.32-.09l-8.82-.18s0,0,0,0c-.02,0-.03,0-.05,0-.02,0-.04,0-.05.01-.02,0-.03.02-.04.03-.01,0-.03.02-.04.03-.01.01-.02.03-.03.04,0,.01-.02.03-.03.04,0,.02,0,.03-.01.05,0,.02-.01.04-.01.06v34.96c0,.05.04.09.09.09h9.7c.07,0,.12-.05.12-.12v-21.86c0-3.08-.23-7.37,2.27-8.89,1.02-.62,2.21-.84,3.57-.65,2.42.33,3.81,3.16,4.34,5.21,0,.02.01.03.02.05,0,0,0,0,0,0,0,0,0,0,.01.01,0,0,.01.01.02.02,0,0,.02,0,.02,0,0,0,.01,0,.02,0,0,0,.02,0,.03,0,0,0,.01,0,.02,0,.02,0,.03-.01.05-.02.7-.55,1.14-.95,1.31-1.18,1.3-1.7,2.88-3.43,4.74-5.2.02-.02.04-.04.05-.07,0,0,0,0,0,0,0,0,0,0,0,0,0-.02.01-.05.01-.07,0-.01,0-.03,0-.04Z"/>
      <path d="M230.27,19.37c-5-1.12-9.93-1.09-14.79.11-4.72,1.16-7.82,4-9.3,8.52-.95,2.92-1.4,6.11-1.34,9.56.13,7.51,1.76,15.6,10.37,17.53,5,1.12,9.93,1.09,14.79-.11,4.72-1.16,7.82-4,9.3-8.52.95-2.92,1.4-6.11,1.34-9.56-.14-7.51-1.76-15.6-10.37-17.53ZM230.58,43.22c-.11,2.28-.62,4.66-2.19,6.42-1.93,2.17-6.64,2.1-9.17,1.52-3.7-.85-4.5-3.99-4.74-7.29-.25-3.58-.33-6.05-.23-7.41,0-.01.13-2,.38-5.95.21-3.34,1.54-6.33,5.01-7.03.4-.08,1.41-.24,3.04-.47.12-.02.24-.02.36,0,2.99.39,5.98.68,6.95,4.14.31,1.13.5,2.2.55,3.21.23,4.49.25,8.77.05,12.86Z"/>
      <path d="M266.73,34.03c-1.37-.04-4.07-.25-8.11-.64-2.22-.21-4.5-1.04-4.66-3.63-.17-2.69.63-4.63,2.38-5.82,2.38-1.62,6.44-1.62,9.12-.76,3.42,1.1,3.74,4.39,3.73,7.49,0,.12.1.22.22.22h8.61s.08-.03.09-.08c.83-7.29-4.06-10.63-10.4-11.74-.03,0-1.1-.13-3.21-.37-3.06-.35-6.32.04-9.12.63-4.29.91-8.97,3.74-10.01,8.22-.32,1.38-.41,2.93-.27,4.65.44,5.33,4.31,7.71,9.25,8.09,2.66.2,5.82.12,8.79.45,2.88.33,5.56.31,6.35,3.79.33,1.44.11,2.88-.64,4.33-.95,1.85-4.76,2.26-6.45,2.55-.22.04-.84,0-1.86-.13-2.54-.31-5.01-.9-5.75-3.6-.35-1.27-.49-2.62-.41-4.07,0,0,0-.02,0-.02,0-.02,0-.04-.01-.06,0-.03,0-.05-.02-.08,0-.02-.02-.04-.04-.06-.01-.02-.02-.04-.04-.06-.02-.02-.04-.03-.06-.04-.02-.01-.04-.03-.06-.04-.02-.01-.05-.01-.08-.02-.03,0-.06-.02-.09-.02h-9.85c-.07,0-.13.04-.17.1-.02.03-.03.07-.03.1-.11,11.31,12.6,13.36,21.06,12.26,2.33-.3,4.03-.6,5.1-.88,3.69-.97,6.31-3.02,7.85-6.18,1.28-2.61,1.66-5.08,1.15-7.42-1.21-5.51-7.41-7.04-12.36-7.19Z"/>
      <path d="M386,19.35c-.67-.25-2.03-.5-4.05-.76-.23-.03-.46-.03-.68,0-1.4.19-2.46.3-3.19.33-2.42.1-5.15.91-7.09,2.08-.02,0-.03.01-.05.01,0,0,0,0-.02,0-.01,0-.03,0-.04-.01-.01,0-.02-.01-.03-.03-.01-.02-.03-.04-.03-.06v-1.37h0c0-.06-.04-.11-.09-.13-.02,0-.04-.01-.06-.01h-8.99c-.08,0-.14.03-.19.08s-.08.12-.08.19v35.03c0,.14.12.26.26.26h9.07c.07,0,.13-.06.13-.13,0-14.2,0-21.76,0-22.67,0-1.5.21-3.05.61-4.35.31-1.01,1.11-2.07,2.41-3.18,1.31-1.11,4.16-1.21,5.75-.98,2.92.43,4.72,1.78,5.11,4.7.25,1.89.38,3.11.38,3.67.02,4.64.03,12.24,0,22.79,0,0,0,0,0,0,0,.02,0,.03,0,.05,0,.02,0,.03,0,.05,0,.02.02.03.03.04,0,.01.02.03.03.04.01.01.03.02.04.03.01,0,.03.02.04.03.02,0,.03,0,.05.01.02,0,.03.01.05.01h8.88c.11,0,.2-.09.2-.2.02-7.52.02-14.94,0-22.26-.02-6.13-2.54-11.07-8.49-13.26Z"/>
      <path d="M130.15,19.69h-8.42c-.16,0-.29.13-.29.29.02,7.63.02,15.82-.01,24.6-.01,3.05-1.35,5.73-4.55,6.39-1.14.23-2.42.29-3.83.16-4.45-.4-5.51-3.55-5.64-7.41-.02-.62-.02-8.66,0-24.1h0s-.02-.08-.04-.11c-.04-.06-.1-.1-.18-.1h-8.62c-.15,0-.27.09-.32.22-.02.04-.03.09-.03.14-.03,9.71-.04,16.59,0,20.64.03,4.3.28,8.37,2.94,11.64,2.22,2.73,5.26,3.55,8.71,3.84,1.51.13,2.89-.31,4.35-.37,2.48-.12,4.71-.87,7.21-1.92.03-.01.06-.02.09-.02,0,0,0,0,0,0,.01,0,.02,0,.03,0,.02,0,.04,0,.06.01.01,0,.03.02.04.02.01,0,.03.01.04.03.01.01.02.03.03.05,0,0,.01.02.02.03.01.03.02.06.02.09v.98h0s.02.08.04.11c0,0,0,.01.01.02s.01,0,.02.01c.03.02.07.04.11.04h8.42c.06,0,.12-.05.12-.12V20c0-.17-.14-.31-.31-.31Z"/>
      <path d="M356.08,19.7h-8.81s0,0,0,0c-.03,0-.05.01-.08.02-.03,0-.05,0-.08.02-.02.01-.04.03-.06.04-.02.01-.05.03-.06.04-.02.02-.03.04-.04.06-.01.02-.03.04-.04.07-.01.02-.01.05-.02.08,0,.03-.02.05-.02.08.01,13.26.01,20.93-.01,22.99-.03,2.86-.47,6.29-3.49,7.51-1.39.57-2.74.81-4.04.73-4.56-.28-6.42-2-6.51-6.63-.02-1.05-.02-9.39,0-25.01,0-.17-.13-.3-.3-.3h-8.65c-.12,0-.22.09-.23.21-.04.42-.06.92-.06,1.5,0,4.98,0,11.46,0,19.45,0,2.37.12,5.06.6,7.33,1.44,6.9,7.51,8.54,13.74,7.85,3.36-.37,6.12-.68,8.87-2.21.03-.02.07-.02.1-.03,0,0,0,0,.01,0,0,0,.02,0,.03,0,.02,0,.03,0,.04,0,.01,0,.03.01.04.02.01,0,.02.01.03.02.01.01.02.02.03.03,0,0,.02.02.02.03.02.03.03.06.03.1v1.05c0,.11.09.2.2.2h8.89s.04,0,.05-.01c.05-.02.08-.07.08-.12V19.93c0-.13-.1-.23-.23-.23Z"/>
    </g>
  </g>
</svg>