<?xml version="1.0" encoding="UTF-8"?>
<svg id="Layer_2" data-name="Layer 2" xmlns="http://www.w3.org/2000/svg" viewBox="0 0 134.48 134.48">
  <defs>
    <style>
      .cls-1 {
        fill: #e12529;
      }
    </style>
  </defs>
  <g id="Layer_1-2" data-name="Layer 1">
    <g>
      <path class="cls-1" d="M77.68,55.54c0-5.76-4.67-10.44-10.44-10.44-2.52,0-4.83.89-6.64,2.38-.39.32-.75.67-1.09,1.04-.22.25-.44.51-.64.77s-.39.55-.56.83-.34.58-.48.89c-.29.61-.53,1.25-.7,1.92-.04.17-.08.34-.12.5-.14.68-.21,1.38-.21,2.1,0,5.76,4.67,10.44,10.44,10.44s10.44-4.67,10.44-10.44Z"/>
      <path class="cls-1" d="M67.24,0C30.16,0,0,30.16,0,67.24s30.16,67.24,67.24,67.24,67.24-30.16,67.24-67.24S104.32,0,67.24,0ZM38.33,57.73c-.59-12.49,6.88-24.46,18.78-28.88,3.23-1.2,6.69-1.81,10.2-1.81s6.96.61,10.19,1.8c11.9,4.41,19.37,16.38,18.79,28.87-.23,5.02-1.7,9.7-4.4,14.04-2.73,4.39-10.9,17.44-24.51,39.16,0,.01-.02.02-.04.03,0,0-.02,0-.03,0,0,0-.02,0-.03,0-.02,0-.03-.01-.04-.03-13.61-21.72-21.79-34.77-24.52-39.16-2.7-4.34-4.17-9.02-4.41-14.04Z"/>
    </g>
  </g>
</svg>