<?xml version="1.0" encoding="UTF-8"?>
<svg id="Layer_2" data-name="Layer 2" xmlns="http://www.w3.org/2000/svg" viewBox="0 0 134.48 134.48">
  <defs>
    <style>
      .cls-1 {
        fill: #e12529;
      }
    </style>
  </defs>
  <g id="Layer_1-2" data-name="Layer 1">
    <path class="cls-1" d="M67.24,0C30.16,0,0,30.16,0,67.24s30.16,67.24,67.24,67.24,67.24-30.16,67.24-67.24S104.32,0,67.24,0ZM49.88,63.83c.2.52.69,1.29,1.45,2.31,4.95,6.55,10.74,12.28,17.35,17.21,1.71,1.27,2.94,1.99,3.68,2.14,1.38.28,2.72.13,3.99-.43.57-.25,1.59-1.12,3.04-2.61,2.34-2.39,3.81-3.9,4.41-4.51,1.38-1.42,2.35-2.24,4.08-1.55.32.13.81.52,1.46,1.17,2.4,2.41,6.11,6.12,11.11,11.13.74.74,1.23,1.42,1.24,2.42,0,.69-.24,1.3-.73,1.81-1.97,2.08-4.34,4.61-6.76,6.03-2.98,1.74-6.13,2.57-9.46,2.48-1.81-.05-4-.52-6.57-1.39-3.61-1.23-6.69-2.56-9.24-3.97-10.98-6.07-20.09-14.42-27.35-25.05-3.06-4.48-5.59-9.53-7.33-14.65-1.12-3.3-1.3-6.52-.56-9.67.75-3.19,2.27-5.96,4.55-8.31.98-1,1.95-2,2.93-2.98,1.46-1.47,2.48-2.35,4.27-1.56.3.13.8.55,1.51,1.25,5.16,5.18,8.62,8.63,10.37,10.36,1.43,1.41,2.31,2.48,1.53,4.21-.13.29-.55.79-1.26,1.5-.94.94-3.03,3.03-6.26,6.25-1.72,1.71-2.33,4.13-1.45,6.41Z"/>
  </g>
</svg>