<svg width="17" height="16" viewBox="0 0 17 16" fill="none" xmlns="http://www.w3.org/2000/svg">
<path d="M16.0556 13.5044C16.0556 13.6663 15.9993 13.8094 15.8844 13.929C15.4222 14.417 14.8662 15.0105 14.2985 15.3436C13.5995 15.7518 12.8605 15.9442 12.0793 15.923C11.6571 15.9113 11.1433 15.8034 10.5404 15.597C9.69357 15.3061 8.97104 14.9964 8.37284 14.6656C5.79706 13.244 3.65761 11.2852 1.9545 8.78921C1.239 7.73825 0.64315 6.55358 0.237313 5.35249C-0.0254264 4.57835 -0.0699981 3.82063 0.103597 3.08402C0.279538 2.33334 0.636113 1.68353 1.17097 1.13459C1.40087 0.900003 1.63077 0.665415 1.85832 0.435518C2.20082 0.0906735 2.4401 -0.115764 2.86001 0.0695606C2.93039 0.102403 3.04768 0.20093 3.21189 0.365142C4.42237 1.57796 5.23404 2.38964 5.64457 2.79548C5.98003 3.12625 6.18647 3.37726 6.00349 3.78309C5.973 3.85112 5.87447 3.96842 5.70791 4.13498C5.4874 4.35549 4.99946 4.84578 4.23939 5.60115C3.83824 6.0023 3.6928 6.57 3.89924 7.10487C3.9485 7.2292 4.0611 7.40983 4.24174 7.64676C5.40295 9.18097 6.76121 10.5275 8.31184 11.684C8.71299 11.9843 9.00153 12.1509 9.17513 12.186C9.49886 12.2494 9.81086 12.2165 10.1111 12.0852C10.2472 12.0242 10.4841 11.8201 10.8243 11.4729C11.3732 10.9099 11.7181 10.558 11.8588 10.4149C12.1826 10.0818 12.4101 9.88943 12.8159 10.0489C12.891 10.0794 13.006 10.1709 13.1584 10.3258C13.7238 10.8911 14.5918 11.7614 15.7647 12.9344C15.9383 13.1103 16.0533 13.2675 16.0556 13.5044Z" fill="#D9D9D9"/>
</svg>
