<?xml version="1.0" encoding="UTF-8"?>
<svg id="Layer_2" data-name="Layer 2" xmlns="http://www.w3.org/2000/svg" viewBox="0 0 134.48 134.48">
  <defs>
    <style>
      .cls-1 {
        fill: #e12529;
      }
    </style>
  </defs>
  <g id="Layer_1-2" data-name="Layer 1">
    <path class="cls-1" d="M67.24,0C30.16,0,0,30.16,0,67.24s30.16,67.24,67.24,67.24,67.24-30.16,67.24-67.24S104.32,0,67.24,0ZM73.02,52.9c.07.23.77.57.86.57h11.08c-.13,3.44-.24,6.98-.69,10.39-.13,1.03-.22,2.53-.85,3.24h-10.06v38.01l-.51.51h-15.34l-.51-.51v-37.5c0-.76-1-.51-1.19-.51h-6.14l-.51-.51v-13.13h7.33l.51-.51v-10.57c0-4.55,4.09-11.12,8.4-12.74,3.75-1.42,14.64-1.9,18.72-1.42.5.06.88.04,1.18.53v12.78c-.4.62-8.87-1.23-11.1,1.69-1.6,2.1-1.03,7.07-1.19,9.67Z"/>
  </g>
</svg>