<?xml version="1.0" encoding="UTF-8"?>
<svg id="Layer_2" data-name="Layer 2" xmlns="http://www.w3.org/2000/svg" viewBox="0 0 134.48 134.48">
  <defs>
    <style>
      .cls-1 {
        fill: #e12529;
      }
    </style>
  </defs>
  <g id="Layer_1-2" data-name="Layer 1">
    <g>
      <path class="cls-1" d="M90.64,50.09c2.33,0,4.22-1.9,4.22-4.22s-1.89-4.22-4.22-4.22-4.22,1.89-4.22,4.22,1.89,4.22,4.22,4.22Z"/>
      <path class="cls-1" d="M89.58,67.53c0-11.37-9.23-20.6-20.61-20.6s-20.61,9.22-20.61,20.6,9.23,20.6,20.61,20.6,20.61-9.22,20.61-20.6ZM68.96,79.87c-6.82,0-12.34-5.52-12.34-12.34s5.53-12.34,12.34-12.34,12.35,5.52,12.35,12.34-5.53,12.34-12.35,12.34Z"/>
      <path class="cls-1" d="M67.24,0C30.16,0,0,30.16,0,67.24s30.16,67.24,67.24,67.24,67.24-30.16,67.24-67.24S104.32,0,67.24,0ZM33.91,87.14c0-13.73-1.3-27.92.04-40.73.76-7.24,7.01-13.41,14.31-13.83,14.45,0,27-.1,39.29-.1,9.31,0,15.3,6.87,15.3,15.99,0,10.63.02,26.31.02,37.28,0,8.37-6.01,14.9-14.62,15.62-12.72,1.07-26.71,0-39.73,0-8.02-.67-13.62-6.32-14.6-14.24Z"/>
    </g>
  </g>
</svg>