<svg width="19" height="17" viewBox="0 0 19 17" fill="none" xmlns="http://www.w3.org/2000/svg">
<path d="M19 2.32395L16.7397 0.865266C16.6798 0.825706 16.6217 0.786145 16.5665 0.751656C16.5515 0.742526 16.5365 0.733397 16.5225 0.725282L15.3998 0H15.2463L11.1011 2.77129C10.5768 3.08169 10.0852 3.24602 9.53277 3.25718C9.52154 3.25718 9.51124 3.25718 9.5 3.25718C9.48876 3.25718 9.47846 3.25718 9.46723 3.25718C8.91573 3.24602 8.42322 3.08169 7.89888 2.77129L3.75375 0H3.60019L0 2.32395V10.5414L8.00749 15.945L9.5 17L11.6358 15.5119L19 10.5414V2.32395Z" fill="#D9D9D9"/>
</svg>
