<?xml version="1.0" encoding="UTF-8"?>
<svg id="Layer_2" data-name="Layer 2" xmlns="http://www.w3.org/2000/svg" viewBox="0 0 134.48 134.48">
  <defs>
    <style>
      .cls-1 {
        fill: #e12529;
      }
    </style>
  </defs>
  <g id="Layer_1-2" data-name="Layer 1">
    <path class="cls-1" d="M67.24,0C30.16,0,0,30.16,0,67.24s30.16,67.24,67.24,67.24,67.24-30.16,67.24-67.24S104.32,0,67.24,0ZM26.99,78.7v-32.73l15.54-9.26h.66l17.89,11.04c2.26,1.24,4.38,1.89,6.77,1.94.05,0,.09,0,.14,0,.05,0,.09,0,.14,0,2.38-.04,4.51-.7,6.77-1.94l17.89-11.04h.66l4.85,2.89c.06.03.13.07.19.11.24.14.49.29.75.45l9.76,5.81v32.73l-31.78,19.8-9.22,5.93-6.44-4.2-34.55-21.53Z"/>
  </g>
</svg>