<svg width="11" height="16" viewBox="0 0 11 16" fill="none" xmlns="http://www.w3.org/2000/svg">
<path d="M7.01307 0.322016C6.43523 0.107339 5.81804 0 5.1901 0C4.56217 0 3.94318 0.109128 3.36534 0.323805C1.23824 1.11275 -0.0981232 3.25594 0.00563769 5.48859C0.0467842 6.38666 0.309764 7.2239 0.794578 8.00032C1.28297 8.78568 2.74457 11.1203 5.18116 15.006C5.18116 15.0078 5.18474 15.0095 5.18831 15.0113C5.18831 15.0113 5.19189 15.0113 5.19368 15.0113C5.19368 15.0113 5.19726 15.0113 5.19905 15.0113C5.20084 15.0113 5.20441 15.0095 5.2062 15.006C7.64101 11.1203 9.1026 8.78568 9.591 8.00032C10.074 7.2239 10.337 6.38666 10.3781 5.48859C10.4819 3.25416 9.14554 1.11275 7.01665 0.323805L7.01307 0.322016ZM5.17758 6.9645C4.14713 6.9645 3.30988 6.12905 3.30988 5.09681C3.30988 4.968 3.32241 4.84277 3.34745 4.72112C3.35282 4.69071 3.35998 4.66029 3.36892 4.63167C3.39933 4.51181 3.44227 4.39731 3.49415 4.28819C3.52098 4.23452 3.54961 4.18085 3.58002 4.12897C3.61043 4.07709 3.64442 4.02878 3.6802 3.98048C3.71598 3.93218 3.75355 3.88567 3.7947 3.84273C3.85552 3.77654 3.91993 3.71392 3.9897 3.65668C4.31171 3.39012 4.72676 3.2309 5.17758 3.2309C6.20803 3.2309 7.04528 4.06635 7.04528 5.09859C7.04528 6.13084 6.20982 6.96629 5.17758 6.96629V6.9645Z" fill="#D9D9D9"/>
</svg>
