<svg width="21" height="15" viewBox="0 0 21 15" fill="none" xmlns="http://www.w3.org/2000/svg">
<path d="M20.4749 0.138407C20.4538 0.124332 20.4303 0.110257 20.4092 0.0985271C20.3412 0.060993 20.2661 0.0328424 20.1863 0.0164212C20.1347 0.00469177 20.0784 0 20.0221 0H0.80933C0.361266 0 0 0.361266 0 0.80933V13.7821C0 13.8431 0.00703765 13.904 0.021113 13.9604C0.0328424 14.0073 0.0469177 14.0518 0.0633389 14.0964C0.0938353 14.1691 0.136061 14.2372 0.185325 14.2958C0.218167 14.3357 0.255701 14.3732 0.295581 14.4061C0.436334 14.521 0.614621 14.5914 0.80933 14.5914H20.0221C20.2426 14.5914 20.442 14.5022 20.5898 14.3591C20.5898 14.3591 20.5945 14.3568 20.5945 14.3545C20.6133 14.3357 20.6297 14.3169 20.6461 14.2982C20.6954 14.2372 20.7376 14.1715 20.7681 14.0988C20.7775 14.0753 20.7869 14.0495 20.7963 14.0237C20.8127 13.9721 20.8221 13.9205 20.8291 13.8665C20.8314 13.8384 20.8338 13.8126 20.8338 13.7844V0.80933C20.8338 0.614621 20.7634 0.433988 20.6485 0.295581C20.5992 0.234588 20.5406 0.182979 20.4772 0.138407H20.4749ZM17.1109 1.87905L10.5049 7.85167L3.89886 1.87905H17.1109ZM1.89313 3.07311L6.7796 7.49275L1.89313 11.652V3.07311ZM10.5283 12.7241C7.41534 12.7288 5.25712 12.7311 4.04899 12.7358L8.45691 8.98473C8.98239 9.47033 9.45391 9.89024 9.8574 10.2374C10.0427 10.397 10.2679 10.4791 10.526 10.4791C10.784 10.4791 11.0116 10.397 11.1969 10.2351C11.598 9.8879 12.0649 9.46798 12.5927 8.98004L17.01 12.717C15.8113 12.717 13.6507 12.7194 10.5307 12.7241H10.5283ZM14.263 7.46225L18.9336 3.23497V11.4338L14.263 7.46225Z" fill="#D9D9D9"/>
</svg>
