<?xml version="1.0" encoding="UTF-8"?>
<svg id="Layer_2" data-name="Layer 2" xmlns="http://www.w3.org/2000/svg" viewBox="0 0 134.48 134.48">
  <defs>
    <style>
      .cls-1 {
        fill: #e12529;
      }
    </style>
  </defs>
  <g id="Layer_1-2" data-name="Layer 1">
    <g>
      <polygon class="cls-1" points="95.79 45.82 39.47 45.82 67.63 71.28 95.79 45.82"/>
      <polygon class="cls-1" points="30.92 50.9 30.92 87.46 51.76 69.74 30.92 50.9"/>
      <polygon class="cls-1" points="83.65 69.61 103.56 86.54 103.56 51.59 83.65 69.61"/>
      <path class="cls-1" d="M70.57,81.44c-.79.69-1.75,1.04-2.86,1.04s-2.06-.35-2.85-1.03c-1.72-1.48-3.73-3.27-5.97-5.34l-18.79,15.99c5.16-.01,14.35-.03,27.62-.05,13.3-.02,22.5-.03,27.62-.03l-18.83-15.93c-2.24,2.08-4.24,3.88-5.95,5.35Z"/>
      <path class="cls-1" d="M67.24,0C30.16,0,0,30.16,0,67.24s30.16,67.24,67.24,67.24,67.24-30.16,67.24-67.24S104.32,0,67.24,0ZM24.1,99.22c-.17-.14-.33-.3-.47-.47-.21-.26-.39-.54-.52-.85-.08-.19-.14-.38-.18-.58-.06-.25-.09-.5-.09-.76h0v-55.3c0-1.91,1.54-3.45,3.45-3.45h81.9c.24,0,.47.02.7.07.34.07.66.19.95.35.1.05.19.11.28.17.28.19.52.41.73.67.49.6.79,1.36.79,2.19v55.3h0c0,.12,0,.24-.02.35-.02.23-.07.46-.14.67-.03.11-.07.21-.12.32-.13.31-.31.6-.52.85-.07.09-.14.17-.22.24,0,0-.02.01-.02.02-.62.61-1.48.99-2.42.99H26.3c-.83,0-1.6-.3-2.19-.79Z"/>
    </g>
  </g>
</svg>