<svg width="19" height="20" viewBox="0 0 19 20" fill="none" xmlns="http://www.w3.org/2000/svg">
<path d="M17.674 5.34371L13.2247 5.33461C13.1609 5.30228 13.1947 5.00022 13.188 4.91839C13.0275 2.68371 11.6984 0.0378572 9.28384 0.000477832C6.63726 -0.0399323 5.40097 2.48974 5.21441 4.93556C5.20861 5.00527 5.23084 5.30936 5.19701 5.33461L0.818275 5.34269C0.555358 5.373 0.264408 5.45786 0.12135 5.71245C-0.0922703 6.0923 0.0343555 6.53075 0.0672202 6.94395C0.316605 10.1 0.537959 13.2621 0.792177 16.4141C0.862739 17.291 0.871439 18.0648 1.51037 18.7225C1.85738 19.0801 2.28075 19.2377 2.75826 19.3034H15.6084C16.7325 19.1882 17.4323 18.3042 17.5715 17.1697C17.6537 16.503 17.6653 15.8018 17.7194 15.127C17.9437 12.2973 18.1911 9.4615 18.3903 6.62269C18.397 6.52368 18.4241 6.3974 18.426 6.30041C18.4396 5.75589 18.2095 5.40129 17.674 5.34472V5.34371ZM6.22935 5.01133C6.36178 3.4121 7.02487 1.35018 8.7348 1.00063C11.0382 0.530861 11.9671 3.15651 12.1711 5.06993C12.1798 5.14671 12.2069 5.30127 12.146 5.34269H6.25642C6.21582 5.32956 6.22452 5.06488 6.22935 5.01133ZM12.5297 15.1522C12.0822 16.412 10.7125 16.8677 9.42496 16.8677C8.93392 16.8677 8.45448 16.801 8.04271 16.6878C7.57004 16.5585 6.529 16.1292 6.14042 15.7342C5.94903 15.5402 5.92197 15.2634 6.07469 15.0472C6.22259 14.836 6.53093 14.7128 6.83348 14.8845L6.94851 14.9502C7.6812 15.3674 8.20993 15.6685 9.08665 15.7645C9.72558 15.8352 10.5994 15.7099 11.1146 15.2715C11.3582 15.0644 11.4954 14.8037 11.5244 14.4966C11.6317 13.3722 10.0533 12.8307 9.11081 12.5074C9.02285 12.4771 8.93972 12.4488 8.86336 12.4215C6.85765 11.7113 6.03506 10.6869 6.41881 9.37764C6.94464 7.58647 9.16688 7.28945 10.5037 7.65213C10.7473 7.7178 11.625 8.04007 11.8811 8.30577C12.0358 8.4664 12.0773 8.69977 11.9913 8.91495C11.9033 9.13417 11.71 9.2746 11.4964 9.2746H11.4916C11.3698 9.2746 11.2064 9.18267 10.9522 9.03214C10.8729 8.98567 10.7985 8.94122 10.7569 8.92202C9.99333 8.56439 9.22197 8.49973 8.52601 8.73512C8.00501 8.9099 7.57584 9.32713 7.48111 9.75043C7.41441 10.0464 7.51107 10.3283 7.76626 10.5889C8.208 11.0385 8.92136 11.2769 9.61055 11.5083C9.97206 11.6295 10.3142 11.7437 10.6236 11.8881C12.2697 12.6559 12.9821 13.8763 12.5287 15.1522H12.5297Z" fill="#D9D9D9"/>
</svg>
