<?xml version="1.0" encoding="UTF-8"?>
<svg id="Layer_2" data-name="Layer 2" xmlns="http://www.w3.org/2000/svg" viewBox="0 0 134.48 134.48">
  <defs>
    <style>
      .cls-1 {
        fill: #e12529;
      }
    </style>
  </defs>
  <g id="Layer_1-2" data-name="Layer 1">
    <g>
      <path class="cls-1" d="M79.05,45.5c.25-.17.14-.78.11-1.09-.85-7.65-4.74-18.16-14.37-16.28-7.15,1.4-9.92,9.64-10.48,16.04-.02.22-.06,1.27.11,1.33h24.62Z"/>
      <path class="cls-1" d="M72.69,71.68c-1.29-.58-2.72-1.03-4.23-1.52-2.88-.92-5.86-1.88-7.71-3.68-1.07-1.04-1.47-2.17-1.19-3.35.4-1.69,2.19-3.36,4.37-4.06,2.91-.94,6.13-.68,9.32.75.17.08.49.25.82.44,1.06.6,1.74.97,2.25.97h.02c.89,0,1.7-.56,2.07-1.44.36-.86.19-1.79-.46-2.44-1.07-1.06-4.74-2.35-5.76-2.62-5.59-1.45-14.88-.26-17.07,6.9-1.6,5.24,1.84,9.33,10.22,12.17.32.11.67.22,1.04.34,3.94,1.29,10.54,3.46,10.09,7.96-.12,1.23-.7,2.27-1.71,3.1-2.15,1.75-5.81,2.25-8.48,1.97-3.66-.38-5.88-1.59-8.94-3.26l-.48-.26c-1.27-.69-2.55-.19-3.17.65-.64.87-.53,1.97.27,2.75,1.63,1.58,5.98,3.3,7.95,3.81,1.72.45,3.72.72,5.78.72,5.38,0,11.11-1.82,12.98-6.86,1.89-5.1-1.08-9.98-7.96-13.06Z"/>
      <path class="cls-1" d="M67.24,0C30.16,0,0,30.16,0,67.24s30.16,67.24,67.24,67.24,67.24-30.16,67.24-67.24S104.32,0,67.24,0ZM105.15,50.62c-.83,11.35-1.86,22.7-2.8,34.02-.22,2.7-.28,5.5-.62,8.17-.58,4.54-3.51,8.07-8.21,8.54h-53.72c-1.99-.26-3.76-.89-5.22-2.32-2.67-2.63-2.7-5.73-3-9.23-1.06-12.61-1.99-25.25-3.03-37.88-.14-1.65-.67-3.4.23-4.93.6-1.02,1.82-1.36,2.91-1.48l18.3-.03c.14-.1.05-1.31.07-1.59.78-9.78,5.94-19.9,17.01-19.74,10.09.15,15.65,10.73,16.32,19.66.02.33-.12,1.54.15,1.67l18.6.04c2.24.23,3.2,1.65,3.14,3.82-.01.39-.12.89-.15,1.29Z"/>
    </g>
  </g>
</svg>